<svg width="597" height="601" viewBox="0 0 597 601" fill="none" xmlns="http://www.w3.org/2000/svg">
<path d="M464.5 306.5C464.5 410.33 380.33 494.5 276.5 494.5C172.67 494.5 88.5 410.33 88.5 306.5C88.5 202.67 172.67 118.5 276.5 118.5C380.33 118.5 464.5 202.67 464.5 306.5Z" stroke="white"/>
<path d="M208 480C208 483.314 205.314 486 202 486C198.686 486 196 483.314 196 480C196 476.686 198.686 474 202 474C205.314 474 208 476.686 208 480Z" fill="url(#paint0_linear_595_1608)"/>
<path d="M272 546C402.891 546 509 439.891 509 309C509 178.109 402.891 72 272 72" stroke="white"/>
<circle cx="174" cy="148" r="6" fill="url(#paint1_linear_595_1608)"/>
<circle cx="444" cy="471" r="6" fill="url(#paint2_linear_595_1608)"/>
<circle cx="433" cy="202" r="6" fill="url(#paint3_linear_595_1608)"/>
<g filter="url(#filter0_d_595_1608)">
<circle cx="504.547" cy="278.5" r="61.5469" stroke="white" stroke-width="2" shape-rendering="crispEdges"/>
</g>
<g filter="url(#filter1_bd_595_1608)">
<ellipse cx="505.319" cy="278.5" rx="61.3195" ry="62.5" fill="url(#paint4_linear_595_1608)"/>
<path d="M566.139 278.5C566.139 312.751 538.9 340.5 505.319 340.5C471.739 340.5 444.5 312.751 444.5 278.5C444.5 244.249 471.739 216.5 505.319 216.5C538.9 216.5 566.139 244.249 566.139 278.5Z" stroke="url(#paint5_linear_595_1608)"/>
</g>
<path d="M505.324 302.044C499.039 302.044 498.298 302.011 495.845 301.901C493.932 301.837 492.044 301.441 490.262 300.729C487.179 299.506 484.741 297.021 483.543 293.878C482.872 292.055 482.51 290.129 482.472 288.182C482.329 285.688 482.329 284.87 482.329 278.513C482.329 272.089 482.362 271.339 482.472 268.852C482.51 266.908 482.872 264.985 483.543 263.164C484.74 260.017 487.182 257.529 490.27 256.31C492.055 255.623 493.942 255.253 495.85 255.216C498.29 255.076 499.092 255.076 505.324 255.076C511.66 255.076 512.389 255.11 514.803 255.216C516.716 255.253 518.608 255.623 520.398 256.31C523.486 257.531 525.927 260.018 527.126 263.164C527.808 265.011 528.172 266.964 528.201 268.938C528.344 271.432 528.344 272.248 528.344 278.602C528.344 284.956 528.309 285.789 528.201 288.255C528.163 290.204 527.8 292.131 527.128 293.956C525.926 297.101 523.485 299.588 520.398 300.81C518.611 301.493 516.722 301.862 514.813 301.901C512.373 302.044 511.573 302.044 505.324 302.044ZM505.237 259.198C498.988 259.198 498.339 259.229 495.899 259.341C494.442 259.361 493 259.635 491.634 260.151C489.618 260.938 488.022 262.557 487.242 264.61C486.732 266.017 486.463 267.503 486.448 269.003C486.312 271.526 486.312 272.188 486.312 278.513C486.312 284.763 486.335 285.521 486.448 288.029C486.471 289.514 486.739 290.984 487.242 292.378C488.023 294.428 489.619 296.047 491.634 296.833C492.999 297.353 494.442 297.627 495.899 297.643C498.372 297.789 499.023 297.789 505.237 297.789C511.505 297.789 512.153 297.758 514.573 297.643C516.03 297.625 517.474 297.351 518.84 296.833C520.844 296.04 522.429 294.425 523.209 292.383C523.718 290.975 523.987 289.488 524.003 287.987H524.032C524.141 285.498 524.141 284.833 524.141 278.472C524.141 272.11 524.113 271.44 524.003 268.953C523.981 267.47 523.712 266.001 523.209 264.61C522.431 262.564 520.846 260.946 518.84 260.151C517.474 259.632 516.031 259.358 514.573 259.341C512.102 259.198 511.456 259.198 505.237 259.198ZM505.324 290.542C500.546 290.545 496.237 287.614 494.406 283.116C492.575 278.618 493.584 273.439 496.961 269.994C500.338 266.549 505.418 265.516 509.833 267.379C514.248 269.241 517.127 273.63 517.128 278.5C517.121 285.144 511.842 290.529 505.324 290.542ZM505.324 270.682C501.091 270.682 497.659 274.18 497.659 278.495C497.659 282.81 501.091 286.307 505.324 286.307C509.557 286.307 512.989 282.81 512.989 278.495C512.979 274.184 509.553 270.692 505.324 270.682ZM517.588 268.826C516.069 268.82 514.841 267.562 514.844 266.013C514.847 264.465 516.079 263.211 517.598 263.211C519.117 263.211 520.35 264.465 520.352 266.013C520.353 266.76 520.062 267.477 519.543 268.005C519.024 268.532 518.321 268.828 517.588 268.826Z" fill="#EF168B"/>
<g filter="url(#filter2_d_595_1608)">
<circle cx="97.4708" cy="216.423" r="42.4708" stroke="white" stroke-width="2" shape-rendering="crispEdges"/>
</g>
<g filter="url(#filter3_bd_595_1608)">
<ellipse cx="98" cy="216.423" rx="42" ry="42.8086" fill="url(#paint6_linear_595_1608)"/>
<path d="M139.5 216.423C139.5 239.799 120.911 258.732 98 258.732C75.0891 258.732 56.5 239.799 56.5 216.423C56.5 193.048 75.0891 174.115 98 174.115C120.911 174.115 139.5 193.048 139.5 216.423Z" stroke="url(#paint7_linear_595_1608)"/>
</g>
<path d="M79.577 216.427C79.5792 225.553 86.2151 233.323 95.228 234.753V221.788H90.5218V216.427H95.2336V212.346C95.0229 210.412 95.6834 208.485 97.036 207.087C98.3885 205.689 100.293 204.965 102.233 205.111C103.625 205.134 105.014 205.258 106.388 205.483V210.044H104.043C103.236 209.938 102.424 210.205 101.837 210.769C101.25 211.333 100.95 212.133 101.023 212.943V216.427H106.163L105.342 221.79H101.023V234.753C110.77 233.213 117.605 224.311 116.577 214.496C115.548 204.682 107.015 197.391 97.1606 197.905C87.3058 198.419 79.5786 206.559 79.577 216.427Z" fill="#1877F2"/>
<g filter="url(#filter4_d_595_1608)">
<ellipse cx="304" cy="531.5" rx="36" ry="36.5" fill="url(#paint8_linear_595_1608)"/>
<path d="M339 531.5C339 551.119 323.317 567 304 567C284.683 567 269 551.119 269 531.5C269 511.881 284.683 496 304 496C323.317 496 339 511.881 339 531.5Z" stroke="white" stroke-width="2"/>
</g>
<path d="M303.523 545H303.486C303.371 545 291.905 544.978 289.012 544.189C287.422 543.759 286.179 542.511 285.752 540.914C285.231 537.968 284.98 534.981 285.001 531.989C284.988 528.992 285.246 526 285.772 523.051C286.211 521.452 287.448 520.199 289.036 519.742C291.85 519 303 519 303.473 519H303.512C303.628 519 315.124 519.022 317.987 519.811C319.575 520.243 320.814 521.488 321.244 523.082C321.781 526.039 322.033 529.041 321.997 532.046C322.01 535.039 321.751 538.027 321.224 540.973C320.791 542.569 319.548 543.814 317.958 544.245C315.148 544.993 303.996 545 303.523 545ZM299.826 526.431L299.817 537.565L309.451 531.998L299.826 526.431Z" fill="#E54126"/>
<g filter="url(#filter5_d_595_1608)">
<ellipse cx="111.662" cy="423.352" rx="49.6621" ry="50.3518" fill="url(#paint9_linear_595_1608)"/>
<path d="M160.324 423.352C160.324 450.621 138.524 472.704 111.662 472.704C84.7997 472.704 63 450.621 63 423.352C63 396.083 84.7997 374 111.662 374C138.524 374 160.324 396.083 160.324 423.352Z" stroke="white" stroke-width="2"/>
</g>
<path d="M120.791 409.304H125.698L114.978 421.556L127.589 438.229H117.715L109.98 428.117L101.131 438.229H96.221L107.687 425.123L95.5891 409.304H105.714L112.705 418.546L120.791 409.304ZM119.069 435.292H121.788L104.237 412.086H101.319L119.069 435.292Z" fill="black"/>
<g filter="url(#filter6_d_595_1608)">
<ellipse cx="292.489" cy="76.2734" rx="56.4889" ry="57.2734" fill="url(#paint10_linear_595_1608)"/>
<path d="M347.978 76.2734C347.978 107.365 323.122 132.547 292.489 132.547C261.856 132.547 237 107.365 237 76.2734C237 45.1814 261.856 20 292.489 20C323.122 20 347.978 45.1814 347.978 76.2734Z" stroke="white" stroke-width="2"/>
</g>
<rect x="266" y="50" width="52" height="52" rx="11.3584" fill="black"/>
<path fill-rule="evenodd" clip-rule="evenodd" d="M297.616 72.4653C299.358 73.7045 301.444 74.3665 303.58 74.3585V70.1199C303.16 70.1211 302.741 70.0761 302.331 69.9857V73.3624C300.19 73.3662 298.101 72.6966 296.36 71.448V80.1654C296.355 81.5959 295.963 82.9982 295.226 84.2238C294.489 85.4494 293.434 86.4525 292.174 87.1267C290.913 87.8009 289.494 88.1212 288.066 88.0535C286.639 87.9859 285.256 87.5328 284.065 86.7423C285.167 87.8581 286.574 88.6215 288.11 88.936C289.646 89.2504 291.24 89.1017 292.691 88.5086C294.142 87.9156 295.385 86.9049 296.261 85.6045C297.138 84.3042 297.61 82.7726 297.616 81.2039V72.4653ZM299.162 68.1419C298.276 67.1811 297.733 65.9541 297.616 64.6521V64.1011H296.431C296.577 64.9287 296.896 65.7162 297.367 66.4124C297.837 67.1086 298.449 67.6978 299.162 68.1419ZM286.81 83.3868C286.399 82.8489 286.148 82.2063 286.083 81.5322C286.019 80.858 286.146 80.1795 286.448 79.5736C286.75 78.9678 287.216 78.4591 287.793 78.1054C288.37 77.7516 289.035 77.5671 289.711 77.5728C290.085 77.5727 290.456 77.6299 290.812 77.7423V73.3624C290.396 73.3072 289.976 73.2836 289.556 73.2918V76.6968C288.689 76.4224 287.75 76.4848 286.926 76.8716C286.103 77.2584 285.455 77.9413 285.112 78.7844C284.768 79.6275 284.755 80.5691 285.073 81.4219C285.392 82.2746 286.02 82.9761 286.832 83.3868H286.81Z" fill="#EE1D52"/>
<path fill-rule="evenodd" clip-rule="evenodd" d="M296.359 71.4197C298.1 72.6683 300.189 73.338 302.331 73.3342V69.9574C301.11 69.6992 300.002 69.0642 299.161 68.1419C298.448 67.6978 297.837 67.1086 297.366 66.4124C296.896 65.7162 296.577 64.9287 296.43 64.1011H293.31V81.2039C293.307 81.9609 293.068 82.698 292.625 83.3117C292.182 83.9254 291.558 84.385 290.841 84.6258C290.124 84.8666 289.35 84.8765 288.627 84.6543C287.904 84.4321 287.268 83.9888 286.81 83.3868C286.083 83.0198 285.501 82.4185 285.158 81.68C284.815 80.9414 284.73 80.1086 284.918 79.316C285.105 78.5233 285.554 77.817 286.192 77.3111C286.83 76.8051 287.619 76.529 288.433 76.5273C288.807 76.5285 289.178 76.5856 289.534 76.6968V73.2918C287.994 73.3288 286.498 73.8152 285.23 74.6912C283.962 75.5672 282.977 76.7947 282.396 78.2231C281.815 79.6515 281.663 81.2186 281.96 82.7319C282.256 84.2453 282.988 85.6391 284.064 86.7423C285.256 87.5385 286.641 87.9962 288.071 88.0669C289.502 88.1375 290.925 87.8184 292.189 87.1434C293.453 86.4685 294.51 85.4631 295.248 84.2343C295.987 83.0054 296.378 81.5992 296.381 80.1654L296.359 71.4197Z" fill="white"/>
<path fill-rule="evenodd" clip-rule="evenodd" d="M302.331 69.9575V69.0462C301.21 69.051 300.111 68.7374 299.162 68.142C300 69.0669 301.11 69.7025 302.331 69.9575ZM296.43 64.1012C296.43 63.9387 296.381 63.7692 296.36 63.6067V63.0557H292.054V80.1655C292.051 81.1236 291.667 82.041 290.988 82.7165C290.31 83.3919 289.391 83.7702 288.434 83.7683C287.87 83.7712 287.314 83.6405 286.81 83.3869C287.269 83.989 287.904 84.4322 288.627 84.6544C289.35 84.8767 290.125 84.8667 290.842 84.6259C291.559 84.3851 292.182 83.9256 292.625 83.3118C293.068 82.6981 293.308 81.961 293.311 81.204V64.1012H296.43ZM289.535 73.2848V72.317C287.763 72.0761 285.962 72.4429 284.425 73.3577C282.889 74.2724 281.707 75.681 281.072 77.3541C280.438 79.0272 280.388 80.866 280.932 82.5709C281.475 84.2757 282.579 85.7462 284.065 86.7424C282.996 85.6367 282.272 84.2434 281.982 82.7328C281.692 81.2222 281.847 79.6596 282.43 78.236C283.012 76.8124 283.996 75.5894 285.262 74.7165C286.527 73.8435 288.019 73.3583 289.556 73.3202L289.535 73.2848Z" fill="#69C9D0"/>
<g filter="url(#filter7_bd_595_1608)">
<circle cx="284.057" cy="306.057" r="118.057" fill="url(#paint11_linear_595_1608)"/>
</g>
<g filter="url(#filter8_d_595_1608)">
<g filter="url(#filter9_d_595_1608)">
<ellipse cx="379.411" cy="400.975" rx="36.3253" ry="37.0246" fill="url(#paint12_linear_595_1608)"/>
<path d="M414.601 400.975C414.601 420.817 398.826 436.865 379.411 436.865C359.996 436.865 344.221 420.817 344.221 400.975C344.221 381.134 359.996 365.086 379.411 365.086C398.826 365.086 414.601 381.134 414.601 400.975Z" stroke="white" stroke-width="2.27033"/>
</g>
<path d="M362.132 401.284C362.132 401.284 376.691 395.054 381.741 392.86C383.677 391.983 390.241 389.175 390.241 389.175C390.241 389.175 393.271 387.946 393.018 390.93C392.934 392.158 392.261 396.458 391.588 401.108C390.578 407.689 389.484 414.884 389.484 414.884C389.484 414.884 389.315 416.902 387.885 417.253C386.454 417.604 384.097 416.025 383.677 415.674C383.34 415.41 377.365 411.462 375.176 409.531C374.587 409.005 373.914 407.952 375.26 406.724C378.29 403.828 381.909 400.231 384.097 397.949C385.107 396.896 386.117 394.44 381.909 397.423C375.934 401.722 370.043 405.758 370.043 405.758C370.043 405.758 368.696 406.636 366.171 405.846C363.646 405.057 360.701 404.004 360.701 404.004C360.701 404.004 358.681 402.687 362.132 401.284Z" fill="#34AADF"/>
</g>
<path d="M272.877 367.988V364.385H269.273V362.592H272.877V359.024H274.67V362.592H278.237V364.385H274.67V367.988H272.877ZM282.748 367.988V356.424H280.185V354.631H284.846V367.988H282.748ZM291.957 368.203C291.24 368.203 290.564 368.072 289.931 367.809C289.309 367.546 288.771 367.176 288.317 366.697C287.875 366.219 287.558 365.658 287.367 365.012L289.16 364.331C289.399 364.964 289.763 365.454 290.253 365.801C290.744 366.148 291.311 366.321 291.957 366.321C292.483 366.321 292.937 366.219 293.319 366.016C293.714 365.813 294.019 365.526 294.234 365.156C294.461 364.785 294.574 364.337 294.574 363.811C294.574 363.297 294.461 362.855 294.234 362.484C294.019 362.114 293.714 361.833 293.319 361.641C292.937 361.45 292.483 361.355 291.957 361.355C291.742 361.355 291.52 361.373 291.293 361.408C291.078 361.444 290.887 361.492 290.72 361.552L290.253 360.566L293.768 356.424H288.084V354.631H296.134V356.334L292.692 360.458L292.638 359.777C293.439 359.789 294.144 359.968 294.754 360.315C295.363 360.649 295.835 361.116 296.17 361.713C296.517 362.299 296.69 362.98 296.69 363.757C296.69 364.594 296.487 365.353 296.08 366.034C295.674 366.703 295.112 367.235 294.395 367.63C293.69 368.012 292.877 368.203 291.957 368.203ZM299.833 367.988V365.658H301.895V367.988H299.833ZM310.495 368.203C309.432 368.203 308.499 367.917 307.698 367.343C306.898 366.757 306.27 365.95 305.816 364.922C305.374 363.883 305.153 362.675 305.153 361.301C305.153 359.914 305.374 358.707 305.816 357.679C306.27 356.651 306.892 355.85 307.681 355.277C308.481 354.703 309.414 354.416 310.477 354.416C311.541 354.416 312.468 354.703 313.256 355.277C314.057 355.85 314.679 356.657 315.121 357.697C315.575 358.725 315.802 359.926 315.802 361.301C315.802 362.675 315.581 363.883 315.139 364.922C314.697 365.95 314.075 366.757 313.274 367.343C312.485 367.917 311.559 368.203 310.495 368.203ZM310.495 366.267C311.153 366.267 311.721 366.064 312.199 365.658C312.677 365.251 313.047 364.677 313.31 363.936C313.573 363.195 313.705 362.317 313.705 361.301C313.705 360.285 313.573 359.406 313.31 358.665C313.047 357.924 312.677 357.35 312.199 356.944C311.721 356.538 311.147 356.334 310.477 356.334C309.82 356.334 309.252 356.538 308.774 356.944C308.296 357.35 307.926 357.924 307.663 358.665C307.4 359.406 307.268 360.285 307.268 361.301C307.268 362.305 307.4 363.183 307.663 363.936C307.926 364.677 308.296 365.251 308.774 365.658C309.264 366.064 309.838 366.267 310.495 366.267ZM322.236 368.203C321.518 368.203 320.843 368.072 320.21 367.809C319.588 367.546 319.05 367.176 318.596 366.697C318.154 366.219 317.837 365.658 317.646 365.012L319.439 364.331C319.678 364.964 320.042 365.454 320.532 365.801C321.022 366.148 321.59 366.321 322.236 366.321C322.762 366.321 323.216 366.219 323.598 366.016C323.993 365.813 324.297 365.526 324.513 365.156C324.74 364.785 324.853 364.337 324.853 363.811C324.853 363.297 324.74 362.855 324.513 362.484C324.297 362.114 323.993 361.833 323.598 361.641C323.216 361.45 322.762 361.355 322.236 361.355C322.02 361.355 321.799 361.373 321.572 361.408C321.357 361.444 321.166 361.492 320.999 361.552L320.532 360.566L324.046 356.424H318.363V354.631H326.413V356.334L322.971 360.458L322.917 359.777C323.718 359.789 324.423 359.968 325.033 360.315C325.642 360.649 326.114 361.116 326.449 361.713C326.796 362.299 326.969 362.98 326.969 363.757C326.969 364.594 326.766 365.353 326.359 366.034C325.953 366.703 325.391 367.235 324.674 367.63C323.969 368.012 323.156 368.203 322.236 368.203ZM330.686 367.988L341.551 354.631H343.81L332.945 367.988H330.686ZM332.73 361.408C332.073 361.408 331.481 361.253 330.955 360.942C330.429 360.619 330.005 360.195 329.682 359.669C329.371 359.143 329.216 358.558 329.216 357.912C329.216 357.267 329.371 356.681 329.682 356.155C330.005 355.617 330.429 355.193 330.955 354.882C331.481 354.571 332.073 354.416 332.73 354.416C333.387 354.416 333.979 354.571 334.505 354.882C335.031 355.193 335.449 355.617 335.76 356.155C336.071 356.681 336.226 357.267 336.226 357.912C336.226 358.558 336.071 359.143 335.76 359.669C335.449 360.195 335.031 360.619 334.505 360.942C333.979 361.253 333.387 361.408 332.73 361.408ZM332.73 359.777C333.1 359.777 333.417 359.687 333.68 359.508C333.955 359.329 334.164 359.096 334.308 358.809C334.451 358.522 334.523 358.223 334.523 357.912C334.523 357.589 334.451 357.291 334.308 357.016C334.164 356.729 333.955 356.496 333.68 356.317C333.417 356.137 333.1 356.048 332.73 356.048C332.371 356.048 332.055 356.137 331.78 356.317C331.505 356.496 331.29 356.729 331.134 357.016C330.991 357.291 330.919 357.589 330.919 357.912C330.919 358.223 330.991 358.522 331.134 358.809C331.29 359.096 331.505 359.329 331.78 359.508C332.055 359.687 332.371 359.777 332.73 359.777ZM341.676 368.203C341.019 368.203 340.421 368.048 339.884 367.737C339.358 367.415 338.939 366.99 338.629 366.464C338.318 365.938 338.162 365.353 338.162 364.707C338.162 364.062 338.318 363.476 338.629 362.95C338.939 362.412 339.358 361.988 339.884 361.677C340.421 361.367 341.019 361.211 341.676 361.211C342.334 361.211 342.926 361.367 343.451 361.677C343.977 361.988 344.396 362.412 344.706 362.95C345.017 363.476 345.173 364.062 345.173 364.707C345.173 365.353 345.017 365.938 344.706 366.464C344.396 366.99 343.977 367.415 343.451 367.737C342.926 368.048 342.334 368.203 341.676 368.203ZM341.676 366.572C342.047 366.572 342.364 366.482 342.627 366.303C342.89 366.124 343.093 365.891 343.236 365.604C343.392 365.317 343.469 365.018 343.469 364.707C343.469 364.385 343.392 364.086 343.236 363.811C343.093 363.524 342.89 363.291 342.627 363.112C342.364 362.932 342.047 362.843 341.676 362.843C341.318 362.843 341.001 362.932 340.726 363.112C340.451 363.291 340.236 363.524 340.081 363.811C339.937 364.086 339.866 364.385 339.866 364.707C339.866 365.018 339.937 365.317 340.081 365.604C340.236 365.891 340.451 366.124 340.726 366.303C341.001 366.482 341.318 366.572 341.676 366.572Z" fill="white"/>
<g clip-path="url(#clip0_595_1608)">
<path d="M355.235 321.153C355.252 321.032 355.252 320.91 355.235 320.789C355.22 320.687 355.191 320.587 355.149 320.493C355.103 320.409 355.05 320.327 354.992 320.25C354.926 320.141 354.844 320.041 354.749 319.955L354.541 319.834C354.441 319.759 354.329 319.7 354.211 319.66H353.864C353.758 319.558 353.634 319.475 353.499 319.417H344.818C344.358 319.417 343.916 319.6 343.591 319.925C343.265 320.251 343.082 320.693 343.082 321.153C343.082 321.614 343.265 322.055 343.591 322.381C343.916 322.706 344.358 322.889 344.818 322.889H349.732L342.787 331.066L335.287 326.605C334.932 326.393 334.513 326.316 334.106 326.386C333.698 326.456 333.329 326.669 333.065 326.987L324.384 337.403C324.238 337.579 324.128 337.781 324.06 337.999C323.992 338.217 323.968 338.447 323.989 338.674C324.01 338.902 324.076 339.123 324.182 339.325C324.289 339.527 324.434 339.706 324.61 339.851C324.922 340.11 325.315 340.251 325.721 340.251C325.976 340.251 326.228 340.195 326.459 340.087C326.69 339.979 326.895 339.822 327.058 339.626L334.784 330.355L342.197 334.799C342.549 335.008 342.962 335.085 343.366 335.019C343.769 334.952 344.136 334.745 344.402 334.435L351.763 325.841V329.834C351.763 330.294 351.946 330.736 352.272 331.061C352.597 331.387 353.039 331.57 353.499 331.57C353.96 331.57 354.401 331.387 354.727 331.061C355.052 330.736 355.235 330.294 355.235 329.834V321.153Z" fill="white"/>
</g>
<path d="M233.203 289V266.445H228.04V262.286H238.08V289H233.203ZM252.291 289.43C250.881 289.43 249.53 289.167 248.239 288.641C246.972 288.116 245.873 287.374 244.94 286.418C244.032 285.438 243.41 284.279 243.076 282.94L247.307 281.434C247.713 282.653 248.371 283.562 249.279 284.159C250.188 284.733 251.192 285.02 252.291 285.02C253.2 285.02 254.001 284.829 254.694 284.446C255.411 284.04 255.961 283.49 256.343 282.797C256.726 282.079 256.917 281.255 256.917 280.322C256.917 279.39 256.714 278.577 256.307 277.884C255.925 277.191 255.387 276.653 254.694 276.27C254.001 275.864 253.2 275.661 252.291 275.661C251.359 275.661 250.51 275.864 249.745 276.27C249.004 276.677 248.466 277.263 248.132 278.027L244.152 277.131L246.267 262.286H260.825V266.41H248.203L250.032 264.294L248.526 275.482L247.128 274.334C247.797 273.354 248.61 272.637 249.566 272.183C250.546 271.728 251.73 271.501 253.116 271.501C254.885 271.501 256.415 271.884 257.706 272.649C259.021 273.414 260.037 274.454 260.754 275.768C261.471 277.083 261.829 278.601 261.829 280.322C261.829 282.044 261.411 283.597 260.574 284.984C259.738 286.37 258.602 287.458 257.168 288.247C255.734 289.036 254.108 289.43 252.291 289.43ZM276.575 289.43C274.448 289.43 272.583 288.857 270.982 287.709C269.38 286.562 268.125 284.948 267.217 282.868C266.332 280.789 265.89 278.374 265.89 275.625C265.89 272.852 266.332 270.438 267.217 268.382C268.101 266.326 269.344 264.724 270.946 263.577C272.547 262.429 274.412 261.856 276.54 261.856C278.715 261.856 280.592 262.429 282.169 263.577C283.771 264.724 285.026 266.338 285.934 268.418C286.843 270.473 287.297 272.876 287.297 275.625C287.297 278.374 286.843 280.789 285.934 282.868C285.05 284.924 283.807 286.538 282.205 287.709C280.604 288.857 278.727 289.43 276.575 289.43ZM276.611 284.984C277.831 284.984 278.87 284.613 279.731 283.872C280.592 283.107 281.249 282.032 281.703 280.645C282.181 279.235 282.42 277.561 282.42 275.625C282.42 273.689 282.181 272.027 281.703 270.641C281.249 269.23 280.58 268.155 279.695 267.414C278.835 266.672 277.783 266.302 276.54 266.302C275.344 266.302 274.316 266.672 273.456 267.414C272.595 268.155 271.926 269.23 271.448 270.641C270.994 272.027 270.767 273.689 270.767 275.625C270.767 277.537 270.994 279.199 271.448 280.609C271.926 281.996 272.595 283.071 273.456 283.836C274.34 284.601 275.392 284.984 276.611 284.984ZM291.636 289V261.856H296.333V279.641L294.541 279.103L303.72 269.493H309.565L302.358 277.346L309.708 289H304.33L297.947 278.888L300.744 278.314L294.863 284.625L296.333 281.757V289H291.636Z" fill="white"/>
<path d="M231.93 322.348L227.197 308.991H229.474L233.347 320.394H232.899L236.753 308.991H239.03L234.297 322.348H231.93ZM240.494 322.348V312.649H242.52V322.348H240.494ZM240.494 311.322V308.991H242.52V311.322H240.494ZM248.564 322.563C247.572 322.563 246.7 322.318 245.947 321.828C245.205 321.338 244.686 320.681 244.387 319.856L245.947 319.121C246.21 319.671 246.568 320.107 247.022 320.43C247.488 320.752 248.002 320.914 248.564 320.914C249.042 320.914 249.431 320.806 249.73 320.591C250.028 320.376 250.178 320.083 250.178 319.713C250.178 319.474 250.112 319.282 249.981 319.139C249.849 318.983 249.682 318.858 249.479 318.762C249.287 318.667 249.09 318.595 248.887 318.547L247.363 318.117C246.526 317.878 245.899 317.519 245.48 317.041C245.074 316.551 244.871 315.983 244.871 315.338C244.871 314.752 245.02 314.244 245.319 313.814C245.618 313.372 246.03 313.031 246.556 312.792C247.082 312.553 247.674 312.433 248.331 312.433C249.216 312.433 250.004 312.655 250.698 313.097C251.391 313.527 251.881 314.131 252.168 314.908L250.608 315.643C250.417 315.177 250.112 314.806 249.694 314.531C249.287 314.256 248.827 314.119 248.313 314.119C247.871 314.119 247.518 314.226 247.255 314.441C246.992 314.645 246.861 314.914 246.861 315.248C246.861 315.475 246.921 315.667 247.04 315.822C247.16 315.965 247.315 316.085 247.506 316.181C247.698 316.264 247.895 316.336 248.098 316.396L249.676 316.862C250.477 317.089 251.092 317.448 251.522 317.938C251.953 318.416 252.168 318.989 252.168 319.659C252.168 320.233 252.013 320.741 251.702 321.183C251.403 321.613 250.985 321.954 250.447 322.205C249.909 322.444 249.281 322.563 248.564 322.563ZM254.243 322.348V312.649H256.269V322.348H254.243ZM254.243 311.322V308.991H256.269V311.322H254.243ZM262.922 322.456C261.906 322.456 261.117 322.169 260.556 321.595C259.994 321.021 259.713 320.215 259.713 319.175V314.477H258.01V312.649H258.279C258.733 312.649 259.086 312.517 259.337 312.254C259.588 311.991 259.713 311.633 259.713 311.178V310.425H261.739V312.649H263.944V314.477H261.739V319.085C261.739 319.42 261.793 319.707 261.9 319.946C262.008 320.173 262.181 320.352 262.42 320.484C262.659 320.603 262.97 320.663 263.353 320.663C263.448 320.663 263.556 320.657 263.675 320.645C263.795 320.633 263.908 320.621 264.016 320.609V322.348C263.849 322.372 263.663 322.396 263.46 322.42C263.257 322.444 263.078 322.456 262.922 322.456ZM270.587 322.563C269.655 322.563 268.8 322.342 268.023 321.9C267.258 321.458 266.649 320.854 266.194 320.089C265.74 319.324 265.513 318.458 265.513 317.489C265.513 316.509 265.74 315.643 266.194 314.89C266.649 314.125 267.258 313.527 268.023 313.097C268.788 312.655 269.643 312.433 270.587 312.433C271.543 312.433 272.398 312.655 273.151 313.097C273.916 313.527 274.519 314.125 274.962 314.89C275.416 315.643 275.643 316.509 275.643 317.489C275.643 318.47 275.416 319.342 274.962 320.107C274.508 320.872 273.898 321.476 273.133 321.918C272.368 322.348 271.519 322.563 270.587 322.563ZM270.587 320.681C271.161 320.681 271.669 320.543 272.111 320.268C272.553 319.993 272.9 319.617 273.151 319.139C273.414 318.649 273.545 318.099 273.545 317.489C273.545 316.88 273.414 316.336 273.151 315.858C272.9 315.38 272.553 315.003 272.111 314.728C271.669 314.453 271.161 314.316 270.587 314.316C270.025 314.316 269.517 314.453 269.063 314.728C268.621 315.003 268.268 315.38 268.005 315.858C267.754 316.336 267.629 316.88 267.629 317.489C267.629 318.099 267.754 318.649 268.005 319.139C268.268 319.617 268.621 319.993 269.063 320.268C269.517 320.543 270.025 320.681 270.587 320.681ZM277.711 322.348V312.649H279.647V314.603L279.468 314.316C279.683 313.682 280.029 313.228 280.508 312.953C280.986 312.667 281.559 312.523 282.229 312.523H282.82V314.37H281.978C281.308 314.37 280.765 314.579 280.346 314.997C279.94 315.404 279.737 315.989 279.737 316.754V322.348H277.711Z" fill="white"/>
<defs>
<filter id="filter0_d_595_1608" x="420.9" y="197.853" width="175.294" height="175.294" filterUnits="userSpaceOnUse" color-interpolation-filters="sRGB">
<feFlood flood-opacity="0" result="BackgroundImageFix"/>
<feColorMatrix in="SourceAlpha" type="matrix" values="0 0 0 0 0 0 0 0 0 0 0 0 0 0 0 0 0 0 127 0" result="hardAlpha"/>
<feOffset dx="4" dy="7"/>
<feGaussianBlur stdDeviation="12.55"/>
<feComposite in2="hardAlpha" operator="out"/>
<feColorMatrix type="matrix" values="0 0 0 0 0.819608 0 0 0 0 0.827451 0 0 0 0 0.854902 0 0 0 1 0"/>
<feBlend mode="normal" in2="BackgroundImageFix" result="effect1_dropShadow_595_1608"/>
<feBlend mode="normal" in="SourceGraphic" in2="effect1_dropShadow_595_1608" result="shape"/>
</filter>
<filter id="filter1_bd_595_1608" x="409.034" y="196" width="177.604" height="181.983" filterUnits="userSpaceOnUse" color-interpolation-filters="sRGB">
<feFlood flood-opacity="0" result="BackgroundImageFix"/>
<feGaussianBlur in="BackgroundImageFix" stdDeviation="10"/>
<feComposite in2="SourceAlpha" operator="in" result="effect1_backgroundBlur_595_1608"/>
<feColorMatrix in="SourceAlpha" type="matrix" values="0 0 0 0 0 0 0 0 0 0 0 0 0 0 0 0 0 0 127 0" result="hardAlpha"/>
<feOffset dx="-8.06896" dy="10.0862"/>
<feGaussianBlur stdDeviation="13.4483"/>
<feColorMatrix type="matrix" values="0 0 0 0 0 0 0 0 0 0 0 0 0 0 0 0 0 0 0.09 0"/>
<feBlend mode="normal" in2="effect1_backgroundBlur_595_1608" result="effect2_dropShadow_595_1608"/>
<feBlend mode="normal" in="SourceGraphic" in2="effect2_dropShadow_595_1608" result="shape"/>
</filter>
<filter id="filter2_d_595_1608" x="32.9" y="154.852" width="137.142" height="137.141" filterUnits="userSpaceOnUse" color-interpolation-filters="sRGB">
<feFlood flood-opacity="0" result="BackgroundImageFix"/>
<feColorMatrix in="SourceAlpha" type="matrix" values="0 0 0 0 0 0 0 0 0 0 0 0 0 0 0 0 0 0 127 0" result="hardAlpha"/>
<feOffset dx="4" dy="7"/>
<feGaussianBlur stdDeviation="12.55"/>
<feComposite in2="hardAlpha" operator="out"/>
<feColorMatrix type="matrix" values="0 0 0 0 0.819608 0 0 0 0 0.827451 0 0 0 0 0.854902 0 0 0 1 0"/>
<feBlend mode="normal" in2="BackgroundImageFix" result="effect1_dropShadow_595_1608"/>
<feBlend mode="normal" in="SourceGraphic" in2="effect1_dropShadow_595_1608" result="shape"/>
</filter>
<filter id="filter3_bd_595_1608" x="21.0345" y="153.615" width="138.966" height="142.6" filterUnits="userSpaceOnUse" color-interpolation-filters="sRGB">
<feFlood flood-opacity="0" result="BackgroundImageFix"/>
<feGaussianBlur in="BackgroundImageFix" stdDeviation="10"/>
<feComposite in2="SourceAlpha" operator="in" result="effect1_backgroundBlur_595_1608"/>
<feColorMatrix in="SourceAlpha" type="matrix" values="0 0 0 0 0 0 0 0 0 0 0 0 0 0 0 0 0 0 127 0" result="hardAlpha"/>
<feOffset dx="-8.06896" dy="10.0862"/>
<feGaussianBlur stdDeviation="13.4483"/>
<feColorMatrix type="matrix" values="0 0 0 0 0 0 0 0 0 0 0 0 0 0 0 0 0 0 0.09 0"/>
<feBlend mode="normal" in2="effect1_backgroundBlur_595_1608" result="effect2_dropShadow_595_1608"/>
<feBlend mode="normal" in="SourceGraphic" in2="effect2_dropShadow_595_1608" result="shape"/>
</filter>
<filter id="filter4_d_595_1608" x="246.9" y="476.9" width="122.2" height="123.2" filterUnits="userSpaceOnUse" color-interpolation-filters="sRGB">
<feFlood flood-opacity="0" result="BackgroundImageFix"/>
<feColorMatrix in="SourceAlpha" type="matrix" values="0 0 0 0 0 0 0 0 0 0 0 0 0 0 0 0 0 0 127 0" result="hardAlpha"/>
<feOffset dx="4" dy="7"/>
<feGaussianBlur stdDeviation="12.55"/>
<feComposite in2="hardAlpha" operator="out"/>
<feColorMatrix type="matrix" values="0 0 0 0 0.819608 0 0 0 0 0.827451 0 0 0 0 0.854902 0 0 0 0.38 0"/>
<feBlend mode="normal" in2="BackgroundImageFix" result="effect1_dropShadow_595_1608"/>
<feBlend mode="normal" in="SourceGraphic" in2="effect1_dropShadow_595_1608" result="shape"/>
</filter>
<filter id="filter5_d_595_1608" x="40.9" y="354.9" width="149.524" height="150.904" filterUnits="userSpaceOnUse" color-interpolation-filters="sRGB">
<feFlood flood-opacity="0" result="BackgroundImageFix"/>
<feColorMatrix in="SourceAlpha" type="matrix" values="0 0 0 0 0 0 0 0 0 0 0 0 0 0 0 0 0 0 127 0" result="hardAlpha"/>
<feOffset dx="4" dy="7"/>
<feGaussianBlur stdDeviation="12.55"/>
<feComposite in2="hardAlpha" operator="out"/>
<feColorMatrix type="matrix" values="0 0 0 0 0.819608 0 0 0 0 0.827451 0 0 0 0 0.854902 0 0 0 0.38 0"/>
<feBlend mode="normal" in2="BackgroundImageFix" result="effect1_dropShadow_595_1608"/>
<feBlend mode="normal" in="SourceGraphic" in2="effect1_dropShadow_595_1608" result="shape"/>
</filter>
<filter id="filter6_d_595_1608" x="214.9" y="0.9" width="163.178" height="164.747" filterUnits="userSpaceOnUse" color-interpolation-filters="sRGB">
<feFlood flood-opacity="0" result="BackgroundImageFix"/>
<feColorMatrix in="SourceAlpha" type="matrix" values="0 0 0 0 0 0 0 0 0 0 0 0 0 0 0 0 0 0 127 0" result="hardAlpha"/>
<feOffset dx="4" dy="7"/>
<feGaussianBlur stdDeviation="12.55"/>
<feComposite in2="hardAlpha" operator="out"/>
<feColorMatrix type="matrix" values="0 0 0 0 0.819608 0 0 0 0 0.827451 0 0 0 0 0.854902 0 0 0 0.38 0"/>
<feBlend mode="normal" in2="BackgroundImageFix" result="effect1_dropShadow_595_1608"/>
<feBlend mode="normal" in="SourceGraphic" in2="effect1_dropShadow_595_1608" result="shape"/>
</filter>
<filter id="filter7_bd_595_1608" x="0.904316" y="108.627" width="490.108" height="490.108" filterUnits="userSpaceOnUse" color-interpolation-filters="sRGB">
<feFlood flood-opacity="0" result="BackgroundImageFix"/>
<feGaussianBlur in="BackgroundImageFix" stdDeviation="31.7492"/>
<feComposite in2="SourceAlpha" operator="in" result="effect1_backgroundBlur_595_1608"/>
<feColorMatrix in="SourceAlpha" type="matrix" values="0 0 0 0 0 0 0 0 0 0 0 0 0 0 0 0 0 0 127 0" result="hardAlpha"/>
<feOffset dx="-38.099" dy="47.6238"/>
<feGaussianBlur stdDeviation="63.4983"/>
<feColorMatrix type="matrix" values="0 0 0 0 0 0 0 0 0 0 0 0 0 0 0 0 0 0 0.09 0"/>
<feBlend mode="normal" in2="effect1_backgroundBlur_595_1608" result="effect2_dropShadow_595_1608"/>
<feBlend mode="normal" in="SourceGraphic" in2="effect2_dropShadow_595_1608" result="shape"/>
</filter>
<filter id="filter8_d_595_1608" x="338.545" y="363.951" width="81.732" height="83.1306" filterUnits="userSpaceOnUse" color-interpolation-filters="sRGB">
<feFlood flood-opacity="0" result="BackgroundImageFix"/>
<feColorMatrix in="SourceAlpha" type="matrix" values="0 0 0 0 0 0 0 0 0 0 0 0 0 0 0 0 0 0 127 0" result="hardAlpha"/>
<feOffset dy="4.54066"/>
<feGaussianBlur stdDeviation="2.27033"/>
<feComposite in2="hardAlpha" operator="out"/>
<feColorMatrix type="matrix" values="0 0 0 0 0 0 0 0 0 0 0 0 0 0 0 0 0 0 0.25 0"/>
<feBlend mode="normal" in2="BackgroundImageFix" result="effect1_dropShadow_595_1608"/>
<feBlend mode="normal" in="SourceGraphic" in2="effect1_dropShadow_595_1608" result="shape"/>
</filter>
<filter id="filter9_d_595_1608" x="319.134" y="343.404" width="129.636" height="131.035" filterUnits="userSpaceOnUse" color-interpolation-filters="sRGB">
<feFlood flood-opacity="0" result="BackgroundImageFix"/>
<feColorMatrix in="SourceAlpha" type="matrix" values="0 0 0 0 0 0 0 0 0 0 0 0 0 0 0 0 0 0 127 0" result="hardAlpha"/>
<feOffset dx="4.54066" dy="7.94616"/>
<feGaussianBlur stdDeviation="14.2463"/>
<feComposite in2="hardAlpha" operator="out"/>
<feColorMatrix type="matrix" values="0 0 0 0 0.819608 0 0 0 0 0.827451 0 0 0 0 0.854902 0 0 0 0.38 0"/>
<feBlend mode="normal" in2="BackgroundImageFix" result="effect1_dropShadow_595_1608"/>
<feBlend mode="normal" in="SourceGraphic" in2="effect1_dropShadow_595_1608" result="shape"/>
</filter>
<linearGradient id="paint0_linear_595_1608" x1="199.3" y1="486" x2="208" y2="474" gradientUnits="userSpaceOnUse">
<stop stop-color="#1DABB4"/>
<stop offset="0.526042" stop-color="#5CD4DB"/>
<stop offset="1" stop-color="#A8FEFE"/>
</linearGradient>
<linearGradient id="paint1_linear_595_1608" x1="171.3" y1="154" x2="180" y2="142" gradientUnits="userSpaceOnUse">
<stop stop-color="#1DABB4"/>
<stop offset="0.526042" stop-color="#5CD4DB"/>
<stop offset="1" stop-color="#A8FEFE"/>
</linearGradient>
<linearGradient id="paint2_linear_595_1608" x1="441.3" y1="477" x2="450" y2="465" gradientUnits="userSpaceOnUse">
<stop stop-color="#1DABB4"/>
<stop offset="0.526042" stop-color="#5CD4DB"/>
<stop offset="1" stop-color="#A8FEFE"/>
</linearGradient>
<linearGradient id="paint3_linear_595_1608" x1="430.3" y1="208" x2="439" y2="196" gradientUnits="userSpaceOnUse">
<stop stop-color="#1DABB4"/>
<stop offset="0.526042" stop-color="#5CD4DB"/>
<stop offset="1" stop-color="#A8FEFE"/>
</linearGradient>
<linearGradient id="paint4_linear_595_1608" x1="444" y1="216" x2="568.977" y2="338.617" gradientUnits="userSpaceOnUse">
<stop stop-color="white"/>
<stop offset="0.795755" stop-color="#D0F3FD" stop-opacity="0.850513"/>
<stop offset="1" stop-color="#43D0F7"/>
</linearGradient>
<linearGradient id="paint5_linear_595_1608" x1="444" y1="216" x2="568.977" y2="338.617" gradientUnits="userSpaceOnUse">
<stop stop-color="white" stop-opacity="0.8"/>
<stop offset="1" stop-color="white" stop-opacity="0.2"/>
</linearGradient>
<linearGradient id="paint6_linear_595_1608" x1="56" y1="173.615" x2="141.602" y2="257.599" gradientUnits="userSpaceOnUse">
<stop stop-color="white"/>
<stop offset="0.795755" stop-color="#D0F3FD" stop-opacity="0.850513"/>
<stop offset="1" stop-color="#43D0F7"/>
</linearGradient>
<linearGradient id="paint7_linear_595_1608" x1="56" y1="173.615" x2="141.602" y2="257.599" gradientUnits="userSpaceOnUse">
<stop stop-color="white" stop-opacity="0.8"/>
<stop offset="1" stop-color="white" stop-opacity="0.2"/>
</linearGradient>
<linearGradient id="paint8_linear_595_1608" x1="268" y1="495" x2="340.993" y2="566.993" gradientUnits="userSpaceOnUse">
<stop stop-color="white"/>
<stop offset="0.795755" stop-color="#B8EAF8"/>
<stop offset="1" stop-color="#43D0F7"/>
</linearGradient>
<linearGradient id="paint9_linear_595_1608" x1="62" y1="373" x2="162.694" y2="472.315" gradientUnits="userSpaceOnUse">
<stop stop-color="white"/>
<stop offset="0.795755" stop-color="#B8EAF8"/>
<stop offset="1" stop-color="#43D0F7"/>
</linearGradient>
<linearGradient id="paint10_linear_595_1608" x1="236" y1="19" x2="350.536" y2="131.967" gradientUnits="userSpaceOnUse">
<stop stop-color="white"/>
<stop offset="0.795755" stop-color="#B8EAF8"/>
<stop offset="1" stop-color="#43D0F7"/>
</linearGradient>
<linearGradient id="paint11_linear_595_1608" x1="166" y1="188" x2="441.467" y2="438.613" gradientUnits="userSpaceOnUse">
<stop stop-color="white"/>
<stop offset="0.285" stop-color="#A0E7FB"/>
<stop offset="1" stop-color="#43D0F7"/>
</linearGradient>
<linearGradient id="paint12_linear_595_1608" x1="343.086" y1="363.951" x2="417.122" y2="436.588" gradientUnits="userSpaceOnUse">
<stop stop-color="white"/>
<stop offset="0.795755" stop-color="#D0F3FD"/>
<stop offset="1" stop-color="#43D0F7"/>
</linearGradient>
<clipPath id="clip0_595_1608">
<rect width="41.6673" height="41.6673" fill="white" transform="translate(318.776 309)"/>
</clipPath>
</defs>
</svg>
