<svg width="750" height="594" viewBox="0 0 750 594" fill="none" xmlns="http://www.w3.org/2000/svg">
<path d="M744.309 335.374V351.444C744.309 357.399 741.126 362.899 735.964 365.862L414.226 550.614C399.104 559.298 380.506 559.273 365.409 550.549L63.829 376.289C59.558 373.821 56.927 369.261 56.927 364.325V348.492C57.93 344.492 60.468 340.821 64.534 338.468L95.562 320.548L154.032 321.882L698.448 334.326L744.309 335.374Z" fill="url(#paint0_linear_1_224)"/>
<path d="M736.26 350.747L731.491 353.504L719.046 360.696L410.576 538.908C395.803 547.441 377.609 547.441 362.843 538.908L86.794 379.433L70.876 370.233L64.526 366.562C53.722 360.322 53.722 344.717 64.534 338.468L395.519 147.281C406.563 140.906 420.168 140.891 431.227 147.251L736.238 322.639C747.065 328.872 747.08 344.499 736.26 350.747Z" fill="#2A2F6D"/>
<path d="M736.26 350.747L731.491 353.504L719.046 360.696L419.419 187.264L86.794 379.433L70.876 370.233L64.526 366.562C53.722 360.322 53.722 344.717 64.534 338.469L395.519 147.281C406.563 140.906 420.168 140.891 431.227 147.251L736.238 322.639C747.065 328.872 747.08 344.499 736.26 350.747Z" fill="#242D60"/>
<path d="M744.309 338.064C743.897 343.053 741.217 347.885 736.26 350.747L731.49 353.504L698.448 334.326L423.14 174.551C418.273 171.734 412.268 171.734 407.409 174.558L154.032 321.882L70.876 370.233L64.526 366.562C60.468 364.217 57.93 360.554 56.927 356.553C56.26 353.909 56.26 351.129 56.927 348.492C57.93 344.492 60.468 340.821 64.534 338.468L95.562 320.548L395.519 147.281C406.563 140.906 420.168 140.891 431.227 147.251L736.237 322.639C741.217 325.5 743.912 330.363 744.309 335.374C744.384 336.266 744.384 337.172 744.309 338.064Z" fill="url(#paint1_linear_1_224)"/>
<g opacity="0.49">
<path opacity="0.49" d="M88.385 545.785L3.13698 496.536C0.0489838 494.752 0.0489838 490.292 3.13698 488.508L97.723 433.873C100.879 432.05 104.767 432.046 107.926 433.863L195.087 483.984C198.182 485.764 198.187 490.23 195.095 492.016L102.025 545.785C97.804 548.223 92.605 548.223 88.385 545.785Z" fill="url(#paint2_linear_1_224)"/>
</g>
<g opacity="0.49">
<path opacity="0.49" d="M521.905 290.067C504.582 280.039 504.868 263.754 522.541 253.878C540.213 244.002 568.087 244.002 584.482 253.878C600.878 263.754 600.593 280.039 583.847 290.067C567.102 300.095 539.228 300.095 521.905 290.067Z" fill="url(#paint3_linear_1_224)"/>
</g>
<g opacity="0.49">
<path opacity="0.49" d="M320.487 251.92C310.146 245.934 310.317 236.213 320.866 230.317C331.415 224.422 348.053 224.422 357.84 230.317C367.627 236.212 367.456 245.934 357.461 251.92C347.466 257.905 330.827 257.905 320.487 251.92Z" fill="url(#paint4_linear_1_224)"/>
</g>
<g opacity="0.49">
<path opacity="0.49" d="M605.123 373.687C599.479 370.42 599.572 365.113 605.331 361.895C611.089 358.677 620.172 358.677 625.514 361.895C630.856 365.113 630.764 370.419 625.307 373.687C619.85 376.954 610.767 376.954 605.123 373.687Z" fill="url(#paint5_linear_1_224)"/>
</g>
<g opacity="0.46">
<path opacity="0.46" d="M190.331 202.961L61.428 277.969C56.543 280.812 50.413 277.301 50.388 271.646L50.216 231.625C50.204 228.996 51.597 226.56 53.869 225.239L182.773 150.231C187.658 147.388 193.788 150.899 193.813 156.554L193.985 196.576C193.996 199.204 192.603 201.639 190.331 202.961Z" fill="#CDE9F9"/>
</g>
<g opacity="0.46">
<path opacity="0.46" d="M349.775 140.526L220.872 215.533C215.986 218.376 209.856 214.865 209.831 209.21L209.659 169.189C209.648 166.56 211.04 164.125 213.312 162.803L342.215 87.796C347.101 84.953 353.231 88.463 353.256 94.119L353.428 134.14C353.439 136.769 352.047 139.204 349.775 140.526Z" fill="#CDE9F9"/>
</g>
<g opacity="0.46">
<path opacity="0.46" d="M361.509 59.741L232.606 134.749C227.72 137.592 221.59 134.082 221.566 128.426L221.393 88.405C221.382 85.776 222.775 83.341 225.047 82.019L353.95 7.01202C358.835 4.16902 364.965 7.67902 364.99 13.335L365.162 53.356C365.174 55.985 363.78 58.419 361.509 59.741Z" fill="#CDE9F9"/>
</g>
<g opacity="0.49">
<path opacity="0.49" d="M207.507 585.474C188.8 575.172 188.621 558.212 207.109 547.784C225.598 537.357 255.382 537.269 273.297 547.59C291.211 557.911 291.39 574.872 273.694 585.28C255.998 595.689 226.214 595.776 207.507 585.474Z" fill="url(#paint6_linear_1_224)"/>
</g>
<g opacity="0.46">
<path opacity="0.46" d="M511.728 20.334V167.961C511.728 175.179 515.575 181.848 521.822 185.457L719.253 299.558C732.715 307.338 749.547 297.617 749.547 282.061V133.606C749.547 126.366 745.675 119.68 739.398 116.078L541.967 2.807C528.504 -4.917 511.728 4.807 511.728 20.334Z" fill="url(#paint7_linear_1_224)"/>
</g>
<path d="M609.951 65.125V68.466L623.977 76.561V73.22L609.951 65.125Z" fill="white"/>
<path d="M609.951 71.228V74.569L623.977 82.664V79.324L609.951 71.228Z" fill="white"/>
<path d="M609.951 77.331V80.672L623.977 88.768V85.426L609.951 77.331Z" fill="white"/>
<path d="M715.807 147.867V144.526L629.239 94.566V97.907L715.807 147.867Z" fill="white"/>
<path d="M609.951 83.434V86.775L623.977 94.87V91.529L609.951 83.434Z" fill="white"/>
<path d="M609.951 89.538V92.878L623.977 100.973V97.632L609.951 89.538Z" fill="white"/>
<path d="M715.807 153.97V150.629L629.239 100.67V104.01L715.807 153.97Z" fill="white"/>
<path d="M609.951 107.847V111.187L623.977 119.282V115.941L609.951 107.847Z" fill="white"/>
<path d="M609.951 113.949V117.29L623.977 125.385V122.044L609.951 113.949Z" fill="white"/>
<path d="M609.951 138.361V141.702L623.977 149.797V146.456L609.951 138.361Z" fill="white"/>
<path d="M609.951 144.464V147.805L623.977 155.9V152.559L609.951 144.464Z" fill="white"/>
<path d="M683.853 187.115L629.239 155.596V158.937L683.853 190.456V187.115Z" fill="white"/>
<path d="M686.731 188.776V192.117L715.807 208.897V205.557L686.731 188.776Z" fill="white"/>
<path d="M656.678 165.329L629.239 149.493V152.834L656.678 168.67V165.329Z" fill="white"/>
<path d="M659.557 166.99V170.331L715.807 202.794V199.453L659.557 166.99Z" fill="white"/>
<path d="M708.407 176.873V180.215L715.807 184.485V181.144L708.407 176.873Z" fill="white"/>
<path d="M668.137 147.53L629.239 125.081V128.422L668.137 150.871V147.53Z" fill="white"/>
<path d="M652.199 89.508L629.239 76.257V79.598L652.199 92.848V89.508Z" fill="white"/>
<path d="M689.832 111.227L655.077 91.169V94.51L689.832 114.568V111.227Z" fill="white"/>
<path d="M669.576 105.64L645.107 91.517V94.858L669.576 108.981V105.64Z" fill="white"/>
<path d="M695.25 120.457L672.455 107.3V110.642L695.25 123.797V120.457Z" fill="white"/>
<path d="M698.129 122.117V125.459L715.807 135.661V132.32L698.129 122.117Z" fill="white"/>
<path d="M633.761 91.073V94.414L652.199 105.054V101.713L633.761 91.073Z" fill="white"/>
<path d="M708.595 134.261L655.077 103.375V106.716L708.595 137.601V134.261Z" fill="white"/>
<path d="M677.954 134.887L642.98 114.702V118.043L677.954 138.227V134.887Z" fill="white"/>
<path d="M708.595 152.57L680.832 136.548V139.889L708.595 155.911V152.57Z" fill="white"/>
<path d="M705.529 169.109L671.016 149.191V152.532L705.529 172.45V169.109Z" fill="white"/>
<path d="M686.731 164.364V167.705L705.529 178.553V175.212L686.731 164.364Z" fill="white"/>
<path d="M636.008 135.091L629.239 131.184V134.525L636.008 138.432V135.091Z" fill="white"/>
<path d="M648.688 142.408V145.749L683.853 166.043V162.703L648.688 142.408Z" fill="white"/>
<path d="M645.809 140.747L638.887 136.752V140.093L645.809 144.088V140.747Z" fill="white"/>
<path d="M677.347 165.051L638.887 142.855V146.196L677.347 168.392V165.051Z" fill="white"/>
<path d="M527.262 22.288V121.984C527.262 125.251 529.016 128.267 531.855 129.882L579.787 157.137C583.924 159.49 589.058 156.5 589.058 151.739V54.243C589.058 50.797 587.2 47.62 584.198 45.932L534.548 18.021C531.288 16.189 527.262 18.547 527.262 22.288Z" fill="url(#paint8_linear_1_224)"/>
<path opacity="0.5" d="M621.483 171.025L647.378 185.985C648.432 186.594 649.081 187.719 649.081 188.936V243.454C649.081 245.322 647.059 246.49 645.442 245.556L620.043 230.883C619.052 230.311 618.441 229.252 618.441 228.107V172.781C618.441 171.22 620.131 170.244 621.483 171.025Z" fill="url(#paint9_linear_1_224)"/>
<path d="M621.568 172.36C621.283 172.198 621.051 172.33 621.051 172.655C621.051 172.981 621.283 173.383 621.568 173.549C621.853 173.715 622.085 173.583 622.085 173.254C622.086 172.925 621.853 172.523 621.568 172.36Z" stroke="white" stroke-width="0.25" stroke-miterlimit="10"/>
<path d="M623.228 173.337C622.943 173.175 622.711 173.307 622.711 173.632C622.711 173.957 622.943 174.36 623.228 174.526C623.513 174.692 623.745 174.56 623.745 174.231C623.745 173.902 623.513 173.5 623.228 173.337Z" stroke="white" stroke-width="0.25" stroke-miterlimit="10"/>
<path d="M624.861 174.232C624.576 174.069 624.344 174.202 624.344 174.527C624.344 174.852 624.576 175.254 624.861 175.421C625.146 175.587 625.378 175.454 625.378 175.125C625.378 174.797 625.146 174.394 624.861 174.232Z" stroke="white" stroke-width="0.25" stroke-miterlimit="10"/>
<path d="M660.784 196.919V229.926C660.784 231.35 661.542 232.666 662.774 233.38L684.378 245.895C685.97 246.818 687.962 245.668 687.962 243.828V211.423C687.962 209.717 687.049 208.14 685.569 207.292L664.107 194.991C662.627 194.143 660.784 195.212 660.784 196.919Z" fill="white"/>
<path d="M694.803 216.604V249.318C694.803 250.931 695.663 252.421 697.059 253.227L711.358 261.488C713.072 262.478 715.215 261.241 715.215 259.26V227.742C715.215 225.679 714.115 223.773 712.329 222.742L698.254 214.61C696.721 213.725 694.803 214.832 694.803 216.604Z" fill="#17A1DB"/>
<path d="M111.65 309.25C111.65 309.25 106.343 305.237 99.941 306.322C93.539 307.406 84.786 310.44 83.334 313.302C81.882 316.163 83.149 322.675 89.207 323.285C95.266 323.896 100.916 324.139 102.136 325.482C103.356 326.824 97.839 330.103 100.964 331.453C104.088 332.804 114.333 329.509 115.309 326.458C116.285 323.406 111.65 309.25 111.65 309.25Z" fill="url(#paint10_linear_1_224)"/>
<path d="M289.846 430.676C289.846 430.676 299.787 435.207 302.286 440.073C304.786 444.939 304.654 446.351 301.554 445.198C298.455 444.046 296.554 442.663 296.554 442.663C296.554 442.663 297.769 451.724 299.602 454.107C301.436 456.49 303.018 462.161 293.017 463.137C283.015 464.113 275.453 464.602 272.892 451.178C270.33 437.753 271.56 431.246 271.56 431.246L289.846 430.676Z" fill="url(#paint11_linear_1_224)"/>
<path d="M284.921 284.048C284.565 286.694 284 289.045 283.263 291.132C279.329 302.362 270.618 306.036 264.88 306.819C258.084 307.754 227.371 295.312 227.371 295.312C227.371 295.312 217.863 281.191 224.193 265.082C229.976 250.369 246.274 243.022 261.472 245.63C262.907 245.866 264.334 246.202 265.743 246.63C282.033 251.56 287.165 267.195 284.921 284.048Z" fill="white"/>
<g opacity="0.38">
<path opacity="0.38" d="M284.921 284.048C284.565 286.694 284 289.045 283.263 291.132C279.329 302.362 270.618 306.036 264.88 306.819C262.044 307.207 255.063 305.272 247.872 302.882C237.819 299.545 227.371 295.312 227.371 295.312C227.371 295.312 217.863 281.191 224.193 265.082C226.647 258.848 230.983 253.93 236.332 250.547C243.596 245.932 252.715 244.128 261.472 245.63C262.907 245.866 264.334 246.202 265.743 246.63C282.033 251.56 287.165 267.195 284.921 284.048Z" fill="url(#paint12_linear_1_224)"/>
</g>
<g opacity="0.52">
<path opacity="0.52" d="M247.872 302.882C237.819 299.545 227.371 295.312 227.371 295.312C227.371 295.312 217.863 281.191 224.193 265.082C226.647 258.848 230.983 253.93 236.332 250.547C230.292 257.835 228.654 267.762 231.299 280.586C233.246 290.039 240.97 297.721 247.872 302.882Z" fill="url(#paint13_linear_1_224)"/>
</g>
<path d="M293.974 432.463C293.974 432.463 289.482 435.115 282.159 435.579C274.844 436.044 269.722 434.096 269.722 434.096C269.722 434.096 257.525 391.378 256.552 381.377C255.571 371.368 254.597 357.658 254.597 357.658C254.597 357.658 254.395 357.868 254.028 358.273C250.704 361.906 233.7 381.16 227.275 401.634C220.14 424.372 196.142 464.827 187.434 479.847C178.734 494.868 165.563 494.134 158.241 494.134C157.103 494.134 155.208 494.029 152.82 493.842C139.866 492.853 112.432 489.662 112.432 489.662C112.432 489.662 107.49 504.218 95.907 508.451C84.332 512.683 83.807 511.035 83.351 504.383C82.894 497.738 94.575 467.284 100.183 465.336C105.798 463.381 107.52 467.441 120.564 466.018C133.607 464.602 162.187 461.733 162.187 461.733C162.187 461.733 167.855 452.383 171.831 438.965C175.177 427.683 175.709 417.951 175.791 415.142C175.806 414.61 175.806 414.325 175.806 414.325C175.806 414.325 145.07 437.025 139.949 439.22C134.85 441.408 83.59 448.667 72.771 448.735H72.621C72.621 448.735 66.766 461.673 58.23 467.044C49.687 472.416 39.691 473.981 39.931 471C40.178 468.018 47.493 446.787 59.937 434.336C59.937 434.336 63.591 429.945 70.18 431.167C70.18 431.167 122.346 421.517 127.609 415.232C132.873 408.954 159.057 369.173 165.968 356.235C172.879 343.297 176.952 330.059 176.952 330.059C176.952 330.059 176.855 330.067 176.667 330.074C174.586 330.164 161.49 330.673 156.534 329.317C151.15 327.842 114.334 327.924 114.334 327.924C114.334 327.924 109.542 324.388 108.419 318.694C108.194 317.593 108.112 316.409 108.232 315.151C108.965 307.419 110.186 308.064 110.186 308.064C110.186 308.064 151.494 307.666 165.968 304.25C165.968 304.25 180.246 299.815 185.937 296.526C191.635 293.237 211.222 287.784 239.54 293.897C267.85 300.017 297.493 313.218 292.095 338.435C286.704 363.652 282.698 369.608 286.389 388.861C290.081 408.107 289.197 427.256 293.974 432.463Z" fill="white"/>
<g opacity="0.04">
<path opacity="0.04" d="M293.973 432.466C293.973 432.466 293.636 432.669 292.992 432.961C291.697 433.568 289.159 434.579 285.655 435.178C284.577 435.358 283.409 435.501 282.158 435.583C274.843 436.047 269.721 434.1 269.721 434.1C269.721 434.1 265.431 419.064 261.732 404.74C261.732 404.732 261.732 404.717 261.725 404.71C259.194 394.911 256.948 385.449 256.551 381.381C255.57 371.372 254.597 357.662 254.597 357.662C254.597 357.662 254.394 357.872 254.028 358.276C253.87 358.449 253.691 358.651 253.473 358.891C253.473 358.891 253.473 358.891 253.473 358.898C253.137 359.273 252.732 359.722 252.268 360.247C246.765 366.562 232.928 383.628 227.275 401.638C220.139 424.375 196.142 464.83 187.434 479.851C178.733 494.872 165.563 494.138 158.24 494.138C157.102 494.138 155.208 494.033 152.819 493.846C139.866 492.857 112.431 489.665 112.431 489.665C112.431 489.665 107.49 504.222 95.907 508.454C84.331 512.687 83.807 511.039 83.35 504.386C82.893 497.741 94.574 467.288 100.182 465.34C104.09 463.976 106.112 465.527 111.368 466.119C113.667 466.381 116.595 466.456 120.563 466.022C133.606 464.606 162.186 461.736 162.186 461.736C162.186 461.736 167.854 452.387 171.83 438.969C175.177 427.687 175.708 417.955 175.791 415.146C175.806 414.614 175.806 414.329 175.806 414.329C175.806 414.329 175.589 414.494 175.184 414.786C170.804 418.008 144.635 437.216 139.948 439.224C134.849 441.411 83.59 448.671 72.77 448.738H72.62C72.62 448.738 66.765 461.676 58.229 467.048C49.686 472.419 39.69 473.985 39.93 471.004C40.177 468.022 47.492 446.79 59.937 434.339C59.937 434.339 63.59 429.949 70.179 431.17C70.179 431.17 122.345 421.521 127.609 415.236C132.872 408.958 159.056 369.177 165.967 356.239C172.878 343.301 176.951 330.063 176.951 330.063C176.951 330.063 176.854 330.07 176.667 330.078C174.585 330.168 161.49 330.677 156.533 329.321C151.149 327.845 114.333 327.928 114.333 327.928C114.333 327.928 109.541 324.392 108.418 318.698C108.194 317.597 108.111 316.413 108.231 315.154C108.965 307.423 110.185 308.067 110.185 308.067C110.185 308.067 151.494 307.67 165.967 304.254C165.967 304.254 179.385 300.089 185.39 296.837C185.577 296.732 185.764 296.627 185.936 296.53C191.634 293.241 211.222 287.787 239.539 293.901C267.85 300.021 297.493 313.222 292.094 338.438C286.703 363.655 282.697 369.611 286.389 388.865C290.08 408.111 289.196 427.26 293.973 432.466Z" fill="url(#paint14_linear_1_224)"/>
</g>
<path d="M97.972 467.137C97.972 467.137 105.589 465.578 104.656 476.317C103.722 487.057 98.257 499.852 95.208 504.793C92.159 509.733 83.781 511.103 83.445 505.609C83.11 500.115 88.44 481.022 97.972 467.137Z" fill="#17A1DB"/>
<g opacity="0.52">
<path opacity="0.52" d="M266.061 324.747C259.966 332.988 255.975 348.848 254.028 358.273C250.704 361.906 233.7 381.16 227.276 401.634C220.14 424.372 196.142 464.827 187.435 479.847C178.734 494.868 165.564 494.134 158.241 494.134C157.103 494.134 155.208 494.029 152.82 493.842C160.794 492.089 170.123 489.16 176.54 484.372C189.95 474.364 188.977 450.443 213.371 400.953C237.766 351.463 275.091 312.544 266.061 324.747Z" fill="url(#paint15_linear_1_224)"/>
</g>
<path d="M61.588 432.912C61.588 432.912 67.985 430.31 66.765 438.364C65.545 446.418 57.252 459.842 51.885 464.48C46.519 469.117 39.818 469.239 42.314 463.319C44.811 457.399 51.124 441.998 61.588 432.912Z" fill="#17A1DB"/>
<path d="M222.805 422.544C222.319 425.63 207.479 456.241 204.813 458.024C203.435 458.938 201.122 458.863 199.37 457.792C197.722 456.788 196.554 454.908 197.108 452.151C198.149 446.952 205.427 428.717 211.514 419.277C212.488 417.772 214.352 417.127 216.037 417.712C216.785 417.966 217.602 418.281 218.41 418.633C220.791 419.659 223.038 421.045 222.805 422.544Z" fill="#CDE9F9"/>
<path d="M176.277 410.276C176.27 411.774 176.622 412.726 175.806 414.329C175.806 414.329 145.069 437.029 139.948 439.224C138.668 439.771 134.482 440.64 128.754 441.636C111.668 444.603 80.872 448.686 72.77 448.738C73.07 444.123 73.107 440.685 73.107 440.685C73.107 440.685 96.528 437.269 123.85 430.676C151.164 424.091 177.064 391.277 177.064 391.277C176.382 393.66 176.3 399.878 176.285 405.032C176.277 407.04 176.285 408.883 176.277 410.276Z" fill="url(#paint16_linear_1_224)"/>
<path d="M170.093 494.636C167.757 496.209 139.215 498.18 123.851 492.254C123.851 492.254 124.158 490.965 124.764 489.669C125.356 488.395 126.232 487.122 127.385 487.054C129.698 486.935 150.311 488.306 158.241 488.111C164.77 487.946 170.176 491.407 170.565 493.52C170.655 493.969 170.505 494.359 170.093 494.636Z" fill="#CDE9F9"/>
<path d="M125.041 442.127C124.824 442.779 124.18 443.468 122.87 444.097C119.336 445.805 88.352 450.54 82.497 450.188C82.497 450.188 82.303 449.416 82.243 448.48C82.145 447.221 82.288 445.671 83.433 445.318C85.425 444.712 122.57 438.846 123.806 439.557C124.592 440.007 125.416 441.018 125.041 442.127Z" fill="#CDE9F9"/>
<path d="M214.594 378.867C210.611 383.571 188.822 377.548 181.177 375.271C173.847 373.083 162.623 371.113 165.161 361.568C165.274 361.164 165.401 360.737 165.566 360.302C169.467 349.672 192.334 317.053 195.456 310.086C198.578 303.111 202.794 298.856 205.474 299.125C205.474 299.125 238.037 302.167 248.16 307.179C249.568 307.876 250.541 308.61 250.938 309.374C254.18 315.674 218.57 374.162 214.594 378.867Z" fill="url(#paint17_linear_1_224)"/>
<path d="M237.968 313.794C237.803 316.251 236.126 319.847 234.119 319.585C231.745 319.263 203.952 314.056 200.463 313.187C200.365 313.157 200.283 313.135 200.223 313.12C198.112 312.49 200.455 307.696 203.218 306.152C203.218 306.152 237.204 310.31 237.855 312.423C237.968 312.798 238.005 313.27 237.968 313.794Z" fill="#3C7FBE"/>
<path d="M230.592 327.384C230.375 329.841 228.721 333.287 226.759 333.025C224.528 332.725 199.759 328.088 193.956 326.822C193.417 326.702 193.043 326.612 192.863 326.56C190.744 325.93 193.095 321.136 195.858 319.6C195.858 319.6 229.844 323.75 230.495 325.863C230.622 326.275 230.652 326.799 230.592 327.384Z" fill="#3C7FBE"/>
<path d="M222.895 339.76C222.873 339.947 222.678 340.464 222.356 341.228C220.11 346.57 211.484 363.966 209.036 365.958C206.632 367.914 199.736 365.307 196.509 363.576C195.978 363.299 195.551 363.037 195.251 362.827C193.132 361.329 207.606 337.805 207.606 337.805C210.533 335.205 223.083 338.254 222.895 339.76Z" fill="#BD8AAE"/>
<path d="M292.587 329.881C292.587 329.881 282.714 332.803 277.77 332.071C272.827 331.339 272.77 345.983 273.745 347.081C274.721 348.179 287.027 349.278 290.144 347.081C290.144 347.081 293.571 334.502 292.587 329.881Z" fill="#CDE9F9"/>
<path d="M250.449 309.942C250.449 309.942 257.791 301.305 264.061 301.311C264.061 301.311 254.391 296.616 251.384 296.892C248.376 297.168 241.201 305.466 241.201 305.466C241.201 305.466 249.718 308.07 250.449 309.942Z" fill="#AECFDC"/>
<path d="M209.778 300.196C209.778 300.196 216.661 292.1 221.297 291.339C221.297 291.339 213.894 291.272 210.582 291.339C207.27 291.406 202.182 300.654 202.182 300.654C202.182 300.654 203.135 298.708 209.778 300.196Z" fill="#AECFDC"/>
<path d="M153.703 327.292C158.149 327.292 161.753 323.222 161.753 318.201C161.753 313.179 158.149 309.109 153.703 309.109C149.258 309.109 145.654 313.179 145.654 318.201C145.654 323.222 149.258 327.292 153.703 327.292Z" fill="#AECFDC"/>
<path d="M218.557 372.842C218.557 372.842 220.867 380.749 235.202 384.023L231.994 390.039C231.994 390.039 217.265 390.189 214.098 379.435L218.557 372.842Z" fill="#AECFDC"/>
<path d="M184.581 312.884C184.491 313.087 182.462 317.424 180.65 321.545C179.662 323.785 178.741 325.965 178.224 327.388C177.91 328.25 177.356 329.171 176.667 330.078C174.585 330.168 161.49 330.677 156.533 329.321C152.767 328.287 133.636 328.018 122.472 327.95C117.665 327.92 114.333 327.928 114.333 327.928C114.333 327.928 109.541 324.392 108.418 318.698C113.847 318.406 124.838 318.069 139.461 318.953C160.449 320.219 184.072 313.034 184.581 312.884Z" fill="url(#paint18_linear_1_224)"/>
<path d="M268.273 397.726C272.719 397.726 276.323 393.655 276.323 388.634C276.323 383.613 272.719 379.542 268.273 379.542C263.828 379.542 260.224 383.613 260.224 388.634C260.224 393.655 263.828 397.726 268.273 397.726Z" fill="#AECFDC"/>
<g opacity="0.52">
<path opacity="0.52" d="M285.656 435.175C284.577 435.354 283.409 435.497 282.159 435.579C274.844 436.044 269.722 434.096 269.722 434.096C269.722 434.096 257.525 391.378 256.552 381.377C255.571 371.368 254.597 357.658 254.597 357.658C254.597 357.658 254.395 357.868 254.028 358.273C253.631 358.715 254.123 358.147 253.36 359.016C257.912 342.309 262.714 330.494 263.223 329.392C262.894 330.186 260.28 336.951 260.22 351.725C260.153 367.48 266.061 386.254 269.722 407.246C271.871 419.547 279.613 429.256 285.656 435.175Z" fill="url(#paint19_linear_1_224)"/>
</g>
<path d="M284.921 284.048C284.565 286.694 284 289.045 283.263 291.132C281.269 292.593 277.789 294.153 272.46 293.456C263.163 292.244 253.346 273.14 254.642 259.941C255.432 251.916 258.886 247.696 261.472 245.629C262.906 245.865 264.333 246.201 265.742 246.63C282.033 251.56 287.165 267.195 284.921 284.048Z" fill="url(#paint20_linear_1_224)"/>
<path d="M255.188 291.535C254.05 292.727 252.326 293.372 251.491 292.838C249.879 291.811 246.661 287.999 245.925 283.563C245.372 280.245 246.964 276.835 249.569 275.92C250.445 275.61 251.432 275.584 252.491 275.939C252.491 275.939 253.511 284.194 255.735 287.361C256.806 288.875 256.241 290.436 255.188 291.535Z" fill="#CDE9F9"/>
<path d="M255.188 291.535C254.05 292.727 252.326 293.372 251.491 292.838C249.879 291.811 246.661 287.999 245.925 283.563C245.372 280.245 246.964 276.835 249.569 275.92C249.267 277.632 249.155 279.692 249.589 281.878C250.326 285.538 253.214 289.303 255.188 291.535Z" fill="url(#paint21_linear_1_224)"/>
<path d="M237.968 313.794C229.604 311.861 203.136 308.377 203.136 308.377C201.496 309.726 200.762 311.951 200.463 313.187C200.365 313.157 200.283 313.135 200.223 313.12C198.112 312.49 200.455 307.696 203.218 306.152C203.218 306.152 237.204 310.31 237.855 312.423C237.968 312.798 238.005 313.269 237.968 313.794Z" fill="#306097"/>
<path d="M230.592 327.384C223.27 324.986 196.225 321.615 196.225 321.615C196.225 321.615 196.06 322.454 195.042 323.833C194.398 324.702 194.091 325.983 193.956 326.822C193.417 326.702 193.043 326.612 192.863 326.56C190.744 325.93 193.095 321.136 195.858 319.6C195.858 319.6 229.844 323.75 230.495 325.863C230.622 326.275 230.652 326.799 230.592 327.384Z" fill="#306097"/>
<path d="M222.895 339.76C222.873 339.947 222.678 340.464 222.356 341.228C213.85 337.902 208.587 339.857 208.587 339.857C208.587 339.857 208.018 341.079 205.494 345.641C203.42 349.387 198.276 359.935 196.509 363.576C195.978 363.299 195.551 363.037 195.251 362.827C193.132 361.329 207.606 337.805 207.606 337.805C210.533 335.205 223.083 338.254 222.895 339.76Z" fill="#A17194"/>
<path d="M214.594 378.867C210.611 383.571 188.822 377.548 181.177 375.271C173.847 373.083 162.623 371.113 165.161 361.568C168.029 363.194 173.008 365.142 181.619 367.097C202.898 371.922 207.451 373.9 211.681 369.008C215.215 364.917 240.149 323.436 248.16 307.179C249.568 307.876 250.541 308.61 250.938 309.374C254.18 315.674 218.57 374.162 214.594 378.867Z" fill="url(#paint22_linear_1_224)"/>
<g opacity="0.52">
<path opacity="0.52" d="M218.41 418.633C217.804 418.918 217.122 419.352 216.419 420.004C214.105 422.147 208.984 433.362 202.754 447.124C200.208 452.743 199.414 455.957 199.37 457.792C197.722 456.788 196.554 454.908 197.108 452.151C198.149 446.952 205.427 428.717 211.514 419.277C212.488 417.772 214.352 417.127 216.037 417.712C216.785 417.966 217.602 418.281 218.41 418.633Z" fill="url(#paint23_linear_1_224)"/>
</g>
<g opacity="0.52">
<path opacity="0.52" d="M170.565 493.52C167.765 492.194 162.973 490.426 157.148 490.351C148.634 490.246 129.324 489.534 124.764 489.669C125.356 488.395 126.232 487.122 127.385 487.054C129.698 486.935 150.312 488.306 158.241 488.111C164.77 487.946 170.176 491.407 170.565 493.52Z" fill="url(#paint24_linear_1_224)"/>
</g>
<path d="M125.041 442.127C124.233 441.812 122.847 441.333 122.016 441.415C120.796 441.535 95.428 445.079 88.48 446.3C85.328 446.847 83.403 447.701 82.243 448.48C82.145 447.221 82.288 445.671 83.433 445.318C85.425 444.712 122.57 438.846 123.806 439.557C124.592 440.007 125.416 441.018 125.041 442.127Z" fill="url(#paint25_linear_1_224)"/>
<path opacity="0.2" d="M181.662 440.194C180.194 453.619 164.792 471.314 164.792 471.314L112.896 474.611L112.867 471.314C113.054 468.872 112.335 467.224 111.369 466.115C113.668 466.377 116.595 466.452 120.564 466.018C133.607 464.602 162.187 461.733 162.187 461.733C162.187 461.733 167.855 452.383 171.831 438.965C175.178 427.683 175.709 417.951 175.791 415.142C175.806 414.61 175.806 414.325 175.806 414.325C175.806 414.325 175.589 414.49 175.185 414.782C176.256 405.193 176.495 395.783 176.495 395.783C176.495 395.783 183.122 426.769 181.662 440.194Z" fill="url(#paint26_linear_1_224)"/>
<path d="M180.65 321.545C179.662 323.785 178.741 325.965 178.224 327.388C177.91 328.25 177.356 329.171 176.667 330.078C174.585 330.168 161.49 330.677 156.533 329.321C152.767 328.287 133.636 328.018 122.472 327.95C126.246 326.871 132.588 325.83 142.441 326.317C156.376 327.006 173.163 323.388 180.65 321.545Z" fill="#758E9B"/>
<path d="M261.725 404.71C259.194 394.911 256.948 385.449 256.551 381.381C255.57 371.372 254.597 357.662 254.597 357.662C254.597 357.662 254.394 357.872 254.028 358.276C253.87 358.449 253.691 358.651 253.474 358.891C255.3 352.381 257.262 345.893 257.262 345.893C257.262 345.893 257.824 350.051 258.176 368.6C258.378 378.916 260.175 393.652 261.725 404.71Z" fill="#758E9B"/>
<path d="M175.806 414.329C175.806 414.329 145.069 437.029 139.948 439.224C138.668 439.771 134.482 440.64 128.754 441.636C151.928 431.552 168.296 414.659 176.285 405.032C176.277 407.04 176.285 408.883 176.277 410.276C176.27 411.774 176.622 412.726 175.806 414.329Z" fill="#758E9B"/>
<path d="M293.973 432.466C293.973 432.466 293.636 432.669 292.992 432.961C288.605 427.762 285.999 412.726 285.655 405.032C285.19 394.596 279.29 378.856 285.655 353.714C292.019 328.572 291.001 321.74 280.024 312.884C269.047 304.029 251.384 296.89 222.895 294.403C209.799 293.256 196.232 294.815 185.39 296.837C185.577 296.732 185.764 296.628 185.936 296.53C191.634 293.241 211.222 287.787 239.539 293.901C267.849 300.021 297.492 313.222 292.094 338.439C286.703 363.655 282.697 369.611 286.388 388.865C290.08 408.111 289.196 427.26 293.973 432.466Z" fill="url(#paint27_linear_1_224)"/>
<path d="M414.755 529.768C473.458 529.768 521.047 482.153 521.047 423.417C521.047 364.681 473.458 317.066 414.755 317.066C356.052 317.066 308.463 364.681 308.463 423.417C308.463 482.153 356.052 529.768 414.755 529.768Z" fill="#3C7FBE"/>
<path d="M308.468 423.057C308.468 423.177 308.463 423.297 308.463 423.417C308.463 430.981 309.258 438.358 310.759 445.476L404.447 529.269C407.84 529.596 411.277 529.769 414.755 529.769C432.834 529.769 449.856 525.247 464.763 517.28L308.468 423.057Z" fill="url(#paint28_linear_1_224)"/>
<path d="M343.901 344.149C329.562 356.989 318.729 373.665 313.012 392.567L494.334 493.911C499.299 488.304 503.68 482.171 507.385 475.603L343.901 344.149Z" fill="url(#paint29_linear_1_224)"/>
<path d="M390.615 319.822L514.146 461.172C518.601 449.439 521.048 436.715 521.048 423.417C521.048 413.473 519.68 403.85 517.129 394.722L403.026 317.714C398.81 318.176 394.668 318.881 390.615 319.822Z" fill="url(#paint30_linear_1_224)"/>
<path d="M402.914 372.122C410.794 372.122 417.182 365.73 417.182 357.846C417.182 349.961 410.794 343.569 402.914 343.569C395.033 343.569 388.645 349.961 388.645 357.846C388.645 365.73 395.033 372.122 402.914 372.122Z" fill="url(#paint31_linear_1_224)"/>
<path d="M397.289 465.756C409.595 465.756 419.571 455.774 419.571 443.461C419.571 431.148 409.595 421.167 397.289 421.167C384.983 421.167 375.007 431.148 375.007 443.461C375.007 455.774 384.983 465.756 397.289 465.756Z" fill="url(#paint32_linear_1_224)"/>
<path d="M469 420.283C475.396 420.283 480.582 415.094 480.582 408.694C480.582 402.293 475.396 397.105 469 397.105C462.603 397.105 457.417 402.293 457.417 408.694C457.417 415.094 462.603 420.283 469 420.283Z" fill="url(#paint33_linear_1_224)"/>
<path d="M414.755 317.066C356.052 317.066 308.463 364.681 308.463 423.417C308.463 424.196 308.476 424.972 308.492 425.746C309.732 370.662 354.745 326.387 410.096 326.387C466.227 326.387 511.73 371.916 511.73 428.078C511.73 483.46 467.481 528.499 412.426 529.738C413.201 529.755 413.976 529.767 414.754 529.767C473.458 529.767 521.046 482.153 521.046 423.416C521.048 364.681 473.459 317.066 414.755 317.066Z" fill="url(#paint34_linear_1_224)"/>
<path d="M342.405 431.615C348.802 431.615 353.987 426.427 353.987 420.026C353.987 413.626 348.802 408.438 342.405 408.438C336.008 408.438 330.822 413.626 330.822 420.026C330.822 426.427 336.008 431.615 342.405 431.615Z" fill="url(#paint35_linear_1_224)"/>
<path d="M469 477.345C472.739 477.345 475.77 474.312 475.77 470.571C475.77 466.83 472.739 463.797 469 463.797C465.261 463.797 462.23 466.83 462.23 470.571C462.23 474.312 465.261 477.345 469 477.345Z" fill="url(#paint36_linear_1_224)"/>
<path d="M386.116 490.059C386.116 493.8 383.085 496.833 379.346 496.833C375.607 496.833 372.576 493.8 372.576 490.059C372.576 486.317 375.607 483.285 379.346 483.285C383.085 483.285 386.116 486.317 386.116 490.059Z" fill="url(#paint37_linear_1_224)"/>
<path d="M336.508 241.202C360.426 241.202 379.815 221.802 379.815 197.872C379.815 173.941 360.426 154.541 336.508 154.541C312.591 154.541 293.202 173.941 293.202 197.872C293.202 221.802 312.591 241.202 336.508 241.202Z" fill="url(#paint38_linear_1_224)"/>
<path d="M336.508 241.202C360.426 241.202 379.815 221.802 379.815 197.872C379.815 173.941 360.426 154.541 336.508 154.541C312.591 154.541 293.202 173.941 293.202 197.872C293.202 221.802 312.591 241.202 336.508 241.202Z" fill="url(#paint39_linear_1_224)"/>
<path d="M333.421 230.052C336.631 230.052 339.234 227.448 339.234 224.236C339.234 221.023 336.631 218.419 333.421 218.419C330.21 218.419 327.607 221.023 327.607 224.236C327.607 227.448 330.21 230.052 333.421 230.052Z" fill="url(#paint40_linear_1_224)"/>
<path d="M357.425 192.372C362.438 192.372 366.503 188.305 366.503 183.289C366.503 178.273 362.438 174.206 357.425 174.206C352.411 174.206 348.347 178.273 348.347 183.289C348.347 188.305 352.411 192.372 357.425 192.372Z" fill="url(#paint41_linear_1_224)"/>
<path d="M353.115 196.266C353.15 198.874 351.066 201.016 348.46 201.051C345.854 201.086 343.713 199.001 343.678 196.393C343.642 193.786 345.726 191.644 348.333 191.609C350.938 191.573 353.08 193.658 353.115 196.266Z" fill="url(#paint42_linear_1_224)"/>
<path d="M316.338 183.133C316.374 185.741 314.29 187.883 311.684 187.918C309.078 187.953 306.937 185.868 306.901 183.261C306.866 180.653 308.95 178.511 311.556 178.476C314.163 178.44 316.303 180.525 316.338 183.133Z" fill="url(#paint43_linear_1_224)"/>
<path d="M360.634 216.655C360.654 218.178 359.437 219.431 357.913 219.451C356.39 219.472 355.138 218.253 355.118 216.729C355.098 215.205 356.315 213.952 357.839 213.932C359.362 213.912 360.613 215.131 360.634 216.655Z" fill="url(#paint44_linear_1_224)"/>
<path d="M334.035 176.837C334.055 178.361 332.837 179.614 331.314 179.634C329.791 179.654 328.539 178.436 328.518 176.911C328.497 175.388 329.716 174.135 331.239 174.115C332.762 174.095 334.014 175.313 334.035 176.837Z" fill="url(#paint45_linear_1_224)"/>
<path d="M335.924 154.546C312.009 154.869 292.883 174.528 293.206 198.457C293.21 198.774 293.219 199.09 293.231 199.406C293.433 176.958 311.527 158.674 334.077 158.369C356.944 158.06 375.732 176.357 376.04 199.237C376.345 221.799 358.566 240.391 336.144 241.199C336.459 241.201 336.775 241.203 337.092 241.198C361.007 240.875 380.133 221.216 379.81 197.287C379.487 173.359 359.839 154.223 335.924 154.546Z" fill="url(#paint46_linear_1_224)"/>
<mask id="mask0_1_224" style="mask-type:alpha" maskUnits="userSpaceOnUse" x="273" y="184" width="127" height="27">
<path d="M377.791 184.756C378.131 185.825 378.429 186.912 378.685 188.016C378.948 188.064 379.219 188.11 379.478 188.159C392.752 190.696 396.328 193.876 396.348 195.356C396.368 196.835 392.88 200.111 379.678 203.005C368.215 205.518 352.928 207.023 336.634 207.244C320.34 207.464 305.018 206.372 293.492 204.169C280.218 201.632 276.643 198.452 276.623 196.973C276.602 195.493 280.091 192.218 293.292 189.324C293.55 189.267 293.82 189.213 294.081 189.158C294.308 188.048 294.576 186.953 294.886 185.876C282.167 188.413 273.539 192.167 273.604 197.014C273.729 206.27 305.428 210.686 336.675 210.264C367.923 209.842 399.491 204.571 399.366 195.315C399.3 190.468 390.574 186.949 377.791 184.756Z" fill="url(#paint47_linear_1_224)"/>
</mask>
<g mask="url(#mask0_1_224)">
<path d="M377.791 184.756C378.131 185.825 378.429 186.912 378.685 188.016C378.948 188.064 379.219 188.11 379.478 188.159C392.752 190.696 396.328 193.876 396.348 195.356C396.368 196.835 392.88 200.111 379.678 203.005C368.215 205.518 352.928 207.023 336.634 207.244C320.34 207.464 305.018 206.372 293.492 204.169C280.218 201.632 276.643 198.452 276.623 196.973C276.602 195.493 280.091 192.218 293.292 189.324C293.55 189.267 293.82 189.213 294.081 189.158C294.308 188.048 294.576 186.953 294.886 185.876C282.167 188.413 273.539 192.167 273.604 197.014C273.729 206.27 305.428 210.686 336.675 210.264C367.923 209.842 399.491 204.571 399.366 195.315C399.3 190.468 390.574 186.949 377.791 184.756Z" fill="white"/>
</g>
<path d="M548.752 266.737C582.213 266.737 609.339 239.597 609.339 206.117C609.339 172.637 582.213 145.497 548.752 145.497C515.291 145.497 488.165 172.637 488.165 206.117C488.165 239.597 515.291 266.737 548.752 266.737Z" fill="#E7F6FD"/>
<path d="M548.752 266.737C582.213 266.737 609.339 239.597 609.339 206.117C609.339 172.637 582.213 145.497 548.752 145.497C515.291 145.497 488.165 172.637 488.165 206.117C488.165 239.597 515.291 266.737 548.752 266.737Z" fill="url(#paint48_linear_1_224)"/>
<path d="M609.339 206.117C609.339 197.367 607.483 189.052 604.148 181.539C580.196 181.367 552.042 216.715 529.12 222.231C514.462 225.758 499.593 222.65 489.625 219.385C495.672 246.482 519.847 266.737 548.752 266.737C582.213 266.737 609.339 239.596 609.339 206.117Z" fill="url(#paint49_linear_1_224)"/>
<path d="M609.339 206.117C609.339 202.211 608.967 198.392 608.261 194.692C583.592 199.331 555.728 229.71 532.703 234.79C519 237.813 505.129 235.961 494.598 233.314C504.56 253.135 525.066 266.737 548.752 266.737C582.213 266.737 609.339 239.596 609.339 206.117Z" fill="url(#paint50_linear_1_224)"/>
<path d="M548.752 266.737C581.27 266.737 607.801 241.105 609.271 208.933C584.356 212.911 556.043 244.054 532.703 249.203C523.912 251.143 515.052 251.074 507.048 250.077C517.91 260.4 532.589 266.737 548.752 266.737Z" fill="url(#paint51_linear_1_224)"/>
<path d="M606.908 223.153C582.578 228.613 555.309 257.982 532.703 262.97C531.624 263.208 530.543 263.413 529.462 263.593C535.521 265.629 542.007 266.737 548.752 266.737C576.301 266.737 599.55 248.338 606.908 223.153Z" fill="url(#paint52_linear_1_224)"/>
<path d="M548.752 145.497C515.291 145.497 488.165 172.637 488.165 206.117C488.165 206.561 488.173 207.003 488.182 207.444C488.888 176.046 514.546 150.81 546.097 150.81C578.092 150.81 604.029 176.761 604.029 208.773C604.029 240.342 578.806 266.014 547.425 266.721C547.867 266.73 548.309 266.737 548.752 266.737C582.213 266.737 609.339 239.596 609.339 206.117C609.339 172.637 582.213 145.497 548.752 145.497Z" fill="url(#paint53_linear_1_224)"/>
<path d="M382.289 182.961L380.674 176.088L379.058 182.961L372.776 184.577L379.058 186.194L380.674 193.429L382.289 186.194L389.12 184.577L382.289 182.961Z" fill="url(#paint54_linear_1_224)"/>
<path d="M482.794 250.104L481.179 243.231L479.563 250.104L473.281 251.72L479.563 253.337L481.179 260.573L482.794 253.337L489.625 251.72L482.794 250.104Z" fill="url(#paint55_linear_1_224)"/>
<path d="M305.374 241.433L303.758 234.561L302.143 241.433L295.86 243.05L302.143 244.666L303.758 251.902L305.374 244.666L312.205 243.05L305.374 241.433Z" fill="url(#paint56_linear_1_224)"/>
<path d="M559.501 409.535L557.885 402.663L556.27 409.535L549.988 411.152L556.27 412.768L557.885 420.004L559.501 412.768L566.332 411.152L559.501 409.535Z" fill="url(#paint57_linear_1_224)"/>
<path d="M652.312 280.836L650.697 273.964L649.082 280.836L642.799 282.453L649.082 284.068L650.697 291.305L652.312 284.068L659.143 282.453L652.312 280.836Z" fill="url(#paint58_linear_1_224)"/>
<path d="M133.364 346.551L131.749 339.679L130.133 346.551L123.851 348.168L130.133 349.784L131.749 357.02L133.364 349.784L140.194 348.168L133.364 346.551Z" fill="url(#paint59_linear_1_224)"/>
<path d="M322.633 348.385L321.018 341.513L319.402 348.385L313.12 350.002L319.402 351.619L321.018 358.854L322.633 351.619L329.463 350.002L322.633 348.385Z" fill="url(#paint60_linear_1_224)"/>
<path d="M401.534 270.829L399.919 263.956L398.303 270.829L392.02 272.445L398.303 274.062L399.919 281.298L401.534 274.062L408.364 272.445L401.534 270.829Z" fill="url(#paint61_linear_1_224)"/>
<path d="M539.794 319.763L538.179 312.891L536.563 319.763L530.281 321.38L536.563 322.996L538.179 330.232L539.794 322.996L546.625 321.38L539.794 319.763Z" fill="url(#paint62_linear_1_224)"/>
<mask id="mask1_1_224" style="mask-type:alpha" maskUnits="userSpaceOnUse" x="373" y="208" width="85" height="53">
<path d="M457.143 259.046C458.146 257.346 457.582 255.153 455.882 254.149L379.148 208.815C377.449 207.811 375.257 208.375 374.254 210.076C373.25 211.776 373.814 213.969 375.514 214.973L452.248 260.307C453.948 261.312 456.138 260.747 457.143 259.046Z" fill="url(#paint63_linear_1_224)"/>
</mask>
<g mask="url(#mask1_1_224)">
<path d="M457.143 259.046C458.146 257.346 457.582 255.153 455.882 254.149L379.148 208.815C377.449 207.811 375.257 208.375 374.254 210.076C373.25 211.776 373.814 213.969 375.514 214.973L452.248 260.307C453.948 261.312 456.138 260.747 457.143 259.046Z" fill="#E7F6FD"/>
<path d="M456.52 258.679C455.632 260.185 453.691 260.686 452.186 259.796C450.681 258.907 450.181 256.965 451.069 255.459C451.958 253.953 453.899 253.453 455.404 254.342C456.909 255.231 457.409 257.173 456.52 258.679Z" fill="#CDE9F9"/>
</g>
<mask id="mask2_1_224" style="mask-type:alpha" maskUnits="userSpaceOnUse" x="391" y="290" width="85" height="54">
<path d="M474.725 341.636C475.729 339.935 475.165 337.743 473.465 336.739L396.731 291.404C395.032 290.4 392.84 290.965 391.837 292.665C390.833 294.366 391.397 296.559 393.097 297.562L469.831 342.897C471.531 343.901 473.721 343.337 474.725 341.636Z" fill="url(#paint64_linear_1_224)"/>
</mask>
<g mask="url(#mask2_1_224)">
<path d="M474.725 341.636C475.729 339.935 475.165 337.743 473.465 336.739L396.731 291.404C395.032 290.4 392.84 290.965 391.837 292.665C390.833 294.366 391.397 296.559 393.097 297.562L469.831 342.897C471.531 343.901 473.721 343.337 474.725 341.636Z" fill="#E7F6FD"/>
<path d="M474.103 341.269C473.214 342.775 471.274 343.275 469.769 342.386C468.264 341.497 467.764 339.555 468.652 338.049C469.541 336.543 471.482 336.043 472.987 336.932C474.493 337.821 474.992 339.763 474.103 341.269Z" fill="#CDE9F9"/>
</g>
<mask id="mask3_1_224" style="mask-type:alpha" maskUnits="userSpaceOnUse" x="567" y="272" width="85" height="53">
<path d="M650.716 323.141C651.719 321.44 651.156 319.247 649.456 318.243L572.722 272.909C571.022 271.905 568.831 272.469 567.827 274.17C566.824 275.87 567.388 278.063 569.087 279.067L645.821 324.401C647.521 325.406 649.712 324.841 650.716 323.141Z" fill="url(#paint65_linear_1_224)"/>
</mask>
<g mask="url(#mask3_1_224)">
<path d="M650.716 323.141C651.719 321.44 651.156 319.247 649.456 318.243L572.722 272.909C571.022 271.905 568.831 272.469 567.827 274.17C566.824 275.87 567.388 278.063 569.087 279.067L645.821 324.401C647.521 325.406 649.712 324.841 650.716 323.141Z" fill="#E7F6FD"/>
<path d="M650.094 322.773C649.205 324.279 647.264 324.78 645.759 323.89C644.254 323.001 643.754 321.059 644.643 319.553C645.532 318.048 647.473 317.547 648.977 318.436C650.483 319.325 650.983 321.267 650.094 322.773Z" fill="#CDE9F9"/>
</g>
<mask id="mask4_1_224" style="mask-type:alpha" maskUnits="userSpaceOnUse" x="243" y="179" width="85" height="54">
<path d="M327.1 230.602C328.103 228.901 327.539 226.709 325.839 225.705L249.105 180.37C247.406 179.367 245.214 179.931 244.211 181.631C243.207 183.332 243.771 185.525 245.471 186.529L322.205 231.863C323.905 232.868 326.096 232.303 327.1 230.602Z" fill="url(#paint66_linear_1_224)"/>
</mask>
<g mask="url(#mask4_1_224)">
<path d="M327.1 230.602C328.103 228.901 327.539 226.709 325.839 225.705L249.105 180.37C247.406 179.367 245.214 179.931 244.211 181.631C243.207 183.332 243.771 185.525 245.471 186.529L322.205 231.863C323.905 232.868 326.096 232.303 327.1 230.602Z" fill="#E7F6FD"/>
<path d="M326.477 230.235C325.589 231.741 323.648 232.241 322.143 231.352C320.638 230.463 320.138 228.521 321.026 227.015C321.915 225.509 323.856 225.009 325.361 225.898C326.867 226.786 327.366 228.728 326.477 230.235Z" fill="#CDE9F9"/>
</g>
<mask id="mask5_1_224" style="mask-type:alpha" maskUnits="userSpaceOnUse" x="459" y="280" width="85" height="53">
<path d="M543.151 330.828C544.155 329.128 543.591 326.935 541.891 325.931L465.157 280.597C463.457 279.593 461.266 280.157 460.263 281.858C459.259 283.558 459.823 285.751 461.523 286.755L538.257 332.089C539.957 333.093 542.147 332.528 543.151 330.828Z" fill="url(#paint67_linear_1_224)"/>
</mask>
<g mask="url(#mask5_1_224)">
<path d="M543.151 330.828C544.155 329.128 543.591 326.935 541.891 325.931L465.157 280.597C463.457 279.593 461.266 280.157 460.263 281.858C459.259 283.558 459.823 285.751 461.523 286.755L538.257 332.089C539.957 333.093 542.147 332.528 543.151 330.828Z" fill="#E7F6FD"/>
<path d="M542.529 330.461C541.64 331.967 539.7 332.467 538.195 331.578C536.69 330.688 536.19 328.747 537.078 327.241C537.967 325.735 539.908 325.234 541.413 326.124C542.918 327.013 543.418 328.955 542.529 330.461Z" fill="#CDE9F9"/>
</g>
<path d="M622.231 364.461C634.873 360.37 641.807 346.8 637.719 334.151C633.631 321.502 620.068 314.564 607.426 318.654C594.784 322.745 587.849 336.315 591.938 348.964C596.026 361.613 609.589 368.551 622.231 364.461Z" fill="#E7F6FD"/>
<path d="M614.821 365.584C628.108 365.584 638.878 354.807 638.878 341.513C638.878 328.219 628.108 317.442 614.821 317.442C601.535 317.442 590.764 328.219 590.764 341.513C590.764 354.807 601.535 365.584 614.821 365.584Z" fill="url(#paint68_linear_1_224)"/>
<path d="M617.785 333.602C618.168 335.345 617.067 337.068 615.324 337.452C613.582 337.835 611.86 336.733 611.476 334.989C611.094 333.246 612.195 331.523 613.938 331.139C615.68 330.756 617.403 331.859 617.785 333.602Z" fill="url(#paint69_linear_1_224)"/>
<path d="M605.018 334.293C605.616 337.015 603.895 339.707 601.175 340.305C598.455 340.903 595.765 339.181 595.167 336.459C594.57 333.737 596.29 331.046 599.01 330.448C601.731 329.85 604.421 331.572 605.018 334.293Z" fill="url(#paint70_linear_1_224)"/>
<path d="M617.506 350.221C617.817 351.636 616.922 353.034 615.508 353.345C614.094 353.656 612.696 352.761 612.385 351.347C612.075 349.931 612.969 348.533 614.383 348.222C615.797 347.911 617.195 348.805 617.506 350.221Z" fill="url(#paint71_linear_1_224)"/>
<path d="M600.427 348.185C600.738 349.6 599.843 350.999 598.429 351.31C597.015 351.621 595.617 350.726 595.306 349.311C594.996 347.896 595.89 346.497 597.304 346.186C598.718 345.875 600.116 346.77 600.427 348.185Z" fill="url(#paint72_linear_1_224)"/>
<path d="M630.049 349.032C630.231 349.86 629.708 350.677 628.882 350.859C628.055 351.041 627.238 350.517 627.056 349.691C626.874 348.864 627.398 348.047 628.224 347.865C629.05 347.682 629.868 348.205 630.049 349.032Z" fill="url(#paint73_linear_1_224)"/>
<path d="M606.075 327.325C606.257 328.152 605.734 328.97 604.908 329.152C604.081 329.333 603.264 328.81 603.082 327.983C602.9 327.156 603.424 326.339 604.25 326.157C605.076 325.975 605.893 326.498 606.075 327.325Z" fill="url(#paint74_linear_1_224)"/>
<path d="M613.331 360.364C613.512 361.191 612.99 362.008 612.163 362.19C611.336 362.372 610.519 361.848 610.337 361.021C610.156 360.194 610.679 359.377 611.506 359.195C612.332 359.014 613.149 359.536 613.331 360.364Z" fill="url(#paint75_linear_1_224)"/>
<path d="M627.305 329.393C627.487 330.22 626.963 331.037 626.138 331.22C625.311 331.402 624.494 330.878 624.312 330.052C624.131 329.225 624.654 328.407 625.48 328.225C626.307 328.043 627.123 328.566 627.305 329.393Z" fill="url(#paint76_linear_1_224)"/>
<path d="M609.658 318.004C596.68 320.857 588.473 333.696 591.325 346.679C591.363 346.852 591.403 347.022 591.444 347.193C589.044 334.956 596.845 322.98 609.081 320.29C621.489 317.562 633.758 325.414 636.485 337.829C639.174 350.072 631.58 362.179 619.469 365.129C619.642 365.095 619.813 365.06 619.985 365.023C632.963 362.169 641.17 349.331 638.318 336.346C635.466 323.362 622.635 315.15 609.658 318.004Z" fill="url(#paint77_linear_1_224)"/>
<path d="M401.615 96.221L483.782 143.69C487.781 146.001 490.245 150.27 490.245 154.89V208.116C490.245 212.937 485.004 215.927 480.858 213.473L399.356 165.239C395.711 163.081 393.474 159.158 393.474 154.919V100.922C393.474 96.743 397.997 94.131 401.615 96.221Z" fill="url(#paint78_linear_1_224)"/>
<path d="M393.382 98.279L475.549 145.748C479.548 148.059 482.012 152.328 482.012 156.948V210.174C482.012 214.995 476.771 217.985 472.624 215.531L391.123 167.297C387.477 165.139 385.241 161.216 385.241 156.977V102.981C385.241 98.801 389.764 96.189 393.382 98.279Z" fill="#E7F6FD"/>
<path d="M475.781 216.034C474.737 216.034 473.74 215.756 472.816 215.21L391.314 166.975C387.799 164.895 385.615 161.064 385.615 156.978V102.981C385.615 100.189 387.885 97.918 390.677 97.918C391.561 97.918 392.408 98.149 393.195 98.603L475.362 146.073C479.233 148.309 481.638 152.477 481.638 156.948V210.174C481.638 213.406 479.01 216.034 475.781 216.034Z" fill="url(#paint79_linear_1_224)"/>
<path d="M390.678 98.292C391.494 98.292 392.278 98.506 393.008 98.928L475.175 146.397C478.93 148.567 481.264 152.61 481.264 156.948V210.174C481.264 212.812 479.168 215.658 475.781 215.658C474.806 215.658 473.872 215.398 473.006 214.886L391.505 166.652C388.103 164.639 385.99 160.931 385.99 156.977V102.981C385.99 100.085 388.423 98.292 390.678 98.292ZM390.677 97.543C387.842 97.543 385.241 99.812 385.241 102.981V156.978C385.241 161.217 387.477 165.141 391.123 167.298L472.624 215.533C473.642 216.135 474.725 216.409 475.78 216.409C479.027 216.409 482.012 213.813 482.012 210.176V156.95C482.012 152.33 479.548 148.06 475.549 145.75L393.382 98.28C392.507 97.773 391.581 97.543 390.677 97.543Z" fill="white"/>
<path d="M405.716 115.661L403.377 121.111C403.745 121.454 404.115 121.815 404.478 122.193C412.25 130.204 416.044 142.51 412.961 149.689C412.847 149.945 412.728 150.193 412.6 150.436C412.556 150.524 412.507 150.607 412.457 150.692C410.209 154.651 405.903 155.618 401.129 153.702C400.385 153.406 399.625 153.034 398.861 152.592C398.656 152.474 398.452 152.352 398.247 152.223C397.875 151.991 397.59 151.798 397.31 151.608L397.183 151.518C396.569 151.085 395.961 150.614 395.347 150.091C395.273 150.025 395.195 149.958 395.117 149.89C394.891 149.691 394.666 149.487 394.44 149.278C394.356 149.202 394.273 149.126 394.19 149.044C393.896 148.767 393.601 148.478 393.312 148.18C392.841 147.694 392.391 147.196 391.95 146.686L389.608 152.14C390.055 152.641 390.505 153.139 390.971 153.618C391.388 154.045 391.804 154.455 392.226 154.851C392.343 154.965 392.462 155.078 392.584 155.188C392.903 155.485 393.226 155.774 393.55 156.057C393.658 156.154 393.765 156.249 393.873 156.34C394.742 157.079 395.615 157.759 396.483 158.368C396.552 158.419 396.62 158.464 396.689 158.51C397.087 158.791 397.484 159.048 397.877 159.298L398.014 159.382C398.285 159.551 398.555 159.713 398.825 159.869C399.468 160.24 400.107 160.577 400.744 160.881C401.224 161.109 401.677 161.301 402.128 161.483C409.412 164.373 415.932 162.549 418.848 155.759C423.223 145.578 417.835 128.112 406.818 116.75C406.452 116.374 406.084 116.012 405.716 115.661Z" fill="url(#paint80_linear_1_224)"/>
<path d="M441.005 141.116L440.999 143.589C440.995 145.047 439.416 145.954 438.156 145.222L426.5 138.456C425.914 138.116 425.555 137.49 425.557 136.813L425.564 134.34C425.568 132.882 427.147 131.976 428.406 132.708L440.062 139.473C440.648 139.813 441.007 140.439 441.005 141.116Z" fill="#E7F6FD"/>
<path d="M477.878 174.706L477.871 177.184C477.866 178.639 476.292 179.546 475.032 178.818L426.468 150.765C425.881 150.425 425.52 149.798 425.521 149.12L425.529 146.642C425.533 145.186 427.108 144.28 428.368 145.007L476.932 173.061C477.519 173.4 477.88 174.027 477.878 174.706Z" fill="#E7F6FD"/>
<g opacity="0.53">
<g opacity="0.53">
<path opacity="0.53" d="M457.786 187.76L457.779 190.238C457.774 191.693 456.2 192.601 454.94 191.872L426.397 175.385C425.81 175.045 425.449 174.417 425.452 173.739L425.458 171.261C425.462 169.806 427.038 168.899 428.298 169.627L456.839 186.114C457.427 186.454 457.788 187.081 457.786 187.76Z" fill="#E7F6FD"/>
</g>
</g>
<path d="M470.312 182.665L470.306 185.143C470.302 186.599 468.726 187.506 467.466 186.778L426.433 163.074C425.846 162.735 425.485 162.107 425.487 161.429L425.494 158.951C425.497 157.495 427.073 156.589 428.333 157.316L469.367 181.02C469.953 181.359 470.315 181.987 470.312 182.665Z" fill="#E7F6FD"/>
<path d="M218.511 565.413C204.649 557.404 204.649 544.256 218.511 536.193C232.372 528.13 255.056 528.13 268.918 536.193C282.78 544.256 282.78 557.404 268.918 565.413C255.056 573.421 232.372 573.421 218.511 565.413Z" fill="#2A2F6D"/>
<path d="M220.839 553.886C207.552 546.941 207.552 535.536 220.839 528.543C234.127 521.551 255.869 521.551 269.156 528.543C282.443 535.536 282.443 546.941 269.156 553.886C255.869 560.832 234.126 560.832 220.839 553.886Z" fill="#2A2F6D"/>
<path d="M279.159 542.281H278.643V554.055H279.159V542.281Z" fill="#2A2F6D"/>
<path d="M279.153 540.661L274.035 532.621L268.523 528.927C263.773 526.902 257.941 525.912 251.764 525.912V526.431C252.749 526.431 253.721 526.458 254.677 526.509C250.964 526.444 246.648 526.683 241.734 527.265C245.047 526.719 248.419 526.431 251.761 526.431L251.763 525.912C251.763 525.912 251.762 525.912 251.761 525.912C241.661 525.912 230.647 528.556 221.983 533.631C221.369 533.991 220.782 534.36 220.21 534.733L208.791 536.106V551.6C208.791 551.6 208.802 551.604 208.82 551.61C209.017 555.819 211.523 559.725 216.482 562.629C221.652 565.657 228.676 567.127 236.209 567.127C246.31 567.127 257.323 564.483 265.987 559.408C274.683 554.314 279.188 547.838 279.156 541.905C279.204 541.115 279.153 540.661 279.153 540.661ZM229.009 566.116C227.431 565.894 225.914 565.597 224.468 565.231C226.027 565.598 227.539 565.887 229.009 566.116Z" fill="#2A2F6D"/>
<path d="M242.403 556.664C240.57 556.664 238.6 556.624 236.204 556.537C227.497 556.221 223.292 555.146 216.643 551.537C211.871 548.946 209.218 544.996 209.171 540.415H209.148V445.778H209.171C209.131 437.989 215.831 429.848 222.155 426.141C230.806 421.069 241.964 420.645 251.745 420.644C260.523 420.644 267.753 424.113 271.282 426.182C273.309 427.37 274.948 428.746 276.171 430.271L275.764 430.585C276.128 431.077 276.452 431.54 276.752 432.003L277.188 431.731C277.958 433.025 278.456 434.406 278.664 435.856L278.684 435.995L278.679 436.011L278.689 436.097C278.761 436.686 278.785 437.282 278.763 437.866L278.759 437.962L278.786 438.015V539.166L278.765 539.165C278.626 544.889 274.517 549.174 265.833 552.651C258.803 555.463 251.796 556.664 242.403 556.664Z" fill="url(#paint81_linear_1_224)"/>
<path d="M251.745 421.018C260.435 421.018 267.596 424.456 271.092 426.505C273.074 427.667 274.677 429.008 275.87 430.494L275.464 430.809C275.824 431.295 276.143 431.752 276.438 432.207L276.873 431.936C277.614 433.184 278.092 434.515 278.292 435.91L278.299 435.958L278.295 435.97L278.316 436.141C278.385 436.712 278.409 437.287 278.387 437.852L278.38 438.052L278.411 438.11V538.499H278.388L278.39 539.155C278.256 544.71 274.221 548.888 265.693 552.302C258.713 555.097 251.75 556.289 242.41 556.289C240.579 556.289 238.612 556.249 236.22 556.162C227.581 555.849 223.411 554.784 216.824 551.207C212.176 548.684 209.592 544.85 209.547 540.412H209.524V445.776H209.547C209.532 442.835 210.699 439.226 212.749 435.874C214.396 433.182 217.398 429.364 222.346 426.464C230.917 421.44 242.016 421.019 251.746 421.018H251.745ZM251.745 420.269C251.745 420.269 251.745 420.269 251.744 420.269C241.643 420.27 230.63 420.739 221.965 425.818C213.271 430.914 208.766 439.843 208.796 445.78L208.774 443.334V542.251L208.797 540.419C208.841 544.79 211.246 549.032 216.465 551.866C223.231 555.539 227.602 556.6 236.192 556.911C238.332 556.988 240.398 557.038 242.408 557.038C250.636 557.038 257.966 556.202 265.97 552.998C275.1 549.342 279 544.856 279.137 539.173L279.135 538.497C279.141 538.724 279.142 538.949 279.137 539.173L279.159 551.304V437.935C279.149 437.917 279.145 437.899 279.135 437.881C279.159 437.266 279.132 436.655 279.06 436.051C279.112 435.899 279.159 435.803 279.159 435.803H279.034C278.488 432.007 276.002 428.515 271.47 425.859C266.301 422.828 259.277 420.269 251.745 420.269ZM277.066 431.798C276.78 431.358 276.451 430.884 276.064 430.362C276.438 430.827 276.772 431.306 277.066 431.798Z" fill="white"/>
<g opacity="0.5">
<path opacity="0.5" d="M278.486 541.027V442.036C278.486 442.036 272.282 432.019 261.618 433.093C250.955 434.166 249.233 440.248 249.233 440.248V550.436C249.233 550.436 249.366 553.125 251.098 554.055C256.347 556.872 264.396 555.597 276.676 545.972C278.489 544.551 277.691 543.439 278.486 541.027Z" fill="url(#paint82_linear_1_224)"/>
</g>
<path opacity="0.43" d="M234.583 536.752C236.07 535.153 236.997 532.923 236.997 530.457C236.997 525.604 233.413 521.654 229.008 521.654C224.603 521.654 221.02 525.603 221.02 530.457C221.02 532.924 221.947 535.153 223.434 536.752C223.478 536.8 223.526 536.843 223.571 536.889C223.701 537.022 223.831 537.157 223.968 537.28C224.105 537.405 224.25 537.518 224.394 537.632C224.45 537.675 224.503 537.724 224.56 537.766C224.757 537.912 224.961 538.048 225.171 538.175C225.183 538.183 225.194 538.191 225.206 538.199C225.875 538.599 226.603 538.898 227.374 539.074C227.383 539.077 227.392 539.08 227.401 539.082C227.633 539.134 227.87 539.172 228.109 539.201C228.138 539.205 228.166 539.212 228.195 539.215C228.462 539.245 228.733 539.261 229.008 539.261C229.011 539.261 229.014 539.26 229.017 539.26C229.288 539.26 229.557 539.244 229.821 539.215C229.856 539.212 229.889 539.203 229.923 539.198C230.157 539.169 230.388 539.132 230.614 539.081C230.628 539.078 230.642 539.073 230.656 539.069C231.421 538.892 232.145 538.596 232.81 538.197C232.823 538.189 232.836 538.179 232.85 538.171C233.057 538.045 233.26 537.91 233.456 537.765C233.515 537.721 233.569 537.671 233.627 537.626C233.77 537.514 233.912 537.402 234.048 537.279C234.186 537.155 234.317 537.02 234.447 536.886C234.492 536.841 234.539 536.799 234.583 536.752Z" fill="#2A2F6D"/>
<path d="M229.25 527.302C228.73 526.233 227.473 525.77 226.383 526.243C224.161 527.205 221.459 528.096 218.454 528.876C202.244 533.086 177.206 534.075 170.654 525.467C166.042 519.414 171.92 507.989 187.209 493.298C200.118 480.884 205.456 470.306 203.547 460.949C200.559 446.348 180.328 438.691 162.47 431.934C149.045 426.847 135.163 421.595 134.632 415.167C133.756 404.484 144.493 392.992 153.65 385.231C161.409 378.656 169.399 373.589 172.889 371.478C173.896 370.868 174.237 369.572 173.66 368.545L173.223 367.768C172.622 366.699 171.26 366.333 170.209 366.964C161.549 372.164 127.63 393.969 129.413 415.601C130.214 425.325 144.306 430.659 160.621 436.833C177.206 443.111 195.999 450.228 198.41 462.005C199.915 469.346 194.921 478.606 183.57 489.514C165.608 506.79 159.865 519.953 166.484 528.643C171.276 534.936 182.073 537.258 193.746 537.258C202.529 537.258 211.806 535.94 219.375 534C223.531 532.936 227.17 531.685 229.933 530.359V530.314C229.933 529.225 229.687 528.199 229.25 527.302Z" fill="#198ACB"/>
<path d="M235.924 505.751C239.822 505.751 242.981 502.589 242.981 498.69C242.981 494.79 239.822 491.629 235.924 491.629C232.027 491.629 228.867 494.79 228.867 498.69C228.867 502.589 232.027 505.751 235.924 505.751Z" fill="url(#paint83_linear_1_224)"/>
<path d="M246.281 519.463C248.968 519.463 251.146 517.284 251.146 514.595C251.146 511.907 248.968 509.728 246.281 509.728C243.594 509.728 241.416 511.907 241.416 514.595C241.416 517.284 243.594 519.463 246.281 519.463Z" fill="url(#paint84_linear_1_224)"/>
<path d="M258.111 526.003C259.815 526.003 261.195 524.621 261.195 522.917C261.195 521.213 259.815 519.831 258.111 519.831C256.408 519.831 255.027 521.213 255.027 522.917C255.027 524.621 256.408 526.003 258.111 526.003Z" fill="url(#paint85_linear_1_224)"/>
<path d="M545.151 365.475C550.539 365.475 554.907 361.104 554.907 355.713C554.907 350.321 550.539 345.95 545.151 345.95C539.762 345.95 535.394 350.321 535.394 355.713C535.394 361.104 539.762 365.475 545.151 365.475Z" fill="url(#paint86_linear_1_224)"/>
<path d="M599.482 271.187C604.871 271.187 609.239 266.817 609.239 261.425C609.239 256.033 604.871 251.663 599.482 251.663C594.094 251.663 589.725 256.033 589.725 261.425C589.725 266.817 594.094 271.187 599.482 271.187Z" fill="url(#paint87_linear_1_224)"/>
<path d="M412.835 223.695C418.224 223.695 422.592 219.324 422.592 213.932C422.592 208.541 418.224 204.17 412.835 204.17C407.447 204.17 403.078 208.541 403.078 213.932C403.078 219.324 407.447 223.695 412.835 223.695Z" fill="url(#paint88_linear_1_224)"/>
<path d="M355.853 315.502C361.242 315.502 365.61 311.131 365.61 305.74C365.61 300.348 361.242 295.977 355.853 295.977C350.465 295.977 346.096 300.348 346.096 305.74C346.096 311.131 350.465 315.502 355.853 315.502Z" fill="url(#paint89_linear_1_224)"/>
<path d="M687.819 338.95C693.208 338.95 697.576 334.58 697.576 329.188C697.576 323.796 693.208 319.426 687.819 319.426C682.43 319.426 678.062 323.796 678.062 329.188C678.062 334.58 682.43 338.95 687.819 338.95Z" fill="url(#paint90_linear_1_224)"/>
<defs>
<linearGradient id="paint0_linear_1_224" x1="56.927" y1="438.829" x2="744.309" y2="438.829" gradientUnits="userSpaceOnUse">
<stop stop-color="#BD8AAE"/>
<stop offset="1" stop-color="#2484C6" stop-opacity="0"/>
</linearGradient>
<linearGradient id="paint1_linear_1_224" x1="56.427" y1="256.362" x2="744.365" y2="256.362" gradientUnits="userSpaceOnUse">
<stop offset="0.0536" stop-color="#1F479A"/>
<stop offset="0.2572" stop-color="#3C7FBE"/>
<stop offset="0.6965" stop-color="#28A8E0"/>
<stop offset="0.9493" stop-color="#29ABE2" stop-opacity="0"/>
</linearGradient>
<linearGradient id="paint2_linear_1_224" x1="0.820984" y1="490.058" x2="197.411" y2="490.058" gradientUnits="userSpaceOnUse">
<stop offset="0.2572" stop-color="#3C7FBE"/>
<stop offset="0.6965" stop-color="#28A8E0"/>
<stop offset="0.9493" stop-color="#29ABE2" stop-opacity="0"/>
</linearGradient>
<linearGradient id="paint3_linear_1_224" x1="509.098" y1="272.03" x2="596.596" y2="272.03" gradientUnits="userSpaceOnUse">
<stop offset="0.2572" stop-color="#3C7FBE"/>
<stop offset="0.6965" stop-color="#28A8E0"/>
<stop offset="0.9493" stop-color="#29ABE2" stop-opacity="0"/>
</linearGradient>
<linearGradient id="paint4_linear_1_224" x1="312.842" y1="241.153" x2="365.071" y2="241.153" gradientUnits="userSpaceOnUse">
<stop offset="0.2572" stop-color="#3C7FBE"/>
<stop offset="0.6965" stop-color="#28A8E0"/>
<stop offset="0.9493" stop-color="#29ABE2" stop-opacity="0"/>
</linearGradient>
<linearGradient id="paint5_linear_1_224" x1="600.95" y1="367.81" x2="629.46" y2="367.81" gradientUnits="userSpaceOnUse">
<stop offset="0.2572" stop-color="#3C7FBE"/>
<stop offset="0.6965" stop-color="#28A8E0"/>
<stop offset="0.9493" stop-color="#29ABE2" stop-opacity="0"/>
</linearGradient>
<linearGradient id="paint6_linear_1_224" x1="193.359" y1="566.525" x2="286.85" y2="566.525" gradientUnits="userSpaceOnUse">
<stop offset="0.2572" stop-color="#3C7FBE"/>
<stop offset="0.6965" stop-color="#28A8E0"/>
<stop offset="0.9493" stop-color="#29ABE2" stop-opacity="0"/>
</linearGradient>
<linearGradient id="paint7_linear_1_224" x1="511.728" y1="151.198" x2="749.547" y2="151.198" gradientUnits="userSpaceOnUse">
<stop offset="0.0607" stop-color="#28A8E0"/>
<stop offset="0.9984" stop-color="#29ABE2" stop-opacity="0"/>
</linearGradient>
<linearGradient id="paint8_linear_1_224" x1="527.262" y1="87.672" x2="589.058" y2="87.672" gradientUnits="userSpaceOnUse">
<stop offset="0.0607" stop-color="#28A8E0"/>
<stop offset="0.9984" stop-color="#29ABE2" stop-opacity="0"/>
</linearGradient>
<linearGradient id="paint9_linear_1_224" x1="618.442" y1="208.318" x2="649.081" y2="208.318" gradientUnits="userSpaceOnUse">
<stop stop-color="#21409A"/>
<stop offset="0.9984" stop-color="#BD8AAE"/>
</linearGradient>
<linearGradient id="paint10_linear_1_224" x1="82.787" y1="318.95" x2="115.444" y2="318.95" gradientUnits="userSpaceOnUse">
<stop stop-color="#21409A"/>
<stop offset="0.9984" stop-color="#BD8AAE"/>
</linearGradient>
<linearGradient id="paint11_linear_1_224" x1="271.265" y1="447.123" x2="304.032" y2="447.123" gradientUnits="userSpaceOnUse">
<stop stop-color="#21409A"/>
<stop offset="0.9984" stop-color="#BD8AAE"/>
</linearGradient>
<linearGradient id="paint12_linear_1_224" x1="222.019" y1="275.99" x2="285.42" y2="275.99" gradientUnits="userSpaceOnUse">
<stop stop-color="#CDE9F9"/>
<stop offset="0.5583" stop-color="#E7F6FD"/>
</linearGradient>
<linearGradient id="paint13_linear_1_224" x1="222.019" y1="276.714" x2="247.872" y2="276.714" gradientUnits="userSpaceOnUse">
<stop stop-color="#BD8AAE"/>
<stop offset="1" stop-color="#2484C6" stop-opacity="0"/>
</linearGradient>
<linearGradient id="paint14_linear_1_224" x1="39.926" y1="400.958" x2="293.974" y2="400.958" gradientUnits="userSpaceOnUse">
<stop offset="0.0607" stop-color="#28A8E0"/>
<stop offset="0.9984" stop-color="#29ABE2" stop-opacity="0"/>
</linearGradient>
<linearGradient id="paint15_linear_1_224" x1="152.82" y1="408.314" x2="267.44" y2="408.314" gradientUnits="userSpaceOnUse">
<stop stop-color="#BD8AAE"/>
<stop offset="1" stop-color="#2484C6" stop-opacity="0"/>
</linearGradient>
<linearGradient id="paint16_linear_1_224" x1="72.77" y1="420.008" x2="177.064" y2="420.008" gradientUnits="userSpaceOnUse">
<stop stop-color="#2484C6" stop-opacity="0"/>
<stop offset="0.9639" stop-color="#AECFDC"/>
</linearGradient>
<linearGradient id="paint17_linear_1_224" x1="164.795" y1="339.864" x2="251.147" y2="339.864" gradientUnits="userSpaceOnUse">
<stop offset="0.0607" stop-color="#28A8E0"/>
<stop offset="0.9984" stop-color="#29ABE2" stop-opacity="0"/>
</linearGradient>
<linearGradient id="paint18_linear_1_224" x1="108.418" y1="321.565" x2="184.581" y2="321.565" gradientUnits="userSpaceOnUse">
<stop stop-color="#2484C6" stop-opacity="0"/>
<stop offset="0.9639" stop-color="#AECFDC"/>
</linearGradient>
<linearGradient id="paint19_linear_1_224" x1="253.359" y1="382.522" x2="285.655" y2="382.522" gradientUnits="userSpaceOnUse">
<stop stop-color="#BD8AAE"/>
<stop offset="1" stop-color="#2484C6" stop-opacity="0"/>
</linearGradient>
<linearGradient id="paint20_linear_1_224" x1="254.526" y1="269.628" x2="285.42" y2="269.628" gradientUnits="userSpaceOnUse">
<stop stop-color="#21409A"/>
<stop offset="0.9984" stop-color="#BD8AAE"/>
</linearGradient>
<linearGradient id="paint21_linear_1_224" x1="245.815" y1="284.474" x2="255.188" y2="284.474" gradientUnits="userSpaceOnUse">
<stop stop-color="#CDE9F9"/>
<stop offset="0.5583" stop-color="#E7F6FD"/>
</linearGradient>
<linearGradient id="paint22_linear_1_224" x1="164.795" y1="343.897" x2="251.147" y2="343.897" gradientUnits="userSpaceOnUse">
<stop stop-color="#BD8AAE"/>
<stop offset="1" stop-color="#2484C6" stop-opacity="0"/>
</linearGradient>
<linearGradient id="paint23_linear_1_224" x1="196.969" y1="437.645" x2="218.41" y2="437.645" gradientUnits="userSpaceOnUse">
<stop stop-color="#BD8AAE"/>
<stop offset="1" stop-color="#2484C6" stop-opacity="0"/>
</linearGradient>
<linearGradient id="paint24_linear_1_224" x1="124.764" y1="490.283" x2="170.565" y2="490.283" gradientUnits="userSpaceOnUse">
<stop stop-color="#BD8AAE"/>
<stop offset="1" stop-color="#2484C6" stop-opacity="0"/>
</linearGradient>
<linearGradient id="paint25_linear_1_224" x1="82.217" y1="443.989" x2="125.134" y2="443.989" gradientUnits="userSpaceOnUse">
<stop stop-color="#2484C6" stop-opacity="0"/>
<stop offset="0.9639" stop-color="#AECFDC"/>
</linearGradient>
<linearGradient id="paint26_linear_1_224" x1="111.369" y1="435.197" x2="181.871" y2="435.197" gradientUnits="userSpaceOnUse">
<stop stop-color="#2484C6" stop-opacity="0"/>
<stop offset="0.9639" stop-color="#AECFDC"/>
</linearGradient>
<linearGradient id="paint27_linear_1_224" x1="185.39" y1="362.047" x2="293.973" y2="362.047" gradientUnits="userSpaceOnUse">
<stop stop-color="#BD8AAE"/>
<stop offset="1" stop-color="#2484C6" stop-opacity="0"/>
</linearGradient>
<linearGradient id="paint28_linear_1_224" x1="438.527" y1="526.047" x2="294.378" y2="424.23" gradientUnits="userSpaceOnUse">
<stop stop-color="#21409A"/>
<stop offset="0.9984" stop-color="#29ABE2" stop-opacity="0"/>
</linearGradient>
<linearGradient id="paint29_linear_1_224" x1="476.143" y1="472.791" x2="331.995" y2="370.974" gradientUnits="userSpaceOnUse">
<stop stop-color="#21409A"/>
<stop offset="0.9984" stop-color="#29ABE2" stop-opacity="0"/>
</linearGradient>
<linearGradient id="paint30_linear_1_224" x1="510.423" y1="424.26" x2="366.274" y2="322.442" gradientUnits="userSpaceOnUse">
<stop stop-color="#21409A"/>
<stop offset="0.9984" stop-color="#29ABE2" stop-opacity="0"/>
</linearGradient>
<linearGradient id="paint31_linear_1_224" x1="388.645" y1="357.845" x2="417.183" y2="357.845" gradientUnits="userSpaceOnUse">
<stop offset="0.0607" stop-color="#28A8E0"/>
<stop offset="0.9984" stop-color="#29ABE2" stop-opacity="0"/>
</linearGradient>
<linearGradient id="paint32_linear_1_224" x1="375.007" y1="443.461" x2="419.571" y2="443.461" gradientUnits="userSpaceOnUse">
<stop offset="0.0607" stop-color="#28A8E0"/>
<stop offset="0.9984" stop-color="#29ABE2" stop-opacity="0"/>
</linearGradient>
<linearGradient id="paint33_linear_1_224" x1="457.417" y1="408.694" x2="480.583" y2="408.694" gradientUnits="userSpaceOnUse">
<stop offset="0.0607" stop-color="#28A8E0"/>
<stop offset="0.9984" stop-color="#29ABE2" stop-opacity="0"/>
</linearGradient>
<linearGradient id="paint34_linear_1_224" x1="308.464" y1="423.417" x2="521.047" y2="423.417" gradientUnits="userSpaceOnUse">
<stop offset="0.0607" stop-color="#28A8E0"/>
<stop offset="0.9984" stop-color="#29ABE2" stop-opacity="0"/>
</linearGradient>
<linearGradient id="paint35_linear_1_224" x1="330.822" y1="420.026" x2="353.987" y2="420.026" gradientUnits="userSpaceOnUse">
<stop offset="0.0607" stop-color="#28A8E0"/>
<stop offset="0.9984" stop-color="#29ABE2" stop-opacity="0"/>
</linearGradient>
<linearGradient id="paint36_linear_1_224" x1="462.23" y1="470.571" x2="475.77" y2="470.571" gradientUnits="userSpaceOnUse">
<stop offset="0.0607" stop-color="#28A8E0"/>
<stop offset="0.9984" stop-color="#29ABE2" stop-opacity="0"/>
</linearGradient>
<linearGradient id="paint37_linear_1_224" x1="372.576" y1="490.058" x2="386.116" y2="490.058" gradientUnits="userSpaceOnUse">
<stop offset="0.0607" stop-color="#28A8E0"/>
<stop offset="0.9984" stop-color="#29ABE2" stop-opacity="0"/>
</linearGradient>
<linearGradient id="paint38_linear_1_224" x1="293.231" y1="198.437" x2="379.836" y2="197.259" gradientUnits="userSpaceOnUse">
<stop stop-color="#1592D1"/>
<stop offset="1" stop-color="#82CDBD"/>
</linearGradient>
<linearGradient id="paint39_linear_1_224" x1="293.231" y1="198.437" x2="379.836" y2="197.259" gradientUnits="userSpaceOnUse">
<stop stop-color="#BD8AAE"/>
<stop offset="1" stop-color="#2484C6" stop-opacity="0"/>
</linearGradient>
<linearGradient id="paint40_linear_1_224" x1="337.185" y1="219.88" x2="329.56" y2="228.705" gradientUnits="userSpaceOnUse">
<stop stop-color="#1592D1"/>
<stop offset="1" stop-color="#40C4DC"/>
</linearGradient>
<linearGradient id="paint41_linear_1_224" x1="363.288" y1="176.499" x2="351.381" y2="190.281" gradientUnits="userSpaceOnUse">
<stop stop-color="#1592D1"/>
<stop offset="1" stop-color="#40C4DC"/>
</linearGradient>
<linearGradient id="paint42_linear_1_224" x1="351.456" y1="192.788" x2="345.267" y2="199.952" gradientUnits="userSpaceOnUse">
<stop stop-color="#1592D1"/>
<stop offset="1" stop-color="#40C4DC"/>
</linearGradient>
<linearGradient id="paint43_linear_1_224" x1="314.679" y1="179.657" x2="308.489" y2="186.821" gradientUnits="userSpaceOnUse">
<stop stop-color="#1592D1"/>
<stop offset="1" stop-color="#40C4DC"/>
</linearGradient>
<linearGradient id="paint44_linear_1_224" x1="359.676" y1="214.612" x2="356.058" y2="218.799" gradientUnits="userSpaceOnUse">
<stop stop-color="#1592D1"/>
<stop offset="1" stop-color="#40C4DC"/>
</linearGradient>
<linearGradient id="paint45_linear_1_224" x1="333.074" y1="174.795" x2="329.457" y2="178.982" gradientUnits="userSpaceOnUse">
<stop stop-color="#1592D1"/>
<stop offset="1" stop-color="#40C4DC"/>
</linearGradient>
<linearGradient id="paint46_linear_1_224" x1="293.202" y1="197.871" x2="379.814" y2="197.871" gradientUnits="userSpaceOnUse">
<stop offset="0.0607" stop-color="#28A8E0"/>
<stop offset="0.9984" stop-color="#29ABE2" stop-opacity="0"/>
</linearGradient>
<linearGradient id="paint47_linear_1_224" x1="335.078" y1="178.869" x2="337.488" y2="207.893" gradientUnits="userSpaceOnUse">
<stop stop-color="#666666"/>
<stop offset="1" stop-color="#999999"/>
</linearGradient>
<linearGradient id="paint48_linear_1_224" x1="555.93" y1="183.041" x2="537.808" y2="241.24" gradientUnits="userSpaceOnUse">
<stop stop-color="#BD8AAE"/>
<stop offset="1" stop-color="#2484C6" stop-opacity="0"/>
</linearGradient>
<linearGradient id="paint49_linear_1_224" x1="543.875" y1="241.702" x2="557.407" y2="179.878" gradientUnits="userSpaceOnUse">
<stop stop-color="#BD8AAE"/>
<stop offset="1" stop-color="#2484C6" stop-opacity="0"/>
</linearGradient>
<linearGradient id="paint50_linear_1_224" x1="554.43" y1="240.667" x2="551.772" y2="216.274" gradientUnits="userSpaceOnUse">
<stop stop-color="#BD8AAE"/>
<stop offset="1" stop-color="#2484C6" stop-opacity="0"/>
</linearGradient>
<linearGradient id="paint51_linear_1_224" x1="553.979" y1="250.673" x2="563.911" y2="205.295" gradientUnits="userSpaceOnUse">
<stop stop-color="#BD8AAE"/>
<stop offset="1" stop-color="#2484C6" stop-opacity="0"/>
</linearGradient>
<linearGradient id="paint52_linear_1_224" x1="569.732" y1="259.823" x2="567.799" y2="239.294" gradientUnits="userSpaceOnUse">
<stop stop-color="#BD8AAE"/>
<stop offset="1" stop-color="#2484C6" stop-opacity="0"/>
</linearGradient>
<linearGradient id="paint53_linear_1_224" x1="488.166" y1="206.117" x2="609.339" y2="206.117" gradientUnits="userSpaceOnUse">
<stop stop-color="#64CDF6"/>
<stop offset="1" stop-color="white" stop-opacity="0"/>
</linearGradient>
<linearGradient id="paint54_linear_1_224" x1="372.776" y1="184.759" x2="389.12" y2="184.759" gradientUnits="userSpaceOnUse">
<stop stop-color="#CDE8F9"/>
<stop offset="1" stop-color="white" stop-opacity="0"/>
</linearGradient>
<linearGradient id="paint55_linear_1_224" x1="473.281" y1="251.902" x2="489.625" y2="251.902" gradientUnits="userSpaceOnUse">
<stop stop-color="#CDE8F9"/>
<stop offset="1" stop-color="white" stop-opacity="0"/>
</linearGradient>
<linearGradient id="paint56_linear_1_224" x1="295.86" y1="243.232" x2="312.205" y2="243.232" gradientUnits="userSpaceOnUse">
<stop stop-color="#CDE8F9"/>
<stop offset="1" stop-color="white" stop-opacity="0"/>
</linearGradient>
<linearGradient id="paint57_linear_1_224" x1="549.988" y1="411.333" x2="566.332" y2="411.333" gradientUnits="userSpaceOnUse">
<stop stop-color="#CDE8F9"/>
<stop offset="1" stop-color="white" stop-opacity="0"/>
</linearGradient>
<linearGradient id="paint58_linear_1_224" x1="642.799" y1="282.634" x2="659.144" y2="282.634" gradientUnits="userSpaceOnUse">
<stop stop-color="#CDE8F9"/>
<stop offset="1" stop-color="white" stop-opacity="0"/>
</linearGradient>
<linearGradient id="paint59_linear_1_224" x1="123.85" y1="348.35" x2="140.195" y2="348.35" gradientUnits="userSpaceOnUse">
<stop stop-color="#CDE8F9"/>
<stop offset="1" stop-color="white" stop-opacity="0"/>
</linearGradient>
<linearGradient id="paint60_linear_1_224" x1="313.12" y1="350.184" x2="329.464" y2="350.184" gradientUnits="userSpaceOnUse">
<stop stop-color="#CDE8F9"/>
<stop offset="1" stop-color="white" stop-opacity="0"/>
</linearGradient>
<linearGradient id="paint61_linear_1_224" x1="392.02" y1="272.627" x2="408.365" y2="272.627" gradientUnits="userSpaceOnUse">
<stop stop-color="#CDE8F9"/>
<stop offset="1" stop-color="white" stop-opacity="0"/>
</linearGradient>
<linearGradient id="paint62_linear_1_224" x1="530.281" y1="321.561" x2="546.625" y2="321.561" gradientUnits="userSpaceOnUse">
<stop stop-color="#CDE8F9"/>
<stop offset="1" stop-color="white" stop-opacity="0"/>
</linearGradient>
<linearGradient id="paint63_linear_1_224" x1="394.703" y1="197.844" x2="436.796" y2="271.277" gradientUnits="userSpaceOnUse">
<stop/>
<stop offset="0.0867" stop-color="#070707"/>
<stop offset="0.217" stop-color="#1C1C1C"/>
<stop offset="0.3749" stop-color="#3E3E3E"/>
<stop offset="0.5544" stop-color="#6D6D6D"/>
<stop offset="0.7519" stop-color="#A9A9A9"/>
<stop offset="0.9617" stop-color="#F1F1F1"/>
<stop offset="1" stop-color="white"/>
</linearGradient>
<linearGradient id="paint64_linear_1_224" x1="412.289" y1="280.434" x2="454.382" y2="353.867" gradientUnits="userSpaceOnUse">
<stop/>
<stop offset="0.0867" stop-color="#070707"/>
<stop offset="0.217" stop-color="#1C1C1C"/>
<stop offset="0.3749" stop-color="#3E3E3E"/>
<stop offset="0.5544" stop-color="#6D6D6D"/>
<stop offset="0.7519" stop-color="#A9A9A9"/>
<stop offset="0.9617" stop-color="#F1F1F1"/>
<stop offset="1" stop-color="white"/>
</linearGradient>
<linearGradient id="paint65_linear_1_224" x1="588.28" y1="261.931" x2="630.373" y2="335.364" gradientUnits="userSpaceOnUse">
<stop/>
<stop offset="0.0867" stop-color="#070707"/>
<stop offset="0.217" stop-color="#1C1C1C"/>
<stop offset="0.3749" stop-color="#3E3E3E"/>
<stop offset="0.5544" stop-color="#6D6D6D"/>
<stop offset="0.7519" stop-color="#A9A9A9"/>
<stop offset="0.9617" stop-color="#F1F1F1"/>
<stop offset="1" stop-color="white"/>
</linearGradient>
<linearGradient id="paint66_linear_1_224" x1="264.658" y1="169.405" x2="306.751" y2="242.838" gradientUnits="userSpaceOnUse">
<stop/>
<stop offset="0.0867" stop-color="#070707"/>
<stop offset="0.217" stop-color="#1C1C1C"/>
<stop offset="0.3749" stop-color="#3E3E3E"/>
<stop offset="0.5544" stop-color="#6D6D6D"/>
<stop offset="0.7519" stop-color="#A9A9A9"/>
<stop offset="0.9617" stop-color="#F1F1F1"/>
<stop offset="1" stop-color="white"/>
</linearGradient>
<linearGradient id="paint67_linear_1_224" x1="480.715" y1="269.623" x2="522.808" y2="343.056" gradientUnits="userSpaceOnUse">
<stop/>
<stop offset="0.0867" stop-color="#070707"/>
<stop offset="0.217" stop-color="#1C1C1C"/>
<stop offset="0.3749" stop-color="#3E3E3E"/>
<stop offset="0.5544" stop-color="#6D6D6D"/>
<stop offset="0.7519" stop-color="#A9A9A9"/>
<stop offset="0.9617" stop-color="#F1F1F1"/>
<stop offset="1" stop-color="white"/>
</linearGradient>
<linearGradient id="paint68_linear_1_224" x1="591.371" y1="346.667" x2="638.369" y2="336.344" gradientUnits="userSpaceOnUse">
<stop offset="0.0607" stop-color="#28A8E0"/>
<stop offset="0.9984" stop-color="#29ABE2" stop-opacity="0"/>
</linearGradient>
<linearGradient id="paint69_linear_1_224" x1="616.229" y1="331.506" x2="613.066" y2="337.162" gradientUnits="userSpaceOnUse">
<stop stop-color="#21409A"/>
<stop offset="0.9984" stop-color="#29ABE2" stop-opacity="0"/>
</linearGradient>
<linearGradient id="paint70_linear_1_224" x1="602.56" y1="331.03" x2="597.622" y2="339.862" gradientUnits="userSpaceOnUse">
<stop stop-color="#21409A"/>
<stop offset="0.9984" stop-color="#29ABE2" stop-opacity="0"/>
</linearGradient>
<linearGradient id="paint71_linear_1_224" x1="616.252" y1="348.518" x2="613.686" y2="353.109" gradientUnits="userSpaceOnUse">
<stop stop-color="#21409A"/>
<stop offset="0.9984" stop-color="#29ABE2" stop-opacity="0"/>
</linearGradient>
<linearGradient id="paint72_linear_1_224" x1="599.172" y1="346.483" x2="596.605" y2="351.074" gradientUnits="userSpaceOnUse">
<stop stop-color="#21409A"/>
<stop offset="0.9984" stop-color="#29ABE2" stop-opacity="0"/>
</linearGradient>
<linearGradient id="paint73_linear_1_224" x1="629.337" y1="348.031" x2="627.837" y2="350.715" gradientUnits="userSpaceOnUse">
<stop stop-color="#21409A"/>
<stop offset="0.9984" stop-color="#29ABE2" stop-opacity="0"/>
</linearGradient>
<linearGradient id="paint74_linear_1_224" x1="605.36" y1="326.324" x2="603.86" y2="329.008" gradientUnits="userSpaceOnUse">
<stop stop-color="#21409A"/>
<stop offset="0.9984" stop-color="#29ABE2" stop-opacity="0"/>
</linearGradient>
<linearGradient id="paint75_linear_1_224" x1="612.618" y1="359.364" x2="611.118" y2="362.048" gradientUnits="userSpaceOnUse">
<stop stop-color="#21409A"/>
<stop offset="0.9984" stop-color="#29ABE2" stop-opacity="0"/>
</linearGradient>
<linearGradient id="paint76_linear_1_224" x1="626.591" y1="328.391" x2="625.091" y2="331.075" gradientUnits="userSpaceOnUse">
<stop stop-color="#21409A"/>
<stop offset="0.9984" stop-color="#29ABE2" stop-opacity="0"/>
</linearGradient>
<linearGradient id="paint77_linear_1_224" x1="590.758" y1="341.283" x2="638.884" y2="341.283" gradientUnits="userSpaceOnUse">
<stop offset="0.0607" stop-color="#28A8E0"/>
<stop offset="0.9984" stop-color="#29ABE2" stop-opacity="0"/>
</linearGradient>
<linearGradient id="paint78_linear_1_224" x1="393.474" y1="154.918" x2="490.245" y2="154.918" gradientUnits="userSpaceOnUse">
<stop offset="0.2572" stop-color="#3C7FBE"/>
<stop offset="0.6965" stop-color="#28A8E0"/>
<stop offset="0.9493" stop-color="#29ABE2" stop-opacity="0"/>
</linearGradient>
<linearGradient id="paint79_linear_1_224" x1="385.615" y1="156.976" x2="481.638" y2="156.976" gradientUnits="userSpaceOnUse">
<stop stop-color="#BD8AAE"/>
<stop offset="1" stop-color="#2484C6" stop-opacity="0"/>
</linearGradient>
<linearGradient id="paint80_linear_1_224" x1="389.608" y1="139.233" x2="420.37" y2="139.233" gradientUnits="userSpaceOnUse">
<stop stop-color="#1592D1"/>
<stop offset="1" stop-color="#40C4DC"/>
</linearGradient>
<linearGradient id="paint81_linear_1_224" x1="209.148" y1="488.654" x2="278.784" y2="488.654" gradientUnits="userSpaceOnUse">
<stop offset="0.0607" stop-color="#28A8E0"/>
<stop offset="0.9984" stop-color="#29ABE2" stop-opacity="0"/>
</linearGradient>
<linearGradient id="paint82_linear_1_224" x1="278.486" y1="494.191" x2="249.233" y2="494.191" gradientUnits="userSpaceOnUse">
<stop offset="0.4247" stop-color="white"/>
<stop offset="1" stop-color="#2484C6" stop-opacity="0"/>
</linearGradient>
<linearGradient id="paint83_linear_1_224" x1="229.027" y1="500.159" x2="242.812" y2="497.134" gradientUnits="userSpaceOnUse">
<stop stop-color="#CDE8F9"/>
<stop offset="1" stop-color="white" stop-opacity="0"/>
</linearGradient>
<linearGradient id="paint84_linear_1_224" x1="241.52" y1="515.625" x2="251.023" y2="513.539" gradientUnits="userSpaceOnUse">
<stop stop-color="#CDE8F9"/>
<stop offset="1" stop-color="white" stop-opacity="0"/>
</linearGradient>
<linearGradient id="paint85_linear_1_224" x1="255.043" y1="523.595" x2="261.069" y2="522.273" gradientUnits="userSpaceOnUse">
<stop stop-color="#CDE8F9"/>
<stop offset="1" stop-color="white" stop-opacity="0"/>
</linearGradient>
<linearGradient id="paint86_linear_1_224" x1="535.631" y1="357.812" x2="554.691" y2="353.626" gradientUnits="userSpaceOnUse">
<stop offset="0.0607" stop-color="#28A8E0"/>
<stop offset="0.9984" stop-color="#29ABE2" stop-opacity="0"/>
</linearGradient>
<linearGradient id="paint87_linear_1_224" x1="589.961" y1="263.527" x2="609.021" y2="259.341" gradientUnits="userSpaceOnUse">
<stop offset="0.0607" stop-color="#28A8E0"/>
<stop offset="0.9984" stop-color="#29ABE2" stop-opacity="0"/>
</linearGradient>
<linearGradient id="paint88_linear_1_224" x1="403.309" y1="216.029" x2="422.369" y2="211.843" gradientUnits="userSpaceOnUse">
<stop offset="0.0607" stop-color="#28A8E0"/>
<stop offset="0.9984" stop-color="#29ABE2" stop-opacity="0"/>
</linearGradient>
<linearGradient id="paint89_linear_1_224" x1="346.329" y1="307.833" x2="365.389" y2="303.648" gradientUnits="userSpaceOnUse">
<stop stop-color="#BD8AAE"/>
<stop offset="1" stop-color="#2484C6" stop-opacity="0"/>
</linearGradient>
<linearGradient id="paint90_linear_1_224" x1="678.302" y1="331.291" x2="697.362" y2="327.106" gradientUnits="userSpaceOnUse">
<stop stop-color="#BD8AAE"/>
<stop offset="1" stop-color="#2484C6" stop-opacity="0"/>
</linearGradient>
</defs>
</svg>
