<svg width="500" height="500" viewBox="0 0 500 500" fill="none" xmlns="http://www.w3.org/2000/svg">
<path d="M328.086 54.691C367.977 67.075 411.331 87.395 434.751 122.51C465.71 168.93 487.599 238.256 467.236 299.064C446.7 360.389 369.513 406.839 305.481 403.959C255.95 401.731 218.377 370.169 170.351 391.044C149.308 400.191 147.448 410.194 134.791 410.383C89.564 411.058 16.253 284.789 50.436 180.804C87.292 68.68 217.177 20.26 328.086 54.691Z" fill="#DBEBFF"/>
<path d="M312.87 83.46C315.447 74.34 320.594 74.1 323.108 76.087C325.149 77.701 325.824 81.171 329.484 82C332.746 82.739 334.468 79.165 337.5 80.071C340.67 81.018 340.77 85.516 343.45 85.694C345.41 85.825 346.054 83.466 348.325 83.594C350.316 83.707 350.354 85.55 352.728 86.49C356.446 87.963 359.948 84.864 361.584 86.568C362.049 87.053 362.349 87.911 362.138 88.573C361.362 91.005 353.845 90.288 342.127 89.967C331.819 89.685 325.73 89.518 318.273 89.899C307.551 90.446 301.657 91.734 300.989 89.889C300.55 88.676 302.441 86.306 304.452 85.92C306.597 85.508 307.79 87.563 310.297 87.257C311.652 87.093 312.394 85.145 312.87 83.46Z" fill="white"/>
<path d="M110.085 129.702C113.713 117.849 120.451 117.68 123.682 120.35C126.305 122.518 127.09 127.076 131.853 128.263C136.098 129.321 138.451 124.697 142.391 125.967C146.51 127.295 146.513 133.18 150.013 133.489C152.572 133.715 153.481 130.649 156.448 130.881C159.049 131.085 159.046 133.496 162.124 134.792C166.945 136.823 171.612 132.87 173.703 135.145C174.297 135.792 174.665 136.923 174.37 137.782C173.286 140.94 163.477 139.79 148.162 139.039C134.69 138.379 126.732 137.988 116.969 138.275C102.932 138.688 95.188 140.205 94.366 137.773C93.826 136.174 96.366 133.128 99.008 132.681C101.825 132.203 103.326 134.924 106.614 134.595C108.389 134.419 109.415 131.892 110.085 129.702Z" fill="white"/>
<path d="M443.877 129.414C433.943 116.819 418.371 101.528 398.085 100.138C371.29 98.302 358.421 122.236 327.034 126.841C312.108 129.031 289.981 127.291 260.493 107.717" stroke="#2763BA" stroke-width="0.5" stroke-miterlimit="10" stroke-dasharray="8 8"/>
<path d="M329.964 147.335H227.378V269.329H329.964H377.098V194.469C377.098 168.437 355.995 147.335 329.964 147.335Z" fill="#2763BA"/>
<path d="M277.285 269.328H183.017V194.468C183.017 168.437 204.12 147.334 230.151 147.334C256.182 147.334 277.285 168.437 277.285 194.468V269.328Z" fill="#42152A"/>
<path d="M234.426 147.536C233.017 147.409 231.593 147.334 230.151 147.334C204.12 147.334 183.017 168.437 183.017 194.468V269.328H191.567V194.468C191.567 169.879 210.399 149.698 234.426 147.536Z" fill="#2763BA"/>
<path d="M312.163 269.328H292.314V416.887H312.163V269.328Z" fill="#FFD333"/>
<path d="M312.163 269.328H292.314V283.584H312.163V269.328Z" fill="#BA9A25"/>
<path d="M304.765 100.614V141.583L353.183 121.098L304.765 100.614Z" fill="#FFD333"/>
<path d="M307.609 179.542C306.005 179.542 304.704 178.242 304.704 176.638V109.409C304.704 107.805 306.004 106.505 307.609 106.505C309.213 106.505 310.513 107.805 310.513 109.409V176.638C310.514 178.242 309.214 179.542 307.609 179.542Z" fill="#FFD333"/>
<path d="M377.098 244.196H277.285V269.329H377.098V244.196Z" fill="#0F3E82"/>
<path d="M377.098 225.765H277.285V237.001H377.098V225.765Z" fill="#0F3E82"/>
<path d="M120.372 206.93C120.803 203.032 122.233 201.07 120.97 199.114C119.906 197.465 118.514 197.078 116.58 195.595C112.571 192.52 113.978 190.42 110.817 188.209C108.511 186.596 107.359 187.809 101.336 187.868C94.335 187.936 94.553 185.376 90.045 186.67C86.281 187.75 82.646 191.281 81.46 193.269C77.929 199.184 80.684 201.688 76.955 206.145C74.319 209.295 72.981 208.603 71.395 212.502C69.109 218.122 72.264 218.822 70.005 225.904C68.285 231.296 65.627 229.941 64.933 234.381C64.18 239.202 66.715 241.939 65.845 246.746C65.113 250.793 62.537 254.468 60.759 257.952C57.461 264.415 58.389 293.897 90.506 293.558C111.557 293.335 120.113 279.468 124.696 263.962C127.003 256.157 120.753 250.591 125.128 239.86C127.706 233.536 132.021 230.211 130.587 225.533C129.485 221.94 126.477 222.39 124.02 217.297C122.859 214.892 119.851 211.642 120.372 206.93Z" fill="#42152A"/>
<path d="M108.828 211.331L108.661 212.123C110.68 212.547 111.979 214.529 111.557 216.54C111.134 218.553 109.148 219.844 107.13 219.421C106.151 219.216 105.312 218.643 104.765 217.808C104.218 216.974 104.03 215.978 104.234 215.004C104.354 214.434 104.611 213.907 104.971 213.455C104.754 213.294 104.551 213.114 104.37 212.913C103.916 213.471 103.591 214.127 103.442 214.837C103.193 216.024 103.422 217.236 104.088 218.252C104.753 219.267 105.775 219.964 106.964 220.213C108.208 220.474 109.442 220.2 110.423 219.546C111.379 218.91 112.097 217.915 112.35 216.706C112.864 214.258 111.284 211.846 108.828 211.331Z" fill="white"/>
<path d="M66.972 368.74C63.544 373.707 58.386 383.333 57.362 385.267C56.553 386.797 66.315 393.938 66.788 393.337C69.429 389.984 76.603 380.782 78.518 378.393C81.75 374.361 85.501 369.431 89.128 364.331L74.367 355.164C71.664 360.596 68.764 366.143 66.972 368.74Z" fill="#FAB582"/>
<path d="M68.718 390.978L79.474 412.088C80.623 414.343 77.98 416.628 75.915 415.165L48.359 395.87C46.325 394.332 59.127 382.066 59.127 382.066L59.342 384.033C59.843 388.64 64.165 391.841 68.718 390.978Z" fill="#2763BA"/>
<path d="M80.464 414.832L78.943 417.015C78.588 417.524 77.888 417.649 77.38 417.294L47.225 396.279C46.716 395.924 46.591 395.224 46.946 394.716L48.467 392.533C48.822 392.024 49.522 391.899 50.03 392.254L80.185 413.269C80.694 413.623 80.819 414.323 80.464 414.832Z" fill="#42152A"/>
<path d="M66.553 396.013C66.128 396.013 65.729 395.752 65.573 395.331C65.373 394.789 65.65 394.189 66.191 393.989L69.869 392.632C70.409 392.435 71.011 392.71 71.21 393.25C71.41 393.792 71.133 394.392 70.592 394.592L66.914 395.949C66.795 395.993 66.673 396.013 66.553 396.013Z" fill="#42152A"/>
<path d="M68.247 399.635C67.822 399.635 67.423 399.374 67.267 398.952C67.068 398.411 67.344 397.811 67.886 397.611L71.564 396.255C72.105 396.057 72.706 396.332 72.905 396.874C73.105 397.414 72.828 398.015 72.287 398.215L68.609 399.572C68.49 399.614 68.368 399.635 68.247 399.635Z" fill="#42152A"/>
<path d="M70.132 403.447C69.707 403.447 69.308 403.186 69.152 402.764C68.952 402.224 69.229 401.623 69.77 401.423L73.448 400.066C73.99 399.867 74.59 400.143 74.79 400.685C74.989 401.225 74.713 401.826 74.171 402.026L70.493 403.383C70.374 403.427 70.252 403.447 70.132 403.447Z" fill="#42152A"/>
<path d="M117.882 277.014L91.259 268.593C91.259 268.593 79.554 289.421 83.267 308.778C84.834 316.95 83.967 327.313 82.042 334.664C77.435 352.251 66.201 367.95 59.196 374.269L75.325 386.809C80.886 378.987 108.282 348.074 110.146 341.77C115.585 323.375 117.882 277.014 117.882 277.014Z" fill="#FFD333"/>
<path d="M125.112 381.665C125.093 387.7 126.423 398.785 126.672 400.959C126.869 402.678 138.816 402.821 138.867 402.058C139.15 397.799 139.865 386.152 140.094 383.1C140.481 377.947 140.787 371.76 140.895 365.502L123.537 366.287C124.378 372.294 125.122 378.509 125.112 381.665Z" fill="#FAB582"/>
<path d="M139.125 399.02L159.932 410.352C162.155 411.562 161.267 414.941 158.736 414.902L125.098 414.565C122.55 414.446 126.175 397.091 126.175 397.091L127.464 398.593C130.483 402.109 135.857 402.306 139.125 399.02Z" fill="#2763BA"/>
<path d="M162.3 412.055L162.279 414.715C162.274 415.335 161.767 415.834 161.147 415.829L124.393 415.544C123.773 415.539 123.274 415.032 123.279 414.412L123.3 411.752C123.305 411.132 123.811 410.633 124.432 410.638L161.186 410.923C161.806 410.928 162.304 411.435 162.3 412.055Z" fill="#42152A"/>
<path d="M139.594 404.58C139.385 404.58 139.174 404.518 138.991 404.387C138.52 404.054 138.409 403.402 138.743 402.932L141.01 399.734C141.343 399.263 141.995 399.151 142.466 399.486C142.937 399.819 143.048 400.471 142.714 400.941L140.447 404.139C140.244 404.427 139.921 404.58 139.594 404.58Z" fill="#42152A"/>
<path d="M143.04 406.61C142.831 406.61 142.62 406.548 142.437 406.417C141.966 406.084 141.855 405.432 142.189 404.962L144.456 401.764C144.789 401.294 145.441 401.181 145.912 401.516C146.383 401.849 146.494 402.501 146.16 402.971L143.893 406.169C143.689 406.457 143.367 406.61 143.04 406.61Z" fill="#42152A"/>
<path d="M146.749 408.689C146.54 408.689 146.329 408.627 146.146 408.496C145.675 408.164 145.564 407.511 145.898 407.041L148.165 403.842C148.498 403.372 149.15 403.259 149.621 403.594C150.092 403.926 150.203 404.579 149.869 405.049L147.602 408.248C147.399 408.536 147.076 408.689 146.749 408.689Z" fill="#42152A"/>
<path d="M125.13 275.546L95.161 270.02C95.161 270.02 92.062 300.427 107.583 312.575C118.094 320.802 121.963 358.242 123.536 391.472L140.729 390.112C140.894 380.517 143.851 337 141.825 330.746C135.911 312.499 125.13 275.546 125.13 275.546Z" fill="#FFD333"/>
<path d="M127.128 282.357C125.897 278.176 125.13 275.546 125.13 275.546L96.626 270.291L91.259 268.593C91.259 268.593 87.452 275.375 84.869 284.792C86.806 285.182 88.918 285.539 91.194 285.824C104.8 287.524 114.57 285.442 120.991 284.01C123.515 283.447 125.512 282.892 127.128 282.357Z" fill="#FAB582"/>
<path d="M176.748 194.951L167.54 189.676L141.58 215.916L136.693 216.847L141.496 234.378L150.389 232.911L176.748 194.951Z" fill="#FAB582"/>
<path d="M218.419 223.856L169.831 187.343V247.372H267.008V187.343L218.419 223.856Z" fill="white"/>
<path d="M267.008 187.343H169.831L218.419 223.857L267.008 187.343Z" fill="#C4C4C4"/>
<path d="M107.108 222.585L112.8 239.113L141.496 234.378L136.693 216.847L107.108 222.585Z" fill="#2763BA"/>
<path d="M111.283 221.85L93.228 224.782C91.551 225.054 89.908 225.543 88.388 226.301C80.196 230.388 83.038 240.539 84.329 245.813L89.122 270.018L85.587 279.437C85.587 279.437 98.644 281.969 112.516 281.08C118.968 280.666 122.272 279.01 127.926 275.546L124.685 257.581C132.287 242.686 122.826 229.196 117.839 223.834C116.895 222.819 115.91 222.238 114.828 221.897C113.68 221.535 112.447 221.548 111.283 221.85Z" fill="#2763BA"/>
<path d="M95.175 208.102L94.792 224.517C94.967 226.285 99.129 231.361 104.283 231.307C107.11 231.277 109.47 229.291 108.985 226.505L106.814 214.007L95.175 208.102Z" fill="#FAB582"/>
<path d="M108.479 223.613L107.494 217.981L97.286 213.597L97.704 215.855C97.704 215.855 99.217 219.585 108.479 223.613Z" fill="#E69361"/>
<path d="M98.187 221.767L113.706 216.199C115.915 215.416 117.447 213.577 117.936 211.451C118.319 209.787 117.887 208.037 116.984 206.587L110.541 194.154L91.259 193.113L98.187 221.767Z" fill="#FAB582"/>
<path d="M110.541 194.154C111.247 194.832 97.285 195.494 97.285 213.597L95.019 214.781C95.019 214.781 81.745 211.068 86.689 197.393C89.532 189.531 103.344 187.235 110.541 194.154Z" fill="#42152A"/>
<path d="M95.298 215.867C97.227 217.101 99.791 216.538 101.025 214.609C102.259 212.68 101.696 210.116 99.767 208.882C97.838 207.648 95.274 208.211 94.04 210.14C92.806 212.069 93.369 214.633 95.298 215.867Z" fill="#FAB582"/>
<path d="M98.029 214.136L97.451 214.703C98.898 216.174 98.881 218.544 97.416 219.985C95.949 221.426 93.581 221.402 92.134 219.931C91.433 219.218 91.051 218.276 91.058 217.278C91.065 216.281 91.46 215.347 92.169 214.649C92.584 214.241 93.091 213.945 93.64 213.768C93.549 213.513 93.48 213.251 93.439 212.984C92.752 213.197 92.118 213.564 91.601 214.072C90.736 214.922 90.256 216.059 90.247 217.273C90.239 218.487 90.703 219.632 91.555 220.499C92.446 221.406 93.626 221.861 94.804 221.86C95.953 221.86 97.101 221.429 97.982 220.563C99.767 218.809 99.788 215.926 98.029 214.136Z" fill="white"/>
<path d="M98.694 212.803L96.256 211.656L96.387 211.422L98.825 212.569L98.694 212.803Z" fill="#42152A"/>
<path d="M97.035 213.296L96.781 213.177L98.046 210.929L98.299 211.048L97.035 213.296Z" fill="#42152A"/>
<path d="M110.621 201.427C110.735 201.749 111.089 201.918 111.411 201.803C111.733 201.688 111.902 201.335 111.788 201.013C111.674 200.691 111.32 200.522 110.998 200.636C110.675 200.751 110.507 201.105 110.621 201.427Z" fill="#42152A"/>
<path d="M112.496 198.132L115.929 200.672C116.373 201.001 116.507 201.607 116.242 202.092L115.374 203.685L112.496 198.132Z" fill="#FAB582"/>
<path d="M175.267 186.128L176.76 189.74C176.896 190.012 176.958 190.312 176.937 190.615C176.872 191.518 176.644 193.358 175.871 192.917C174.855 192.338 172.805 188.088 172.805 188.088" fill="#FAB582"/>
<path d="M176.913 184.232L178.406 187.845C178.542 188.117 178.604 188.417 178.583 188.72C178.519 189.623 178.291 191.463 177.517 191.022C176.501 190.443 174.451 186.193 174.451 186.193" fill="#FAB582"/>
<path d="M178.559 182.335L180.052 185.948C180.188 186.219 180.25 186.52 180.229 186.822C180.164 187.725 179.936 189.565 179.163 189.124C178.147 188.545 176.097 184.295 176.097 184.295" fill="#FAB582"/>
<path d="M178.185 182.867C178.185 182.867 179.792 186.65 180.808 187.229C181.581 187.67 181.809 185.829 181.874 184.927C181.895 184.624 181.833 184.324 181.697 184.052L180.862 182.031C180.464 181.069 179.41 180.539 178.41 180.828C176.732 181.313 174.24 182.362 172.554 184.54C169.803 188.095 167.35 189.843 167.35 189.843L169.213 191.035C171.139 192.267 173.708 191.574 174.754 189.541L178.185 182.867Z" fill="#FAB582"/>
<path d="M115.996 329.164C116.515 325.899 115.569 305.259 115.2 306.745C114.24 310.616 114.791 318.874 113.828 322.6C114.72 325.277 115.2 326.091 115.996 329.164Z" fill="#BA9A25"/>
<path d="M109.434 206.016C109.434 206.016 111.882 206.571 115.558 205.252C115.558 205.252 113.218 211.407 109.434 206.016Z" fill="white"/>
<path d="M160.632 248.095L155.466 240.197L123.282 250.583L117.224 243.059L101.534 254.219L117.607 271.101L160.632 248.095Z" fill="#FAB582"/>
<path d="M166.239 244.568L173.21 240.281C173.42 240.152 173.658 240.081 173.905 240.077C174.639 240.066 176.142 240.121 175.841 240.778C175.444 241.639 167.996 246.421 167.996 246.421" fill="#FAB582"/>
<path d="M158.53 238.946L161.086 239.061C161.539 239.082 161.991 239.021 162.423 238.883L169.25 236.224C169.25 236.224 171.462 236.115 171.227 237.134C170.993 238.154 164.365 242.307 164.365 242.307L172.418 237.355C172.587 237.251 172.779 237.193 172.977 237.188C173.748 237.168 175.679 237.195 175.316 237.984C174.864 238.966 166.369 244.421 166.369 244.421" fill="#FAB582"/>
<path d="M174.804 242.76C174.406 242.657 173.761 242.744 173.052 242.943L168.587 246.121L164.41 241.827L158.529 238.946L154.56 241.02C154.56 241.02 153.296 247.389 162.343 249.758C162.967 249.921 163.628 249.899 164.242 249.704L169.486 248.033C169.584 247.985 169.676 247.927 169.761 247.859C170.612 247.175 175.352 243.971 175.533 243.578C175.639 243.352 175.168 242.854 174.804 242.76Z" fill="#FAB582"/>
<path d="M161.159 239.61L159.484 238.576C158.745 238.073 159.044 237.275 159.099 236.382L159.644 233.629C159.714 233.277 159.4 232.962 159.05 233.042C158.375 233.195 157.021 233.477 156.47 235.173L154.169 241.456L161.159 239.61Z" fill="#FAB582"/>
<path d="M116.919 242.606L101.232 253.771L101.858 254.65L117.544 243.485L116.919 242.606Z" fill="#FFD333"/>
<path d="M137.214 216.715L136.173 217.001L140.975 234.532L142.017 234.247L137.214 216.715Z" fill="#FFD333"/>
<path d="M108.812 229.848C109.902 228.124 110.035 225.541 109.228 222.183L108.159 222.357C109.09 226.18 108.553 228.212 107.92 229.238C107.245 230.331 106.352 230.536 106.289 230.55C99.005 232.428 95.519 226.235 94.714 224.541L93.611 224.72C94.123 225.85 97.203 231.982 103.663 231.982C104.553 231.982 105.507 231.865 106.526 231.603C106.582 231.592 107.879 231.324 108.812 229.848Z" fill="#FFD333"/>
<path d="M100.08 191.135C97.055 192.429 94.514 194.096 92.958 196.529C92.208 197.744 91.575 199.066 91.203 200.541C91.06 200.898 91.025 201.279 90.94 201.656L90.686 202.803C90.561 203.582 90.477 204.376 90.277 205.203C89.999 204.426 89.797 203.617 89.626 202.793C89.581 201.966 89.436 201.113 89.542 200.264C89.632 198.554 90.206 196.831 91.16 195.336C92.117 193.828 93.567 192.673 95.129 191.948C96.692 191.223 98.423 190.904 100.08 191.135Z" fill="#FFD333"/>
<path d="M81.5339 381.678L63.2972 367.866L57.1173 376.025L75.354 389.838L81.5339 381.678Z" fill="#BA9A25"/>
<path d="M142.814 382.021L120.469 383.862L121.309 394.062L143.655 392.221L142.814 382.021Z" fill="#BA9A25"/>
<path d="M440.2 360.558C444.467 365.875 452.281 377.303 453.592 379.399C454.628 381.056 442.992 388.895 442.41 388.257C439.161 384.694 430.329 374.91 427.977 372.374C424.007 368.095 419.379 362.845 414.878 357.393L430.764 345.863C434.249 351.764 437.968 357.777 440.2 360.558Z" fill="#FAB582"/>
<path d="M440.042 385.756L429.642 410.417C428.531 413.051 431.694 415.411 433.903 413.595L463.379 389.611C465.546 387.712 450.123 374.934 450.123 374.934L450.042 377.168C449.851 382.399 445.242 386.357 440.042 385.756Z" fill="#42152A"/>
<path d="M428.658 413.476L430.733 416.038C431.123 416.52 431.83 416.594 432.312 416.204L464.803 389.888C465.285 389.498 465.359 388.79 464.969 388.309L462.894 385.747C462.504 385.265 461.796 385.191 461.315 385.581L428.824 411.897C428.342 412.287 428.268 412.994 428.658 413.476Z" fill="#FFD333"/>
<path d="M442.892 391.253C443.371 391.218 443.799 390.892 443.94 390.404C444.121 389.778 443.76 389.123 443.134 388.942L438.879 387.712C438.255 387.534 437.599 387.892 437.418 388.518C437.237 389.144 437.598 389.799 438.224 389.98L442.479 391.21C442.617 391.249 442.756 391.263 442.892 391.253Z" fill="#FFD333"/>
<path d="M441.277 395.471C441.756 395.436 442.184 395.11 442.326 394.621C442.507 393.996 442.146 393.341 441.52 393.16L437.265 391.931C436.639 391.752 435.985 392.111 435.804 392.738C435.623 393.363 435.984 394.018 436.61 394.199L440.865 395.428C441.003 395.468 441.142 395.481 441.277 395.471Z" fill="#FFD333"/>
<path d="M439.465 399.92C439.944 399.885 440.372 399.559 440.513 399.07C440.694 398.445 440.333 397.79 439.707 397.609L435.452 396.38C434.826 396.2 434.172 396.56 433.991 397.187C433.81 397.812 434.171 398.466 434.797 398.648L439.052 399.877C439.19 399.917 439.329 399.93 439.465 399.92Z" fill="#FFD333"/>
<path d="M380.513 289.711L406.76 266.257C406.76 266.257 424.002 288.711 419.438 307.885C416.347 320.869 430.207 341.885 440.76 350.105L412.636 370.635C406.526 363.235 401.94 354.044 399.626 347.891C392.875 329.936 380.513 289.711 380.513 289.711Z" fill="#2763BA"/>
<path d="M380.191 375.742C380.213 382.703 379.179 396.802 378.891 399.309C378.664 401.292 364.383 400.144 364.325 399.264C363.999 394.351 363.174 380.918 362.91 377.396C362.464 371.452 362.11 364.315 361.986 357.098L382.008 358.003C381.038 364.933 380.18 372.102 380.191 375.742Z" fill="#FAB582"/>
<path d="M364.028 395.761L340.028 408.831C337.464 410.227 338.488 414.124 341.407 414.08L380.207 413.692C383.146 413.555 378.965 393.537 378.965 393.537L377.478 395.269C373.996 399.324 367.797 399.551 364.028 395.761Z" fill="#42152A"/>
<path d="M337.295 410.623L337.321 414.036C337.326 414.656 337.832 415.155 338.453 415.15L381.192 414.818C381.812 414.813 382.311 414.306 382.306 413.686L382.279 410.273C382.274 409.653 381.767 409.154 381.147 409.159L338.408 409.491C337.789 409.496 337.29 410.003 337.295 410.623Z" fill="#FFD333"/>
<path d="M363.486 402.174C363.727 402.174 363.97 402.102 364.181 401.952C364.724 401.567 364.852 400.816 364.467 400.273L361.852 396.584C361.468 396.041 360.716 395.911 360.173 396.298C359.63 396.683 359.502 397.434 359.887 397.977L362.502 401.666C362.737 401.997 363.109 402.174 363.486 402.174Z" fill="#FFD333"/>
<path d="M359.512 404.515C359.753 404.515 359.996 404.443 360.207 404.293C360.75 403.908 360.878 403.157 360.493 402.614L357.878 398.925C357.494 398.383 356.742 398.252 356.199 398.639C355.656 399.024 355.528 399.775 355.913 400.318L358.528 404.007C358.762 404.338 359.134 404.515 359.512 404.515Z" fill="#FFD333"/>
<path d="M355.233 406.914C355.474 406.914 355.717 406.842 355.928 406.692C356.471 406.309 356.599 405.556 356.214 405.013L353.599 401.323C353.215 400.781 352.463 400.65 351.92 401.037C351.377 401.421 351.249 402.173 351.634 402.716L354.249 406.406C354.484 406.737 354.856 406.914 355.233 406.914Z" fill="#FFD333"/>
<path d="M372.573 281.591L406.694 276.065C406.694 276.065 415.545 306.865 400.025 319.013C389.514 327.24 384.643 359.012 387.77 372.018L352.981 370.541C352.816 360.945 357.869 339.032 359.895 332.779C365.808 314.53 372.573 281.591 372.573 281.591Z" fill="#2763BA"/>
<path d="M390.58 336.39C390.061 333.125 389.846 315.749 390.214 317.236C391.174 321.107 392.155 325.48 393.118 329.206C392.227 331.883 391.188 333.668 390.58 336.39Z" fill="#0F3E82"/>
<path d="M375.722 212.375L403.785 213.028C415.961 214.196 419.841 221.364 419.776 228.027L419.263 259.676L424.642 292.56L366.227 295.915L364.708 239.138C363.152 231.192 365.152 223.197 369.166 216.165C369.888 214.899 370.75 214.047 371.759 213.416C372.939 212.678 374.33 212.343 375.722 212.375Z" fill="#42152A"/>
<path d="M392.626 197.839L394.497 212.45C394.755 214.398 390.919 220.121 385.994 222.155C383.104 223.348 379.902 221.294 379.719 218.173L378.901 204.17L392.626 197.839Z" fill="#FAB582"/>
<path d="M379.254 210.204L378.893 203.893L388.775 196.596L388.896 199.132C388.896 199.132 388.208 203.53 379.254 210.204Z" fill="#E69361"/>
<path d="M393.204 202.359L375.819 206.303C373.296 206.895 370.772 206.1 369.046 204.413C367.695 203.093 367.051 201.208 367.025 199.32L367.955 182.995L390.685 177.665L393.204 202.359Z" fill="#FAB582"/>
<path d="M367.304 194.44C367.304 194.44 376.6 192.975 380.73 194.44C384.767 195.872 385.362 191.259 385.024 188.657C384.504 184.654 392.164 201.702 386.706 203.832C381.248 205.962 367.125 209.721 366.901 201.493C366.78 197.089 367.304 194.44 367.304 194.44Z" fill="#42152A"/>
<path d="M364.97 179.207C367.066 190.551 384.249 180.301 384.582 185.247C385.434 197.897 392.454 195.007 392.454 195.007C392.454 195.007 401.467 176.098 390.258 175.843C379.049 175.587 361.872 162.438 364.97 179.207Z" fill="#42152A"/>
<path d="M395.785 190.616C396.381 193.157 394.804 195.7 392.263 196.296C389.722 196.892 387.179 195.315 386.583 192.774C385.987 190.233 387.564 187.69 390.105 187.095C392.647 186.499 395.19 188.075 395.785 190.616Z" fill="#FAB582"/>
<path d="M368.601 186.369L365.004 192.62C364.468 193.551 365.254 194.524 366.47 194.434L368.962 194.123L368.601 186.369Z" fill="#FAB582"/>
<path d="M390.451 193.18L390.181 193.014L391.919 190.21L392.189 190.376L390.451 193.18Z" fill="#42152A"/>
<path d="M392.503 192.699L389.7 190.96L389.867 190.691L392.671 192.43L392.503 192.699Z" fill="#42152A"/>
<path d="M372.228 189.808C372.314 190.176 372.086 190.544 371.718 190.631C371.35 190.717 370.982 190.489 370.896 190.121C370.81 189.753 371.038 189.385 371.406 189.299C371.773 189.212 372.141 189.441 372.228 189.808Z" fill="#42152A"/>
<path d="M394.033 276.329L340.661 236.221V302.16H447.405V236.221L394.033 276.329Z" fill="white"/>
<path d="M447.405 236.221H340.661L394.033 276.33L447.405 236.221Z" fill="#C4C4C4"/>
<path d="M402.911 223.429L405.362 221.224C408.981 217.968 411.642 215.386 414.898 219.006L446.975 254.667L445.269 287.494C445.905 292.293 448.448 299.912 446.783 302.216C445.701 303.713 445.325 302.599 443.772 303.175C442.219 303.75 442.631 303.611 440.915 303.551C439.199 303.49 438.017 304.82 436.929 303.915C435.842 303.009 435.639 303.064 433.826 302.607C432.057 302.161 433.491 297.947 433.702 294.772L431.65 297.587C430.61 298.508 429.98 297.952 429.833 297.212C429.766 296.877 429.657 296.269 429.817 295.43C430.298 292.903 431.618 290.611 433.493 288.851L434.868 287.56L431.659 261.521L401.28 231.461C398.026 227.842 399.292 226.685 402.911 223.429Z" fill="#FAB582"/>
<path d="M402.631 216.51L400.228 218.745C396.68 222.046 396.479 227.599 399.78 231.147L418.057 251.171L433.51 237.196L426.523 229.309L415.034 216.957C411.733 213.41 406.18 213.209 402.631 216.51Z" fill="#42152A"/>
<path d="M372.46 196.642C373.075 196.253 373.699 195.63 374.238 194.649C374.275 194.581 374.25 194.495 374.182 194.458C374.114 194.42 374.029 194.444 373.991 194.514C372.256 197.669 369.696 196.915 369.588 196.882C369.514 196.86 369.434 196.9 369.411 196.974C369.388 197.048 369.429 197.127 369.503 197.151C369.525 197.158 370.965 197.59 372.46 196.642Z" fill="#FAB582"/>
<path d="M394.27 172.79C394.27 173.379 393.793 173.856 393.204 173.856C392.615 173.856 392.138 173.379 392.138 172.79C392.138 172.201 392.615 171.724 393.204 171.724C393.793 171.725 394.27 172.202 394.27 172.79Z" fill="#FFD333"/>
<path d="M373.182 171.372L394.983 188.051C394.983 188.051 403.401 164.118 373.182 171.372Z" fill="#FFD333"/>
<path d="M380.611 177.056C380.611 177.056 365.168 167.228 371.596 167.422C380.179 167.681 380.611 177.056 380.611 177.056Z" fill="#FFD333"/>
<path d="M424.659 93.639C424.659 93.639 415.021 97.752 414.319 94.946C413.617 92.139 418.993 92.905 416.89 92.165C414.787 91.425 407.355 92.68 407.368 90.639C407.381 88.598 411.762 89.375 411.164 88.558C410.566 87.741 404.054 87.842 402.6 84.324C401.146 80.806 407.267 82.9 412.121 86.053C416.975 89.207 408.649 83.288 409.419 81.342C410.19 79.397 416.137 83.566 418.342 87.391C420.547 91.217 416.82 83.069 418.885 83.509C420.952 83.949 425.09 88.667 424.659 93.639Z" fill="#2763BA"/>
<path d="M414.31 87.997C416.522 88.731 419.507 89.979 422.661 92.144C425.928 94.387 428.22 96.819 429.714 98.667" stroke="#FFD333" stroke-miterlimit="10" stroke-linecap="round"/>
<path d="M165.878 351.016C165.878 351.016 166.773 337.679 170.371 338.503C173.969 339.327 169.989 344.998 172.047 343.035C174.105 341.072 176.975 331.895 179.288 333.09C181.601 334.285 178.185 338.818 179.459 338.61C180.733 338.402 184.384 330.94 189.225 331.32C194.066 331.7 188.146 337.45 181.753 341.147C175.36 344.843 186.905 338.798 188.672 340.799C190.439 342.8 182.259 347.153 176.634 347.448C171.009 347.743 182.43 348.216 180.735 350.31C179.04 352.402 171.282 354.38 165.878 351.016Z" fill="#2763BA"/>
<path d="M178.277 342.51C176.163 344.601 173.018 347.273 168.732 349.608C164.293 352.027 160.202 353.227 157.237 353.857" stroke="#FFD333" stroke-miterlimit="10" stroke-linecap="round"/>
<path d="M220.238 366.348C220.238 366.348 231.709 359.485 233.081 362.911C234.453 366.337 227.526 366.298 230.312 366.87C233.098 367.443 242.274 364.573 242.611 367.155C242.947 369.737 237.275 369.512 238.172 370.441C239.069 371.37 247.282 370.119 249.727 374.313C252.172 378.508 244.074 376.919 237.394 373.771C230.714 370.623 242.26 376.667 241.622 379.258C240.984 381.85 232.747 377.607 229.299 373.153C225.852 368.699 231.97 378.354 229.284 378.154C226.597 377.955 220.551 372.706 220.238 366.348Z" fill="#2763BA"/>
<path d="M234.292 371.692C231.37 371.146 227.381 370.084 223.021 367.892C218.504 365.622 215.187 362.943 212.981 360.866" stroke="#FFD333" stroke-miterlimit="10" stroke-linecap="round"/>
<path d="M100.859 362.934C102.175 363.245 103.476 363.534 104.764 363.802" stroke="#2763BA" stroke-width="0.5" stroke-miterlimit="10"/>
<path d="M112.54 365.2C133.991 368.446 150.842 365.954 160.859 363.704C176.193 360.258 194.279 356.194 203.936 340.627C210.199 330.531 214.886 312.421 205.859 304.858C198.938 299.059 185.251 300.547 179.705 307.55C172.083 317.174 180.904 335.863 190.09 344.858C204.594 359.061 231.179 360.031 258.938 349.141" stroke="#2763BA" stroke-width="0.5" stroke-miterlimit="10" stroke-dasharray="7.9 7.9"/>
<path d="M262.59 347.642C263.806 347.121 265.024 346.577 266.243 346.011" stroke="#2763BA" stroke-width="0.5" stroke-miterlimit="10"/>
<path d="M256.187 136.819C256.187 136.819 265.72 145.158 263.987 146.344C262.254 147.53 260.87 144.557 260.87 144.557C260.87 144.557 263.819 148.791 261.345 148.353C258.872 147.915 256.187 136.819 256.187 136.819Z" fill="#FFD333"/>
<path d="M248.612 147.267L247.288 147.203L247.48 141.214C247.485 141.065 247.368 140.94 247.218 140.936C247.072 140.951 246.945 141.049 246.94 141.197L246.749 147.164L244.503 148.136C244.366 148.195 244.303 148.354 244.362 148.491C244.406 148.593 244.505 148.654 244.61 148.654C244.646 148.654 244.682 148.647 244.717 148.632L246.567 147.831L246.193 148.963C246.146 149.105 246.223 149.258 246.364 149.304C246.393 149.314 246.421 149.318 246.449 149.318C246.562 149.318 246.668 149.246 246.705 149.133L247.166 147.737L248.585 147.805C248.59 147.806 248.594 147.806 248.598 147.806C248.741 147.806 248.861 147.694 248.867 147.549C248.875 147.401 248.76 147.274 248.612 147.267Z" fill="#42152A"/>
<path d="M254.96 147.267L253.636 147.203L253.828 141.214C253.833 141.065 253.716 140.94 253.566 140.936C253.42 140.951 253.293 141.049 253.288 141.197L253.097 147.164L250.851 148.136C250.714 148.195 250.651 148.354 250.71 148.491C250.754 148.593 250.853 148.654 250.958 148.654C250.994 148.654 251.03 148.647 251.065 148.632L252.915 147.831L252.541 148.963C252.494 149.105 252.571 149.258 252.712 149.304C252.741 149.314 252.769 149.318 252.797 149.318C252.91 149.318 253.016 149.246 253.053 149.133L253.514 147.737L254.933 147.805C254.938 147.806 254.942 147.806 254.946 147.806C255.089 147.806 255.208 147.694 255.215 147.549C255.223 147.401 255.108 147.274 254.96 147.267Z" fill="#42152A"/>
<path d="M253.378 126.148L253.391 125.752C253.472 123.23 251.7 120.918 249.196 120.598C246.324 120.231 243.828 122.411 243.738 125.235L243.38 136.429L243.415 136.43C243.642 140.525 247.069 143.812 251.302 143.724C255.085 143.646 258.348 140.704 258.804 136.948C259.193 133.739 257.595 130.838 255.053 129.34C253.945 128.688 253.337 127.432 253.378 126.148Z" fill="#FFD333"/>
<path d="M248.045 124.132L247.977 126.263L245.613 125.12L248.045 124.132Z" fill="#2763BA"/>
<path d="M246.324 123.865C246.319 124.017 246.192 124.136 246.041 124.131C245.889 124.126 245.77 123.999 245.775 123.847C245.78 123.695 245.907 123.576 246.059 123.581C246.209 123.587 246.328 123.714 246.324 123.865Z" fill="#42152A"/>
<path d="M250.163 123.988C250.158 124.14 250.031 124.259 249.88 124.254C249.728 124.249 249.609 124.122 249.614 123.97C249.619 123.818 249.746 123.699 249.898 123.704C250.048 123.71 250.168 123.837 250.163 123.988Z" fill="#42152A"/>
</svg>
