<svg width="1444" height="701" viewBox="0 0 1444 701" fill="none" xmlns="http://www.w3.org/2000/svg">
<g clip-path="url(#clip0_0_3)">
<path fill-rule="evenodd" clip-rule="evenodd" d="M1443.79 0.937057C1443.79 0.933434 1443.79 0.930717 1443.01 0.463386C1442.24 -0.00394687 1442.24 -0.00304302 1442.24 0.000579716L1442.23 0.015077L1442.19 0.0739484C1442.16 0.127384 1442.11 0.20707 1442.05 0.31213C1441.92 0.524065 1441.72 0.839252 1441.46 1.25677C1440.95 2.09181 1440.17 3.33169 1439.14 4.95105C1437.08 8.18797 1433.99 12.9383 1429.91 18.9864C1421.73 31.0819 1409.55 48.3659 1393.51 69.1097C1361.42 110.597 1313.93 165.914 1252.3 221.23C1129.02 331.868 949.225 442.438 723.016 442.438V444.249C949.84 444.249 1130.05 333.379 1253.51 222.577C1315.24 167.173 1362.81 111.77 1394.94 70.2174C1411 49.441 1423.21 32.1252 1431.41 20.0008C1435.51 13.9381 1438.6 9.17424 1440.67 5.92377C1441.7 4.29897 1442.48 3.05183 1443 2.21045C1443.26 1.79021 1443.46 1.47142 1443.59 1.25677C1443.66 1.149 1443.71 1.06838 1443.74 1.01404L1443.78 0.952453L1443.79 0.937057ZM1443.7 134.191C1443.7 134.188 1443.7 134.187 1443.01 133.599C1442.32 133.012 1442.32 133.013 1442.32 133.015L1442.31 133.025L1442.28 133.067L1442.21 133.14L1442.13 133.234C1442.08 133.298 1442.01 133.375 1441.93 133.466L1441.81 133.611C1441.73 133.699 1441.65 133.796 1441.55 133.902C1441.04 134.491 1440.26 135.368 1439.23 136.513C1437.17 138.801 1434.09 142.161 1430 146.439C1421.83 154.994 1409.65 167.221 1393.61 181.895C1361.54 211.243 1314.05 250.381 1252.42 289.518C1129.15 367.794 949.317 446.06 723.016 446.06V447.872C949.748 447.872 1129.91 369.455 1253.39 291.047C1315.12 251.844 1362.69 212.638 1394.83 183.231C1410.9 168.527 1423.12 156.272 1431.31 147.69C1435.41 143.399 1438.51 140.026 1440.58 137.725C1441.61 136.573 1442.39 135.69 1442.92 135.094C1443.18 134.796 1443.37 134.57 1443.5 134.418C1443.57 134.342 1443.62 134.285 1443.65 134.246L1443.69 134.202L1443.7 134.191ZM1443.01 225.979C1443.6 226.672 1443.6 226.674 1443.59 226.675L1443.58 226.684L1443.55 226.715L1443.45 226.797L1443.4 226.838C1443.27 226.948 1443.07 227.11 1442.81 227.324C1442.29 227.751 1441.51 228.384 1440.47 229.21C1438.4 230.861 1435.3 233.279 1431.2 236.354C1423 242.507 1410.79 251.292 1394.72 261.831C1362.58 282.911 1315.01 311.011 1253.28 339.108C1129.81 395.304 949.685 451.494 723.016 451.494V449.683C949.381 449.683 1129.25 393.569 1252.53 337.46C1314.16 309.405 1361.65 281.352 1393.73 260.317C1409.76 249.799 1421.94 241.037 1430.11 234.906C1434.2 231.841 1437.28 229.433 1439.34 227.793C1440.37 226.973 1441.14 226.345 1441.66 225.923C1441.77 225.832 1441.87 225.751 1441.96 225.679C1442.07 225.584 1442.17 225.506 1442.24 225.445C1442.3 225.392 1442.35 225.351 1442.38 225.325L1442.42 225.295L1442.43 225.288C1442.43 225.288 1442.43 225.287 1442.45 225.308C1442.46 225.318 1442.47 225.332 1442.49 225.354C1442.52 225.394 1442.57 225.457 1442.66 225.56L1443.01 225.979ZM1443.4 327.329C1443.4 327.329 1443.4 327.329 1443.4 327.327C1443.4 327.325 1443.4 327.321 1443.4 327.313C1443.39 327.298 1443.37 327.267 1443.34 327.204C1443.29 327.095 1443.2 326.891 1443.01 326.51C1442.84 326.14 1442.74 325.939 1442.69 325.828C1442.66 325.776 1442.65 325.745 1442.64 325.725C1442.63 325.706 1442.62 325.698 1442.62 325.696C1442.62 325.694 1442.62 325.694 1442.62 325.694L1442.61 325.698L1442.58 325.716L1442.43 325.784C1442.3 325.844 1442.11 325.935 1441.85 326.055C1441.34 326.295 1440.56 326.653 1439.53 327.12C1437.47 328.051 1434.39 329.421 1430.3 331.164C1422.13 334.651 1409.95 339.634 1393.91 345.614C1361.83 357.577 1314.33 373.53 1252.68 389.484C1129.37 421.392 949.448 453.306 723.016 453.306V455.117C949.618 455.117 1129.69 423.18 1253.13 391.237C1314.85 375.267 1362.4 359.294 1394.54 347.312C1410.61 341.321 1422.82 336.328 1431.01 332.831C1435.11 331.082 1438.21 329.707 1440.28 328.77C1441.31 328.301 1442.09 327.94 1442.62 327.697C1442.88 327.576 1443.07 327.484 1443.21 327.422L1443.35 327.351L1443.39 327.333L1443.4 327.329ZM1443.01 407.116C1443.14 407.763 1443.17 407.94 1443.18 407.988C1443.18 408.006 1443.18 408.006 1443.18 408.006L1443.17 408.008L1443.13 408.015L1442.99 408.043C1442.85 408.068 1442.66 408.104 1442.4 408.152L1442.15 408.197L1441.85 408.253C1441.69 408.282 1441.51 408.316 1441.31 408.351C1440.95 408.417 1440.53 408.493 1440.07 408.577C1438 408.949 1434.9 409.494 1430.81 410.188C1422.62 411.576 1410.41 413.558 1394.35 415.936C1362.24 420.693 1314.69 427.035 1252.99 433.376C1129.6 446.059 949.566 458.74 723.016 458.74V456.929C949.499 456.929 1129.47 444.251 1252.81 431.574C1314.48 425.236 1362 418.898 1394.09 414.145C1410.14 411.768 1422.33 409.789 1430.51 408.402C1434.6 407.709 1437.68 407.165 1439.74 406.794C1440.78 406.609 1441.55 406.467 1442.07 406.371C1442.33 406.323 1442.52 406.287 1442.65 406.263L1442.8 406.236L1442.83 406.228L1442.84 406.227C1442.84 406.227 1442.84 406.227 1442.85 406.244C1442.85 406.261 1442.86 406.294 1442.87 406.358L1442.9 406.501C1442.92 406.632 1442.96 406.828 1443.01 407.116ZM1443 456.023C1443.01 456.023 1443.01 456.023 1443.01 456.929C1443.02 457.834 1443.02 457.834 1443.02 457.834H1443.01H1442.99L1442.97 457.835H1442.94H1442.91H1442.87L1442.83 457.836H1442.77L1442.72 457.837H1442.65L1442.58 457.838H1442.51L1442.42 457.839L1442.34 457.84L1442.24 457.841H1442.14H1442.03L1441.92 457.842L1441.8 457.843L1441.68 457.844L1441.55 457.845L1441.41 457.847L1441.27 457.848L1441.12 457.849L1440.97 457.85L1440.81 457.851L1440.64 457.852L1440.47 457.853L1440.29 457.855L1440.1 457.856L1439.91 457.858L1439.72 457.86L1439.51 457.861L1439.3 457.862L1439.09 457.864L1438.87 457.866L1438.64 457.868L1438.41 457.87L1438.17 457.871L1437.93 457.873L1437.68 457.875L1437.42 457.877L1437.16 457.879L1436.89 457.88L1436.61 457.882L1436.33 457.885L1436.05 457.887L1435.76 457.89L1435.46 457.891L1435.15 457.894L1434.84 457.896L1434.53 457.899L1434.21 457.901L1433.88 457.903L1433.55 457.906L1433.21 457.909L1432.86 457.911L1432.51 457.914L1432.15 457.917L1431.79 457.919L1431.42 457.922L1431.05 457.925L1430.66 457.928L1430.28 457.93L1429.89 457.934L1429.49 457.937L1429.08 457.939L1428.67 457.943L1428.26 457.946L1427.84 457.949L1427.41 457.952L1426.97 457.956L1426.53 457.959L1426.09 457.962L1425.64 457.966L1425.18 457.969L1424.72 457.973L1424.25 457.976L1423.78 457.979L1423.3 457.983L1422.81 457.987L1422.32 457.991L1421.82 457.995L1421.32 457.998L1420.81 458.002L1420.29 458.006L1419.77 458.01L1419.25 458.014L1418.71 458.018L1418.17 458.022L1417.63 458.026L1417.08 458.03L1416.53 458.034L1415.96 458.039L1415.4 458.043L1414.82 458.047L1414.25 458.052L1413.66 458.056L1413.07 458.061L1412.48 458.065L1411.87 458.07L1411.27 458.074L1410.65 458.079L1410.04 458.083L1409.41 458.088L1408.78 458.092L1408.14 458.098L1407.5 458.102L1406.86 458.108L1406.2 458.112L1405.54 458.117L1404.88 458.122L1404.21 458.128L1403.53 458.132L1402.85 458.138L1402.16 458.143L1401.47 458.148L1400.77 458.153L1400.07 458.159L1399.36 458.164L1398.64 458.169L1397.92 458.175L1397.19 458.18L1396.46 458.186L1395.72 458.191L1394.98 458.197L1394.23 458.203L1393.47 458.208L1392.71 458.214L1391.95 458.22L1391.17 458.226L1390.4 458.232L1389.61 458.237L1388.82 458.244L1388.03 458.249L1387.23 458.255L1386.42 458.262L1385.61 458.268L1384.79 458.273L1383.97 458.28L1383.14 458.286L1382.31 458.293L1381.47 458.299L1380.62 458.305L1379.77 458.312L1378.92 458.318L1378.05 458.325L1377.19 458.331L1376.31 458.338L1375.43 458.344L1374.55 458.351L1373.66 458.358L1372.77 458.365L1371.86 458.371L1370.96 458.379L1370.05 458.385L1369.13 458.392L1368.21 458.399L1367.28 458.406L1366.34 458.413L1365.4 458.42L1364.46 458.427L1363.51 458.435L1362.55 458.442L1361.59 458.449L1360.62 458.456L1359.65 458.464L1358.67 458.471L1357.69 458.478L1356.7 458.485L1355.7 458.494L1354.7 458.501L1353.7 458.508L1352.69 458.516L1351.67 458.523L1350.65 458.532L1349.62 458.539L1348.59 458.547L1347.55 458.555L1346.5 458.562L1345.45 458.571L1344.4 458.579L1343.34 458.587L1342.27 458.595L1341.2 458.603L1340.13 458.611L1339.04 458.62L1337.96 458.628L1336.86 458.636L1335.76 458.644L1334.66 458.652L1333.55 458.66L1332.44 458.669L1331.32 458.677L1330.19 458.686L1329.06 458.695L1327.92 458.703L1326.78 458.712L1325.64 458.72L1324.48 458.729L1323.33 458.738L1322.16 458.746L1320.99 458.755L1319.82 458.764L1318.64 458.773L1317.46 458.783L1316.27 458.791L1315.07 458.8L1313.87 458.809L1312.66 458.818L1311.45 458.828L1310.24 458.837L1309.01 458.846L1307.79 458.855L1306.55 458.864L1305.31 458.874L1304.07 458.883L1302.82 458.892L1301.57 458.902L1300.31 458.911L1299.04 458.921L1297.77 458.931L1296.5 458.94L1295.22 458.95L1293.93 458.96L1292.64 458.969L1291.34 458.979L1290.04 458.989L1288.74 458.999L1287.42 459.009L1286.11 459.019L1284.78 459.029L1283.45 459.039L1282.12 459.049L1280.78 459.059L1279.44 459.069L1278.09 459.08L1276.73 459.09L1275.37 459.1L1274.01 459.11L1272.64 459.12L1271.26 459.13L1269.88 459.141L1268.5 459.151L1267.11 459.162L1265.71 459.173L1264.31 459.183L1262.9 459.194L1261.49 459.205L1260.07 459.215L1258.65 459.226L1257.22 459.236L1255.79 459.247L1254.35 459.258L1252.91 459.269L1251.46 459.28L1250.01 459.292L1248.55 459.302L1247.08 459.313L1245.62 459.324L1244.14 459.335L1242.66 459.347L1241.18 459.358L1239.69 459.369L1238.19 459.38L1236.69 459.392L1235.19 459.403L1233.68 459.415L1232.16 459.426L1230.64 459.437L1229.12 459.449L1227.58 459.46L1226.05 459.472L1224.51 459.484L1222.96 459.495L1221.41 459.507L1219.85 459.519L1218.29 459.531L1216.73 459.542L1215.15 459.554L1213.58 459.566L1212 459.578L1210.41 459.59L1208.82 459.602L1207.22 459.614L1205.62 459.626L1204.01 459.638L1202.4 459.65L1200.78 459.663L1199.16 459.675L1197.53 459.687L1195.9 459.699L1194.26 459.712L1192.62 459.724L1190.97 459.737L1189.32 459.749L1187.66 459.762L1186 459.774L1184.33 459.787L1182.66 459.8L1180.98 459.812L1179.3 459.825L1177.61 459.838L1175.91 459.85L1174.22 459.863L1172.51 459.876L1170.81 459.889L1169.09 459.902L1167.38 459.915L1165.65 459.928L1163.92 459.941L1162.19 459.954L1160.45 459.967L1158.71 459.98L1156.96 459.993L1155.21 460.007L1153.45 460.02L1151.69 460.033L1149.92 460.047L1148.15 460.06L1146.37 460.073L1144.59 460.087L1142.8 460.1L1141.01 460.114L1139.21 460.127L1137.41 460.141L1135.6 460.155L1133.79 460.168L1131.97 460.182L1130.15 460.195L1128.32 460.21L1126.49 460.223L1124.66 460.237L1122.81 460.252L1120.97 460.265L1119.12 460.279L1117.26 460.293L1115.4 460.307L1113.53 460.321L1111.66 460.335L1109.79 460.349L1107.9 460.364L1106.02 460.377L1104.13 460.392L1102.23 460.406L1100.33 460.421L1098.43 460.435L1096.52 460.45L1094.6 460.464L1092.68 460.479L1090.76 460.493L1088.83 460.508L1086.9 460.522L1084.96 460.537L1083.01 460.551L1081.07 460.566L1079.11 460.581L1077.15 460.596L1075.19 460.61L1073.22 460.626L1071.25 460.64L1069.27 460.655L1067.29 460.67L1065.3 460.685L1063.31 460.7L1061.32 460.715L1059.31 460.731L1057.31 460.745L1055.3 460.761L1053.28 460.776L1051.26 460.791L1049.24 460.807L1047.21 460.822L1045.17 460.838L1043.13 460.853L1041.09 460.868L1039.04 460.884L1036.99 460.899L1034.93 460.914L1032.86 460.93L1030.8 460.945L1028.72 460.962L1026.65 460.977L1024.56 460.992L1022.48 461.009L1020.39 461.024L1018.29 461.04L1016.19 461.056L1014.08 461.072L1011.97 461.087L1009.86 461.104L1007.74 461.12L1005.61 461.135L1003.48 461.152L1001.35 461.168L999.212 461.184L997.069 461.2L994.921 461.216L992.768 461.232L990.611 461.249L988.449 461.265L986.283 461.281L984.112 461.298L981.936 461.314L979.755 461.331L977.57 461.347L975.38 461.364L973.187 461.38L970.987 461.397L968.783 461.414L966.575 461.431L964.363 461.447L962.145 461.463L959.923 461.481L957.696 461.497L955.465 461.514L953.23 461.531L950.989 461.548L948.744 461.565L946.494 461.582L944.24 461.599L941.981 461.615L939.717 461.633L937.449 461.65L935.177 461.667L932.899 461.684L930.618 461.702L928.332 461.719L926.041 461.736L923.746 461.753L921.446 461.771L919.141 461.788L916.832 461.806L914.518 461.823L912.201 461.841L909.878 461.858L907.551 461.875L905.219 461.894L902.882 461.911L900.542 461.929L898.196 461.946L895.847 461.964L893.492 461.982L891.134 462L888.77 462.018L886.403 462.036L884.03 462.053L881.654 462.071L879.273 462.089L876.886 462.107L874.496 462.125L872.102 462.143L869.703 462.162L867.299 462.18L864.891 462.198L862.478 462.216L860.061 462.234L857.64 462.252L855.214 462.271L852.783 462.289L850.349 462.307L847.91 462.326L845.466 462.345L843.018 462.363L840.565 462.382L838.108 462.4L835.647 462.419L833.181 462.437L830.711 462.456L828.236 462.474L825.758 462.493L823.273 462.512L820.785 462.53L818.294 462.549L815.797 462.568L813.296 462.587L810.791 462.606L808.281 462.625L805.767 462.644L803.248 462.663L800.725 462.682L798.197 462.701L795.666 462.72L793.13 462.739L790.59 462.758L788.045 462.777L785.496 462.797L782.943 462.816L780.385 462.835L777.823 462.854L775.256 462.874L772.686 462.893L770.11 462.913L767.531 462.932L764.947 462.952L762.36 462.971L759.767 462.991L757.17 463.011L754.569 463.03L751.964 463.05L749.354 463.07L746.741 463.089L744.122 463.109L741.5 463.129L738.873 463.149L736.242 463.169L733.607 463.189L730.968 463.209L728.323 463.229L725.675 463.248L723.023 463.268L723.01 461.457L725.661 461.437L728.31 461.417L730.954 461.397L733.593 461.377L736.229 461.357L738.86 461.337L741.486 461.318L744.109 461.298L746.727 461.279L749.341 461.259L751.95 461.239L754.556 461.219L757.157 461.2L759.753 461.18L762.346 461.16L764.934 461.141L767.517 461.121L770.097 461.102L772.672 461.082L775.243 461.063L777.809 461.044L780.371 461.024L782.929 461.005L785.482 460.986L788.031 460.966L790.576 460.947L793.117 460.928L795.653 460.909L798.184 460.89L800.711 460.871L803.235 460.852L805.753 460.833L808.267 460.814L810.777 460.795L813.282 460.776L815.784 460.757L818.28 460.738L820.772 460.719L823.26 460.701L825.743 460.682L828.223 460.663L830.697 460.645L833.168 460.626L835.633 460.607L838.094 460.588L840.551 460.57L843.004 460.551L845.452 460.533L847.896 460.514L850.335 460.496L852.77 460.478L855.2 460.46L857.627 460.441L860.047 460.423L862.465 460.405L864.877 460.386L867.285 460.368L869.689 460.35L872.088 460.332L874.483 460.314L876.873 460.296L879.259 460.278L881.64 460.26L884.017 460.242L886.389 460.224L888.757 460.206L891.121 460.188L893.479 460.171L895.834 460.153L898.183 460.135L900.529 460.117L902.869 460.099L905.205 460.082L907.536 460.064L909.864 460.047L912.187 460.03L914.505 460.012L916.819 459.994L919.127 459.977L921.432 459.96L923.732 459.942L926.027 459.925L928.318 459.907L930.604 459.89L932.886 459.873L935.164 459.856L937.436 459.839L939.704 459.821L941.967 459.805L944.227 459.788L946.481 459.771L948.73 459.753L950.975 459.736L953.215 459.72L955.451 459.703L957.683 459.686L959.91 459.669L962.131 459.652L964.349 459.636L966.562 459.619L968.77 459.602L970.973 459.586L973.172 459.569L975.367 459.552L977.557 459.536L979.742 459.52L981.922 459.503L984.098 459.486L986.269 459.47L988.435 459.454L990.597 459.437L992.754 459.421L994.907 459.405L997.054 459.388L999.198 459.373L1001.34 459.357L1003.47 459.34L1005.6 459.324L1007.72 459.309L1009.84 459.292L1011.96 459.276L1014.07 459.261L1016.17 459.244L1018.28 459.229L1020.37 459.213L1022.46 459.197L1024.55 459.181L1026.63 459.166L1028.71 459.15L1030.78 459.134L1032.85 459.119L1034.91 459.103L1036.97 459.088L1039.03 459.072L1041.07 459.057L1043.12 459.042L1045.16 459.026L1047.19 459.011L1049.22 458.995L1051.25 458.98L1053.27 458.965L1055.28 458.949L1057.3 458.934L1059.3 458.919L1061.3 458.904L1063.3 458.888L1065.29 458.874L1067.28 458.859L1069.26 458.844L1071.24 458.829L1073.21 458.814L1075.18 458.799L1077.14 458.784L1079.1 458.77L1081.05 458.754L1083 458.74L1084.94 458.725L1086.88 458.711L1088.82 458.696L1090.75 458.682L1092.67 458.668L1094.59 458.653L1096.51 458.639L1098.42 458.624L1100.32 458.61L1102.22 458.595L1104.12 458.581L1106.01 458.567L1107.89 458.552L1109.77 458.538L1111.65 458.524L1113.52 458.51L1115.38 458.495L1117.25 458.482L1119.1 458.467L1120.95 458.454L1122.8 458.44L1124.64 458.426L1126.48 458.412L1128.31 458.398L1130.14 458.384L1131.96 458.37L1133.78 458.357L1135.59 458.343L1137.4 458.33L1139.2 458.316L1140.99 458.302L1142.79 458.289L1144.58 458.275L1146.36 458.262L1148.14 458.248L1149.91 458.235L1151.68 458.222L1153.44 458.208L1155.2 458.196L1156.95 458.182L1158.7 458.168L1160.44 458.156L1162.18 458.142L1163.91 458.13L1165.64 458.117L1167.36 458.103L1169.08 458.091L1170.79 458.078L1172.5 458.064L1174.2 458.052L1175.9 458.039L1177.59 458.026L1179.28 458.014L1180.96 458.001L1182.64 457.988L1184.32 457.976L1185.98 457.963L1187.65 457.95L1189.3 457.938L1190.96 457.926L1192.6 457.913L1194.25 457.9L1195.88 457.889L1197.52 457.876L1199.14 457.863L1200.77 457.851L1202.38 457.839L1204 457.827L1205.6 457.815L1207.21 457.803L1208.8 457.791L1210.4 457.779L1211.98 457.766L1213.56 457.755L1215.14 457.743L1216.71 457.731L1218.28 457.719L1219.84 457.707L1221.4 457.696L1222.95 457.684L1224.49 457.672L1226.04 457.66L1227.57 457.649L1229.1 457.638L1230.63 457.626L1232.15 457.614L1233.66 457.603L1235.17 457.592L1236.68 457.581L1238.18 457.569L1239.67 457.558L1241.16 457.546L1242.65 457.535L1244.13 457.525L1245.6 457.513L1247.07 457.502L1248.53 457.491L1249.99 457.48L1251.45 457.469L1252.9 457.458L1254.34 457.447L1255.78 457.436L1257.21 457.425L1258.64 457.415L1260.06 457.404L1261.48 457.393L1262.89 457.382L1264.29 457.371L1265.7 457.361L1267.09 457.351L1268.48 457.341L1269.87 457.33L1271.25 457.319L1272.63 457.309L1274 457.299L1275.36 457.288L1276.72 457.278L1278.08 457.268L1279.42 457.257L1280.77 457.247L1282.11 457.237L1283.44 457.227L1284.77 457.217L1286.09 457.208L1287.41 457.198L1288.72 457.188L1290.03 457.178L1291.33 457.168L1292.63 457.158L1293.92 457.149L1295.2 457.139L1296.49 457.129L1297.76 457.12L1299.03 457.11L1300.3 457.1L1301.55 457.091L1302.81 457.082L1304.06 457.072L1305.3 457.063L1306.54 457.053L1307.77 457.044L1309 457.035L1310.22 457.025L1311.44 457.016L1312.65 457.006L1313.86 456.997L1315.06 456.988L1316.25 456.979L1317.44 456.971L1318.63 456.962L1319.81 456.953L1320.98 456.944L1322.15 456.935L1323.31 456.927L1324.47 456.918L1325.62 456.909L1326.77 456.901L1327.91 456.891L1329.05 456.883L1330.18 456.874L1331.3 456.866L1332.42 456.858L1333.54 456.849L1334.65 456.841L1335.75 456.833L1336.85 456.824L1337.94 456.816L1339.03 456.808L1340.11 456.8L1341.19 456.792L1342.26 456.784L1343.33 456.776L1344.39 456.767L1345.44 456.759L1346.49 456.751L1347.53 456.744L1348.57 456.736L1349.61 456.728L1350.63 456.72L1351.66 456.712L1352.67 456.705L1353.68 456.698L1354.69 456.689L1355.69 456.682L1356.68 456.675L1357.67 456.667L1358.66 456.66L1359.64 456.652L1360.61 456.645L1361.58 456.638L1362.54 456.631L1363.49 456.623L1364.44 456.616L1365.39 456.609L1366.33 456.602L1367.26 456.594L1368.19 456.588L1369.12 456.581L1370.03 456.574L1370.94 456.567L1371.85 456.56L1372.75 456.554L1373.65 456.546L1374.54 456.54L1375.42 456.533L1376.3 456.526L1377.17 456.52L1378.04 456.514L1378.9 456.507L1379.76 456.5L1380.61 456.494L1381.45 456.488L1382.29 456.481L1383.13 456.475L1383.96 456.469L1384.78 456.462L1385.6 456.457L1386.41 456.45L1387.21 456.444L1388.01 456.438L1388.81 456.432L1389.6 456.426L1390.38 456.42L1391.16 456.414L1391.93 456.409L1392.7 456.402L1393.46 456.397L1394.22 456.392L1394.96 456.386L1395.71 456.38L1396.45 456.374L1397.18 456.369L1397.91 456.363L1398.63 456.358L1399.34 456.353L1400.05 456.347L1400.76 456.342L1401.46 456.336L1402.15 456.332L1402.84 456.326L1403.52 456.321L1404.19 456.316L1404.87 456.311L1405.53 456.305L1406.19 456.301L1406.84 456.296L1407.49 456.291L1408.13 456.286L1408.77 456.282L1409.4 456.276L1410.02 456.272L1410.64 456.267L1411.25 456.263L1411.86 456.258L1412.46 456.254L1413.06 456.249L1413.65 456.245L1414.23 456.24L1414.81 456.236L1415.38 456.231L1415.95 456.228L1416.51 456.223L1417.07 456.219L1417.62 456.215L1418.16 456.21L1418.7 456.207L1419.23 456.202L1419.76 456.199L1420.28 456.195L1420.79 456.19L1421.3 456.187L1421.81 456.183L1422.3 456.18L1422.8 456.176L1423.28 456.172L1423.76 456.169L1424.24 456.165L1424.71 456.161L1425.17 456.158L1425.62 456.154L1426.08 456.151L1426.52 456.148L1426.96 456.144L1427.39 456.141L1427.82 456.138L1428.24 456.134L1428.66 456.132L1429.07 456.128L1429.47 456.125L1429.87 456.122L1430.26 456.119L1430.65 456.116L1431.03 456.113L1431.41 456.111L1431.78 456.108L1432.14 456.105L1432.5 456.103L1432.85 456.1L1433.19 456.097L1433.53 456.094L1433.87 456.092L1434.19 456.09L1434.51 456.087L1434.83 456.084L1435.14 456.083L1435.44 456.08L1435.74 456.078L1436.03 456.075L1436.32 456.074L1436.6 456.072L1436.88 456.069L1437.14 456.067L1437.41 456.065L1437.66 456.064L1437.91 456.062L1438.16 456.06L1438.4 456.058L1438.63 456.056L1438.85 456.055L1439.08 456.053L1439.29 456.051L1439.5 456.049L1439.7 456.048L1439.9 456.046H1440.09L1440.27 456.044L1440.45 456.042L1440.62 456.041L1440.79 456.04L1440.95 456.038L1441.11 456.037L1441.26 456.036H1441.4L1441.53 456.034L1441.67 456.033L1441.79 456.032L1441.91 456.031L1442.02 456.03H1442.13L1442.23 456.029L1442.32 456.028L1442.41 456.027H1442.49H1442.57L1442.64 456.026H1442.7L1442.76 456.025H1442.81L1442.86 456.024H1442.9H1442.93H1442.96L1442.98 456.023H1442.99H1443ZM1443.01 699.652C1443.6 698.959 1443.6 698.958 1443.59 698.957L1443.58 698.948L1443.55 698.917L1443.54 698.909L1443.46 698.842L1443.4 698.793L1443.29 698.7L1443.16 698.596C1443.06 698.514 1442.94 698.418 1442.81 698.307C1442.29 697.88 1441.51 697.247 1440.47 696.422C1438.4 694.77 1435.3 692.353 1431.2 689.277C1423 683.124 1410.79 674.339 1394.72 663.8C1362.58 642.72 1315.01 614.621 1253.28 586.523C1129.81 530.327 949.685 474.137 723.016 474.137V475.948C949.381 475.948 1129.25 532.062 1252.53 588.171C1314.16 616.227 1361.65 644.279 1393.73 665.314C1409.76 675.832 1421.94 684.594 1430.11 690.726C1434.2 693.79 1437.28 696.199 1439.34 697.838C1440.37 698.659 1441.14 699.286 1441.66 699.708C1441.92 699.92 1442.11 700.08 1442.24 700.186C1442.29 700.229 1442.33 700.263 1442.36 700.289L1442.38 700.306L1442.42 700.336L1442.43 700.343C1442.43 700.343 1442.43 700.344 1442.47 700.293C1442.53 700.223 1442.68 700.054 1443.01 699.652ZM1443.4 597.397C1443.4 597.397 1443.4 597.398 1443.01 598.215C1442.62 599.032 1442.62 599.031 1442.62 599.031L1442.61 599.027L1442.58 599.011L1442.43 598.942C1442.3 598.881 1442.11 598.791 1441.85 598.67C1441.64 598.571 1441.38 598.454 1441.09 598.316C1440.9 598.232 1440.7 598.14 1440.49 598.042C1440.2 597.91 1439.88 597.764 1439.53 597.607C1437.47 596.674 1434.39 595.305 1430.3 593.561C1422.13 590.075 1409.95 585.092 1393.91 579.111C1361.83 567.149 1314.33 551.196 1252.68 535.241C1129.37 503.333 949.448 471.42 723.016 471.42V469.608C949.618 469.608 1129.69 501.545 1253.13 533.488C1314.85 549.459 1362.4 565.431 1394.54 577.414C1410.61 583.405 1422.82 588.398 1431.01 591.896C1435.11 593.643 1438.21 595.018 1440.28 595.957C1441.31 596.425 1442.09 596.785 1442.62 597.028C1442.76 597.097 1442.89 597.156 1443 597.206C1443.08 597.244 1443.15 597.277 1443.21 597.304L1443.35 597.374L1443.39 597.392L1443.4 597.397ZM1443.01 516.704C1443.18 515.814 1443.18 515.814 1443.18 515.814L1443.17 515.812L1443.13 515.804L1442.99 515.777C1442.85 515.753 1442.66 515.716 1442.4 515.668C1441.88 515.572 1441.1 515.429 1440.07 515.243C1438 514.871 1434.9 514.325 1430.81 513.632C1422.62 512.244 1410.41 510.262 1394.35 507.883C1362.24 503.127 1314.69 496.785 1252.99 490.443C1129.6 477.761 949.566 465.08 723.016 465.08V466.891C949.499 466.891 1129.47 479.569 1252.81 492.246C1314.48 498.584 1362 504.922 1394.09 509.675C1410.14 512.051 1422.33 514.032 1430.51 515.418C1434.6 516.111 1437.68 516.655 1439.74 517.025C1440.37 517.138 1440.9 517.234 1441.33 517.313C1441.62 517.366 1441.86 517.411 1442.07 517.449C1442.33 517.497 1442.52 517.533 1442.65 517.557L1442.8 517.585L1442.83 517.591L1442.84 517.593C1442.84 517.593 1442.84 517.594 1443.01 516.704Z" fill="url(#paint0_linear_0_3)"/>
<path fill-rule="evenodd" clip-rule="evenodd" d="M0.000235373 0.937057C-0.00202877 0.933434 -0.00320607 0.930717 0.772399 0.463386C1.5481 -0.00394687 1.5489 -0.00304302 1.55081 0.000579716L1.55959 0.015077L1.59545 0.0739484C1.6276 0.127384 1.67588 0.20707 1.74045 0.31213C1.8696 0.524065 2.0635 0.839252 2.32206 1.25677C2.83901 2.09181 3.61417 3.33169 4.64508 4.95105C6.70681 8.18797 9.79117 12.9383 13.8787 18.9864C22.0538 31.0819 34.2405 48.3659 50.2808 69.1097C82.3622 110.597 129.853 165.914 191.489 221.23C314.768 331.868 494.561 442.438 720.77 442.438V444.249C493.946 444.249 313.74 333.379 190.279 222.577C128.544 167.173 80.9795 111.77 48.8478 70.2174C32.7816 49.441 20.5722 32.1252 12.378 20.0008C8.28093 13.9381 5.18739 9.17424 3.11724 5.92377C2.08216 4.29897 1.30302 3.05183 0.782086 2.21045C0.52171 1.79021 0.325817 1.47142 0.194768 1.25677C0.129289 1.149 0.0800208 1.06838 0.0470549 1.01404L0.00974301 0.952453L0.000235373 0.937057ZM0.0864535 134.191C0.0841894 134.188 0.0829219 134.187 0.772399 133.599C1.46179 133.012 1.46251 133.013 1.46432 133.015L1.47301 133.025L1.5086 133.067L1.57154 133.14L1.65305 133.234C1.70812 133.298 1.77496 133.375 1.85366 133.466L1.97945 133.611C2.0558 133.699 2.14048 133.796 2.23349 133.902C2.74971 134.491 3.52414 135.368 4.55424 136.513C6.61443 138.801 9.69726 142.161 13.7832 146.439C21.9551 154.994 34.1386 167.221 50.1756 181.895C82.2503 211.243 129.736 250.381 191.369 289.518C314.636 367.794 494.469 446.06 720.77 446.06V447.872C494.038 447.872 313.872 369.455 190.398 291.047C128.661 251.844 81.0914 212.638 48.9529 183.231C32.8833 168.527 20.6708 156.272 12.4734 147.69C8.37467 143.399 5.27967 140.026 3.20798 137.725C2.17218 136.573 1.39213 135.69 0.870571 135.094C0.609651 134.796 0.413486 134.57 0.282075 134.418C0.216415 134.342 0.166966 134.285 0.133729 134.246L0.0961441 134.202L0.0864535 134.191ZM0.772399 225.979C0.189337 226.672 0.190604 226.674 0.192959 226.675L0.202649 226.684L0.240413 226.715L0.338316 226.797L0.389122 226.838C0.520714 226.948 0.717152 227.11 0.978258 227.324C1.50028 227.751 2.28068 228.384 3.31703 229.21C5.38944 230.861 8.48533 233.279 12.5848 236.354C20.7837 242.507 32.9973 251.292 49.0675 261.831C81.2079 282.911 128.776 311.011 190.509 339.108C313.974 395.304 494.101 451.494 720.77 451.494V449.683C494.406 449.683 314.534 393.569 191.259 337.46C129.621 309.405 82.1338 281.352 50.0609 260.317C34.0246 249.799 21.8422 241.037 13.6718 234.906C9.58667 231.841 6.50457 229.433 4.4452 227.793C3.41555 226.973 2.64159 226.345 2.12582 225.923C2.01514 225.832 1.91633 225.751 1.82948 225.679C1.71391 225.584 1.61945 225.506 1.5461 225.445C1.48179 225.392 1.4337 225.351 1.40201 225.325L1.3665 225.295L1.35791 225.288C1.35791 225.288 1.35691 225.287 1.33898 225.308C1.33047 225.318 1.31797 225.332 1.29958 225.354C1.26562 225.394 1.21174 225.457 1.1257 225.56L0.772399 225.979ZM0.385139 327.329C0.385139 327.329 0.384596 327.329 0.385139 327.327C0.385683 327.325 0.387129 327.321 0.39048 327.313C0.397182 327.298 0.411585 327.267 0.441653 327.204C0.492913 327.095 0.589909 326.891 0.772399 326.51C0.949005 326.14 1.04591 325.939 1.09934 325.828C1.12425 325.776 1.13965 325.745 1.14934 325.725C1.15866 325.706 1.16246 325.698 1.16418 325.696C1.16527 325.694 1.16573 325.694 1.16573 325.694L1.17432 325.698L1.20992 325.716L1.3542 325.784C1.4828 325.844 1.67624 325.935 1.93426 326.055C2.4503 326.295 3.22464 326.653 4.25464 327.12C6.31465 328.051 9.39757 329.421 13.4837 331.164C21.6559 334.651 33.841 339.634 49.8806 345.614C81.96 357.577 129.458 373.53 191.111 389.484C314.416 421.392 494.339 453.306 720.77 453.306V455.117C494.168 455.117 314.092 423.18 190.657 391.237C128.939 375.267 81.3816 359.294 49.2479 347.312C33.181 341.321 20.97 336.328 12.7729 332.831C8.67444 331.082 5.57945 329.707 3.50758 328.77C2.47169 328.301 1.69154 327.94 1.1697 327.697C0.908875 327.576 0.712535 327.484 0.581034 327.422L0.432504 327.351L0.39483 327.333L0.385139 327.329ZM0.772399 407.116C0.649411 407.763 0.616444 407.94 0.608565 407.988C0.605576 408.006 0.606661 408.006 0.606661 408.006L0.616079 408.008L0.653211 408.015L0.800745 408.043C0.931526 408.068 1.12714 408.104 1.38733 408.152L1.63114 408.197L1.93127 408.253C2.09692 408.282 2.27815 408.316 2.47477 408.351C2.83775 408.417 3.25318 408.493 3.72086 408.577C5.78965 408.949 8.88174 409.494 12.977 410.188C21.1677 411.576 33.3719 413.558 49.4315 415.936C81.5508 420.693 129.092 427.035 190.791 433.376C314.19 446.059 494.22 458.74 720.77 458.74V456.929C494.287 456.929 314.319 444.251 190.977 431.574C129.305 425.236 81.7908 418.898 49.6969 414.145C33.65 411.768 21.4582 409.789 13.2796 408.402C9.19027 407.709 6.10427 407.165 4.04136 406.794C3.00991 406.609 2.23412 406.467 1.71672 406.371C1.45798 406.323 1.26381 406.287 1.13439 406.263L0.989126 406.236L0.953071 406.228L0.944196 406.227C0.944196 406.227 0.9432 406.227 0.939487 406.244C0.935955 406.261 0.929443 406.294 0.917035 406.358L0.8895 406.501C0.864323 406.632 0.827101 406.828 0.772399 407.116ZM0.782269 456.023C0.780186 456.023 0.779192 456.023 0.772399 456.929C0.765516 457.834 0.768595 457.834 0.768595 457.834H0.77774H0.792955L0.81433 457.835H0.841861H0.87537H0.915034L0.96077 457.836H1.01257L1.07044 457.837H1.13439L1.20439 457.838H1.28057L1.3627 457.839L1.45092 457.84L1.54519 457.841H1.64555H1.75186L1.86425 457.842L1.98272 457.843L2.10734 457.844L2.23785 457.845L2.37441 457.847L2.51697 457.848L2.66558 457.849L2.82017 457.85L2.98094 457.851L3.14757 457.852L3.32028 457.853L3.49887 457.855L3.68354 457.856L3.87428 457.858L4.07098 457.86L4.27357 457.861L4.48224 457.862L4.69688 457.864L4.9175 457.866L5.1441 457.868L5.37666 457.87L5.61521 457.871L5.85974 457.873L6.11016 457.875L6.36664 457.877L6.62901 457.879L6.89736 457.88L7.17159 457.882L7.45181 457.885L7.73799 457.887L8.03007 457.89L8.32812 457.891L8.63206 457.894L8.94196 457.896L9.25774 457.899L9.57943 457.901L9.9071 457.903L10.2407 457.906L10.5801 457.909L10.9255 457.911L11.2768 457.914L11.6339 457.917L11.997 457.919L12.366 457.922L12.7408 457.925L13.1215 457.928L13.5081 457.93L13.9005 457.934L14.2989 457.937L14.7031 457.939L15.1132 457.943L15.5291 457.946L15.9509 457.949L16.3786 457.952L16.812 457.956L17.2513 457.959L17.6966 457.962L18.1476 457.966L18.6045 457.969L19.0671 457.973L19.5357 457.976L20.01 457.979L20.4902 457.983L20.9761 457.987L21.4679 457.991L21.9656 457.995L22.4689 457.998L22.9782 458.002L23.4932 458.006L24.014 458.01L24.5406 458.014L25.0731 458.018L25.6112 458.022L26.1551 458.026L26.7049 458.03L27.2604 458.034L27.8217 458.039L28.3888 458.043L28.9616 458.047L29.5401 458.052L30.1244 458.056L30.7145 458.061L31.3103 458.065L31.9119 458.07L32.5192 458.074L33.1322 458.079L33.7511 458.083L34.3755 458.088L35.0058 458.092L35.6418 458.098L36.2835 458.102L36.9308 458.108L37.584 458.112L38.2428 458.117L38.9073 458.122L39.5775 458.128L40.2535 458.132L40.9351 458.138L41.6224 458.143L42.3154 458.148L43.0141 458.153L43.7185 458.159L44.4285 458.164L45.1441 458.169L45.8655 458.175L46.5926 458.18L47.3253 458.186L48.0637 458.191L48.8077 458.197L49.5574 458.203L50.3127 458.208L51.0737 458.214L51.8403 458.22L52.6125 458.226L53.3904 458.232L54.1739 458.237L54.963 458.244L55.7578 458.249L56.5581 458.255L57.3642 458.262L58.1757 458.268L58.9929 458.273L59.8157 458.28L60.6442 458.286L61.4782 458.293L62.3178 458.299L63.163 458.305L64.0137 458.312L64.8701 458.318L65.732 458.325L66.5995 458.331L67.4727 458.338L68.3512 458.344L69.2354 458.351L70.1252 458.358L71.0206 458.365L71.9215 458.371L72.8279 458.379L73.7399 458.385L74.6574 458.392L75.5805 458.399L76.509 458.406L77.4432 458.413L78.3828 458.42L79.3281 458.427L80.2787 458.435L81.2349 458.442L82.1967 458.449L83.1639 458.456L84.1367 458.464L85.115 458.471L86.0987 458.478L87.0879 458.485L88.0827 458.494L89.0829 458.501L90.0886 458.508L91.1001 458.516L92.1162 458.523L93.1387 458.532L94.1666 458.539L95.1991 458.547L96.2379 458.555L97.2821 458.562L98.3317 458.571L99.3859 458.579L100.446 458.587L101.512 458.595L102.584 458.603L103.661 458.611L104.743 458.62L105.83 458.628L106.923 458.636L108.021 458.644L109.125 458.652L110.235 458.66L111.349 458.669L112.469 458.677L113.595 458.686L114.726 458.695L115.862 458.703L117.004 458.712L118.15 458.72L119.303 458.729L120.461 458.738L121.624 458.746L122.793 458.755L123.966 458.764L125.146 458.773L126.33 458.783L127.52 458.791L128.716 458.8L129.917 458.809L131.123 458.818L132.334 458.828L133.551 458.837L134.773 458.846L136.001 458.855L137.233 458.864L138.471 458.874L139.715 458.883L140.964 458.892L142.218 458.902L143.477 458.911L144.742 458.921L146.012 458.931L147.287 458.94L148.568 458.95L149.854 458.96L151.145 458.969L152.442 458.979L153.743 458.989L155.05 458.999L156.363 459.009L157.68 459.019L159.004 459.029L160.331 459.039L161.665 459.049L163.004 459.059L164.348 459.069L165.697 459.08L167.051 459.09L168.411 459.1L169.776 459.11L171.147 459.12L172.521 459.13L173.903 459.141L175.288 459.151L176.679 459.162L178.076 459.173L179.477 459.183L180.884 459.194L182.296 459.205L183.714 459.215L185.135 459.226L186.563 459.236L187.995 459.247L189.434 459.258L190.877 459.269L192.325 459.28L193.779 459.292L195.238 459.302L196.702 459.313L198.171 459.324L199.645 459.335L201.124 459.347L202.608 459.358L204.098 459.369L205.593 459.38L207.093 459.392L208.598 459.403L210.109 459.415L211.624 459.426L213.145 459.437L214.67 459.449L216.201 459.46L217.736 459.472L219.278 459.484L220.824 459.495L222.375 459.507L223.932 459.519L225.493 459.531L227.06 459.542L228.631 459.554L230.208 459.566L231.79 459.578L233.377 459.59L234.969 459.602L236.566 459.614L238.168 459.626L239.775 459.638L241.388 459.65L243.005 459.663L244.628 459.675L246.255 459.687L247.887 459.699L249.526 459.712L251.168 459.724L252.816 459.737L254.469 459.749L256.126 459.762L257.789 459.774L259.457 459.787L261.13 459.8L262.808 459.812L264.491 459.825L266.179 459.838L267.872 459.85L269.57 459.863L271.272 459.876L272.98 459.889L274.693 459.902L276.411 459.915L278.135 459.928L279.863 459.941L281.595 459.954L283.333 459.967L285.076 459.98L286.823 459.993L288.577 460.007L290.334 460.02L292.097 460.033L293.865 460.047L295.637 460.06L297.415 460.073L299.197 460.087L300.985 460.1L302.778 460.114L304.574 460.127L306.377 460.141L308.184 460.155L309.997 460.168L311.813 460.182L313.635 460.195L315.462 460.21L317.293 460.223L319.13 460.237L320.972 460.252L322.819 460.265L324.67 460.279L326.527 460.293L328.388 460.307L330.253 460.321L332.124 460.335L334 460.349L335.881 460.364L337.767 460.377L339.657 460.392L341.552 460.406L343.452 460.421L345.357 460.435L347.267 460.45L349.182 460.464L351.102 460.479L353.026 460.493L354.955 460.508L356.889 460.522L358.828 460.537L360.771 460.551L362.72 460.566L364.674 460.581L366.632 460.596L368.594 460.61L370.562 460.626L372.535 460.64L374.512 460.655L376.494 460.67L378.481 460.685L380.473 460.7L382.47 460.715L384.471 460.731L386.477 460.745L388.488 460.761L390.504 460.776L392.525 460.791L394.55 460.807L396.579 460.822L398.614 460.838L400.654 460.853L402.698 460.868L404.747 460.884L406.8 460.899L408.859 460.914L410.922 460.93L412.991 460.945L415.063 460.962L417.14 460.977L419.222 460.992L421.309 461.009L423.401 461.024L425.497 461.04L427.598 461.056L429.704 461.072L431.814 461.087L433.929 461.104L436.049 461.12L438.173 461.135L440.302 461.152L442.436 461.168L444.574 461.184L446.717 461.2L448.865 461.216L451.018 461.232L453.176 461.249L455.337 461.265L457.504 461.281L459.674 461.298L461.85 461.314L464.031 461.331L466.216 461.347L468.406 461.364L470.599 461.38L472.799 461.397L475.003 461.414L477.211 461.431L479.423 461.447L481.641 461.463L483.863 461.481L486.09 461.497L488.321 461.514L490.556 461.531L492.797 461.548L495.042 461.565L497.292 461.582L499.546 461.599L501.805 461.615L504.069 461.633L506.337 461.65L508.609 461.667L510.887 461.684L513.168 461.702L515.454 461.719L517.745 461.736L520.04 461.753L522.341 461.771L524.645 461.788L526.954 461.806L529.268 461.823L531.585 461.841L533.909 461.858L536.235 461.875L538.567 461.894L540.904 461.911L543.244 461.929L545.59 461.946L547.939 461.964L550.294 461.982L552.652 462L555.016 462.018L557.383 462.036L559.756 462.053L562.132 462.071L564.513 462.089L566.9 462.107L569.29 462.125L571.684 462.143L574.083 462.162L576.487 462.18L578.895 462.198L581.308 462.216L583.725 462.234L586.146 462.252L588.572 462.271L591.003 462.289L593.437 462.307L595.876 462.326L598.321 462.345L600.769 462.363L603.221 462.382L605.678 462.4L608.139 462.419L610.605 462.437L613.076 462.456L615.55 462.474L618.029 462.493L620.513 462.512L623.001 462.53L625.492 462.549L627.989 462.568L630.49 462.587L632.996 462.606L635.505 462.625L638.019 462.644L640.538 462.663L643.061 462.682L645.589 462.701L648.12 462.72L650.656 462.739L653.196 462.758L655.741 462.777L658.291 462.797L660.844 462.816L663.401 462.835L665.963 462.854L668.53 462.874L671.1 462.893L673.676 462.913L676.255 462.932L678.839 462.952L681.426 462.971L684.019 462.991L686.616 463.011L689.217 463.03L691.822 463.05L694.432 463.07L697.045 463.089L699.664 463.109L702.286 463.129L704.913 463.149L707.544 463.169L710.179 463.189L712.818 463.209L715.463 463.229L718.111 463.248L720.763 463.268L720.776 461.457L718.125 461.437L715.476 461.417L712.832 461.397L710.193 461.377L707.557 461.357L704.926 461.337L702.3 461.318L699.677 461.298L697.059 461.279L694.445 461.259L691.836 461.239L689.231 461.219L686.629 461.2L684.033 461.18L681.44 461.16L678.853 461.141L676.269 461.121L673.689 461.102L671.114 461.082L668.544 461.063L665.977 461.044L663.415 461.024L660.857 461.005L658.304 460.986L655.755 460.966L653.21 460.947L650.669 460.928L648.134 460.909L645.602 460.89L643.075 460.871L640.551 460.852L638.033 460.833L635.519 460.814L633.009 460.795L630.504 460.776L628.003 460.757L625.506 460.738L623.014 460.719L620.526 460.701L618.043 460.682L615.563 460.663L613.089 460.645L610.619 460.626L608.153 460.607L605.692 460.588L603.235 460.57L600.782 460.551L598.334 460.533L595.89 460.514L593.451 460.496L591.017 460.478L588.586 460.46L586.159 460.441L583.739 460.423L581.321 460.405L578.909 460.386L576.501 460.368L574.097 460.35L571.698 460.332L569.303 460.314L566.913 460.296L564.527 460.278L562.146 460.26L559.77 460.242L557.397 460.224L555.029 460.206L552.666 460.188L550.307 460.171L547.953 460.153L545.603 460.135L543.258 460.117L540.917 460.099L538.581 460.082L536.25 460.064L533.922 460.047L531.599 460.03L529.282 460.012L526.968 459.994L524.659 459.977L522.354 459.96L520.055 459.942L517.759 459.925L515.468 459.907L513.182 459.89L510.9 459.873L508.623 459.856L506.35 459.839L504.082 459.821L501.819 459.805L499.56 459.788L497.305 459.771L495.056 459.753L492.811 459.736L490.571 459.72L488.335 459.703L486.103 459.686L483.876 459.669L481.655 459.652L479.437 459.636L477.224 459.619L475.016 459.602L472.813 459.586L470.614 459.569L468.42 459.552L466.23 459.536L464.044 459.52L461.864 459.503L459.688 459.486L457.517 459.47L455.351 459.454L453.189 459.437L451.032 459.421L448.879 459.405L446.732 459.388L444.588 459.373L442.45 459.357L440.316 459.34L438.187 459.324L436.062 459.309L433.943 459.292L431.827 459.276L429.717 459.261L427.612 459.244L425.51 459.229L423.415 459.213L421.323 459.197L419.236 459.181L417.154 459.166L415.076 459.15L413.004 459.134L410.936 459.119L408.873 459.103L406.814 459.088L404.761 459.072L402.711 459.057L400.667 459.042L398.628 459.026L396.593 459.011L394.563 458.995L392.538 458.98L390.518 458.965L388.502 458.949L386.491 458.934L384.485 458.919L382.484 458.904L380.487 458.888L378.495 458.874L376.508 458.859L374.526 458.844L372.548 458.829L370.576 458.814L368.608 458.799L366.645 458.784L364.687 458.77L362.734 458.754L360.785 458.74L358.841 458.725L356.902 458.711L354.969 458.696L353.04 458.682L351.115 458.668L349.195 458.653L347.281 458.639L345.371 458.624L343.466 458.61L341.566 458.595L339.67 458.581L337.78 458.567L335.895 458.552L334.014 458.538L332.138 458.524L330.267 458.51L328.401 458.495L326.54 458.482L324.684 458.467L322.832 458.454L320.986 458.44L319.145 458.426L317.308 458.412L315.476 458.398L313.649 458.384L311.827 458.37L310.01 458.357L308.198 458.343L306.39 458.33L304.588 458.316L302.791 458.302L300.999 458.289L299.211 458.275L297.429 458.262L295.651 458.248L293.879 458.235L292.111 458.222L290.348 458.208L288.59 458.196L286.837 458.182L285.089 458.168L283.347 458.156L281.609 458.142L279.876 458.13L278.148 458.117L276.425 458.103L274.707 458.091L272.994 458.078L271.286 458.064L269.583 458.052L267.885 458.039L266.193 458.026L264.504 458.014L262.822 458.001L261.144 457.988L259.471 457.976L257.803 457.963L256.14 457.95L254.482 457.938L252.83 457.926L251.182 457.913L249.539 457.9L247.902 457.889L246.269 457.876L244.642 457.863L243.019 457.851L241.401 457.839L239.789 457.827L238.182 457.815L236.579 457.803L234.983 457.791L233.391 457.779L231.804 457.766L230.222 457.755L228.645 457.743L227.074 457.731L225.507 457.719L223.945 457.707L222.389 457.696L220.837 457.684L219.291 457.672L217.751 457.66L216.215 457.649L214.683 457.638L213.158 457.626L211.638 457.614L210.122 457.603L208.612 457.592L207.107 457.581L205.607 457.569L204.112 457.558L202.622 457.546L201.137 457.535L199.658 457.525L198.184 457.513L196.715 457.502L195.252 457.491L193.793 457.48L192.339 457.469L190.891 457.458L189.447 457.447L188.01 457.436L186.577 457.425L185.149 457.415L183.727 457.404L182.31 457.393L180.898 457.382L179.491 457.371L178.089 457.361L176.693 457.351L175.302 457.341L173.916 457.33L172.535 457.319L171.16 457.309L169.79 457.299L168.425 457.288L167.065 457.278L165.711 457.268L164.361 457.257L163.017 457.247L161.679 457.237L160.346 457.227L159.017 457.217L157.694 457.208L156.376 457.198L155.064 457.188L153.757 457.178L152.456 457.168L151.159 457.158L149.867 457.149L148.581 457.139L147.301 457.129L146.025 457.12L144.756 457.11L143.491 457.1L142.232 457.091L140.977 457.082L139.728 457.072L138.485 457.063L137.247 457.053L136.014 457.044L134.787 457.035L133.565 457.025L132.348 457.016L131.136 457.006L129.93 456.997L128.729 456.988L127.534 456.979L126.344 456.971L125.159 456.962L123.98 456.953L122.806 456.944L121.638 456.935L120.474 456.927L119.317 456.918L118.164 456.909L117.017 456.901L115.875 456.891L114.74 456.883L113.608 456.874L112.483 456.866L111.363 456.858L110.248 456.849L109.139 456.841L108.035 456.833L106.936 456.824L105.844 456.816L104.756 456.808L103.674 456.8L102.597 456.792L101.526 456.784L100.46 456.776L99.3995 456.767L98.3453 456.759L97.2957 456.751L96.2515 456.744L95.2127 456.736L94.1802 456.728L93.1523 456.72L92.1298 456.712L91.1137 456.705L90.1023 456.698L89.0966 456.689L88.0964 456.682L87.1016 456.675L86.1124 456.667L85.1286 456.66L84.1503 456.652L83.1777 456.645L82.2103 456.638L81.2486 456.631L80.2924 456.623L79.3417 456.616L78.3965 456.609L77.4569 456.602L76.5227 456.594L75.5941 456.588L74.6711 456.581L73.7536 456.574L72.8416 456.567L71.9351 456.56L71.0342 456.554L70.1389 456.546L69.2491 456.54L68.3649 456.533L67.4863 456.526L66.6132 456.52L65.7457 456.514L64.8838 456.507L64.0274 456.5L63.1766 456.494L62.3314 456.488L61.4918 456.481L60.6578 456.475L59.8295 456.469L59.0067 456.462L58.1894 456.457L57.3778 456.45L56.5718 456.444L55.7715 456.438L54.9768 456.432L54.1876 456.426L53.404 456.42L52.6262 456.414L51.854 456.409L51.0873 456.402L50.3264 456.397L49.5711 456.392L48.8214 456.386L48.0773 456.38L47.339 456.374L46.6063 456.369L45.8793 456.363L45.1578 456.358L44.4422 456.353L43.7321 456.347L43.0278 456.342L42.3291 456.336L41.6361 456.332L40.9488 456.326L40.2671 456.321L39.5912 456.316L38.921 456.311L38.2564 456.305L37.5977 456.301L36.9445 456.296L36.2971 456.291L35.6554 456.286L35.0194 456.282L34.3893 456.276L33.7647 456.272L33.1459 456.267L32.5329 456.263L31.9255 456.258L31.324 456.254L30.7282 456.249L30.138 456.245L29.5538 456.24L28.9752 456.236L28.4023 456.231L27.8353 456.228L27.2741 456.223L26.7185 456.219L26.1688 456.215L25.6249 456.21L25.0866 456.207L24.5542 456.202L24.0277 456.199L23.5068 456.195L22.9918 456.19L22.4826 456.187L21.9792 456.183L21.4816 456.18L20.9898 456.176L20.5038 456.172L20.0236 456.169L19.5493 456.165L19.0808 456.161L18.6181 456.158L18.1613 456.154L17.7102 456.151L17.265 456.148L16.8257 456.144L16.3922 456.141L15.9645 456.138L15.5427 456.134L15.1269 456.132L14.7168 456.128L14.3125 456.125L13.9142 456.122L13.5218 456.119L13.1351 456.116L12.7544 456.113L12.3796 456.111L12.0107 456.108L11.6476 456.105L11.2904 456.103L10.9392 456.1L10.5938 456.097L10.2543 456.094L9.92077 456.092L9.59311 456.09L9.27142 456.087L8.95564 456.084L8.64573 456.083L8.34179 456.08L8.04374 456.078L7.75167 456.075L7.46548 456.074L7.18526 456.072L6.91094 456.069L6.64268 456.067L6.38022 456.065L6.12392 456.064L5.87333 456.062L5.6289 456.06L5.39035 456.058L5.15777 456.056L4.93118 456.055L4.71056 456.053L4.49591 456.051L4.28725 456.049L4.08457 456.048L3.88794 456.046H3.69731L3.51255 456.044L3.33386 456.042L3.16125 456.041L2.99451 456.04L2.83395 456.038L2.67926 456.037L2.53064 456.036H2.38809L2.25143 456.034L2.12092 456.033L1.99648 456.032L1.87794 456.031L1.76555 456.03H1.65913L1.55887 456.029L1.46459 456.028L1.37638 456.027H1.29415H1.21808L1.14807 456.026H1.08413L1.02626 456.025H0.974364L0.928718 456.024H0.889047H0.855535H0.828004L0.806723 456.023H0.791417H0.782269ZM0.772399 699.652C0.189337 698.959 0.190604 698.958 0.192959 698.957L0.202649 698.948L0.240413 698.917L0.249289 698.909L0.329078 698.842L0.389122 698.793L0.500157 698.7L0.626316 698.596C0.726391 698.514 0.843763 698.418 0.978258 698.307C1.50028 697.88 2.28068 697.247 3.31703 696.422C5.38944 694.77 8.48525 692.353 12.5848 689.277C20.7837 683.124 32.9973 674.339 49.0675 663.8C81.2079 642.72 128.776 614.621 190.509 586.523C313.974 530.327 494.101 474.137 720.77 474.137V475.948C494.406 475.948 314.534 532.062 191.259 588.171C129.621 616.227 82.1338 644.279 50.0609 665.314C34.0246 675.832 21.8422 684.594 13.6718 690.726C9.58667 693.79 6.50457 696.199 4.4452 697.838C3.41555 698.659 2.64159 699.286 2.12582 699.708C1.86788 699.92 1.67452 700.08 1.5461 700.186C1.49447 700.229 1.45336 700.263 1.42275 700.289L1.40201 700.306L1.3665 700.336L1.35791 700.343C1.35791 700.343 1.35664 700.344 1.31317 700.293C1.25303 700.223 1.11076 700.054 0.772399 699.652ZM0.385139 597.397C0.382785 597.398 0.381518 597.398 0.772399 598.215C1.16319 599.032 1.16392 599.032 1.16573 599.031L1.17432 599.027L1.20992 599.011L1.3542 598.942C1.4828 598.881 1.67624 598.791 1.93426 598.67C2.14609 598.571 2.4014 598.454 2.70008 598.316C2.88257 598.232 3.08128 598.14 3.2961 598.042C3.58618 597.91 3.9057 597.764 4.25464 597.607C6.31465 596.674 9.39757 595.305 13.4837 593.561C21.6559 590.075 33.841 585.092 49.8806 579.111C81.96 567.149 129.458 551.196 191.111 535.241C314.416 503.333 494.339 471.42 720.77 471.42V469.608C494.168 469.608 314.092 501.545 190.657 533.488C128.939 549.459 81.3816 565.431 49.2479 577.414C33.181 583.405 20.97 588.398 12.7729 591.896C8.67444 593.643 5.57945 595.018 3.50758 595.957C2.47169 596.425 1.69154 596.785 1.1697 597.028C1.0229 597.097 0.896563 597.156 0.790692 597.206C0.708367 597.244 0.638543 597.277 0.581034 597.304L0.432504 597.374L0.39483 597.392L0.385139 597.397ZM0.772399 516.704C0.603313 515.814 0.604488 515.814 0.606661 515.814L0.616079 515.812L0.653211 515.804L0.800745 515.777C0.931526 515.753 1.12714 515.716 1.38733 515.668C1.90772 515.572 2.68642 515.429 3.72086 515.243C5.78965 514.871 8.88174 514.325 12.977 513.632C21.1677 512.244 33.3719 510.262 49.4315 507.883C81.5508 503.127 129.092 496.785 190.791 490.443C314.19 477.761 494.22 465.08 720.77 465.08V466.891C494.287 466.891 314.319 479.569 190.977 492.246C129.305 498.584 81.7908 504.922 49.6969 509.675C33.65 512.051 21.4582 514.032 13.2796 515.418C9.19027 516.111 6.10427 516.655 4.04136 517.025C3.41836 517.138 2.88865 517.234 2.45276 517.313C2.16702 517.366 1.92158 517.411 1.71672 517.449C1.45798 517.497 1.26381 517.533 1.13439 517.557L0.989126 517.585L0.953071 517.591L0.944196 517.593C0.944196 517.593 0.941398 517.594 0.772399 516.704Z" fill="url(#paint1_linear_0_3)"/>
<path d="M743.997 410.557H697.997C684.742 410.557 673.997 421.302 673.997 434.557V479.557C673.997 492.812 684.742 503.557 697.997 503.557H743.997C757.252 503.557 767.997 492.812 767.997 479.557V434.557C767.997 421.302 757.252 410.557 743.997 410.557Z" fill="url(#paint2_linear_0_3)"/>
<path d="M721 442.949V481.135" stroke="white" stroke-width="3.32542" stroke-miterlimit="10" stroke-linecap="round"/>
<path d="M731.85 454.757C734.38 454.757 736.43 452.706 736.43 450.177C736.43 447.648 734.38 445.598 731.85 445.598C729.321 445.598 727.271 447.648 727.271 450.177C727.271 452.706 729.321 454.757 731.85 454.757Z" stroke="white" stroke-width="3.32542" stroke-miterlimit="10"/>
<path d="M721.066 441.708C723.595 441.708 725.646 439.658 725.646 437.129C725.646 434.6 723.595 432.549 721.066 432.549C718.537 432.549 716.487 434.6 716.487 437.129C716.487 439.658 718.537 441.708 721.066 441.708Z" fill="white" stroke="white" stroke-width="3.32542" stroke-miterlimit="10"/>
<path d="M731.85 454.756V464.485L721 470.603" stroke="white" stroke-width="3.32542" stroke-miterlimit="10"/>
<path d="M744.198 446.834C746.728 446.834 748.778 444.784 748.778 442.254C748.778 439.725 746.728 437.675 744.198 437.675C741.669 437.675 739.619 439.725 739.619 442.254C739.619 444.784 741.669 446.834 744.198 446.834Z" stroke="white" stroke-width="3.32542" stroke-miterlimit="10"/>
<path d="M744.199 446.834V456.563L731.103 460.596" stroke="white" stroke-width="3.32542" stroke-miterlimit="10"/>
<path d="M710.149 461.214C712.678 461.214 714.728 459.163 714.728 456.634C714.728 454.105 712.678 452.055 710.149 452.055C707.619 452.055 705.569 454.105 705.569 456.634C705.569 459.163 707.619 461.214 710.149 461.214Z" stroke="white" stroke-width="3.32542" stroke-miterlimit="10"/>
<path d="M710.149 461.214V470.943L721 477.061" stroke="white" stroke-width="3.32542" stroke-miterlimit="10"/>
<path d="M697.802 453.289C700.331 453.289 702.382 451.239 702.382 448.709C702.382 446.18 700.331 444.13 697.802 444.13C695.273 444.13 693.223 446.18 693.223 448.709C693.223 451.239 695.273 453.289 697.802 453.289Z" stroke="white" stroke-width="3.32542" stroke-miterlimit="10"/>
<path d="M697.802 453.289V463.018L710.898 467.052" stroke="white" stroke-width="3.32542" stroke-miterlimit="10"/>
</g>
<defs>
<linearGradient id="paint0_linear_0_3" x1="733.883" y1="340.987" x2="1429.81" y2="340.987" gradientUnits="userSpaceOnUse">
<stop offset="0.0182341" stop-color="#43D0F7" stop-opacity="0.01"/>
<stop offset="0.127609" stop-color="#43D0F7"/>
<stop offset="0.563305" stop-color="#43D0F7" stop-opacity="0.67"/>
<stop offset="0.943305" stop-color="#43D0F7" stop-opacity="0"/>
</linearGradient>
<linearGradient id="paint1_linear_0_3" x1="709.903" y1="340.987" x2="13.9773" y2="340.987" gradientUnits="userSpaceOnUse">
<stop offset="0.0182341" stop-color="#43D0F7" stop-opacity="0.01"/>
<stop offset="0.127609" stop-color="#43D0F7"/>
<stop offset="0.563305" stop-color="#43D0F7" stop-opacity="0.67"/>
<stop offset="0.943305" stop-color="#43D0F7" stop-opacity="0"/>
</linearGradient>
<linearGradient id="paint2_linear_0_3" x1="728.872" y1="542.265" x2="635.878" y2="448.27" gradientUnits="userSpaceOnUse">
<stop stop-color="#43D0F7"/>
<stop offset="1" stop-color="#67DDFE"/>
</linearGradient>
<clipPath id="clip0_0_3">
<rect width="1444" height="701" fill="white"/>
</clipPath>
</defs>
</svg>
