<svg width="54" height="48" viewBox="0 0 54 48" fill="none" xmlns="http://www.w3.org/2000/svg">
<path d="M27 11.3593V45.7269" stroke="#43D0F7" stroke-width="3.32542" stroke-miterlimit="10" stroke-linecap="round"/>
<path d="M36.7652 21.9865C39.0414 21.9865 40.8868 20.1412 40.8868 17.8649C40.8868 15.5886 39.0414 13.7433 36.7652 13.7433C34.4889 13.7433 32.6436 15.5886 32.6436 17.8649C32.6436 20.1412 34.4889 21.9865 36.7652 21.9865Z" stroke="#43D0F7" stroke-width="3.32542" stroke-miterlimit="10"/>
<path d="M27.0596 10.2432C29.3359 10.2432 31.1812 8.3979 31.1812 6.12161C31.1812 3.84531 29.3359 2 27.0596 2C24.7833 2 22.938 3.84531 22.938 6.12161C22.938 8.3979 24.7833 10.2432 27.0596 10.2432Z" fill="#43D0F7" stroke="#43D0F7" stroke-width="3.32542" stroke-miterlimit="10"/>
<path d="M36.7649 21.9865V30.7425L27 36.2489" stroke="#43D0F7" stroke-width="3.32542" stroke-miterlimit="10"/>
<path d="M47.8784 14.8561C50.1547 14.8561 52 13.0108 52 10.7345C52 8.45822 50.1547 6.61292 47.8784 6.61292C45.6022 6.61292 43.7568 8.45822 43.7568 10.7345C43.7568 13.0108 45.6022 14.8561 47.8784 14.8561Z" stroke="#43D0F7" stroke-width="3.32542" stroke-miterlimit="10"/>
<path d="M47.8784 14.8561V23.6121L36.0923 27.2424" stroke="#43D0F7" stroke-width="3.32542" stroke-miterlimit="10"/>
<path d="M17.2334 27.7979C19.5097 27.7979 21.355 25.9526 21.355 23.6763C21.355 21.4 19.5097 19.5547 17.2334 19.5547C14.9571 19.5547 13.1118 21.4 13.1118 23.6763C13.1118 25.9526 14.9571 27.7979 17.2334 27.7979Z" stroke="#43D0F7" stroke-width="3.32542" stroke-miterlimit="10"/>
<path d="M17.2334 27.798V36.5539L27 42.0604" stroke="#43D0F7" stroke-width="3.32542" stroke-miterlimit="10"/>
<path d="M6.12161 20.6659C8.39789 20.6659 10.2432 18.8206 10.2432 16.5443C10.2432 14.268 8.39789 12.4227 6.12161 12.4227C3.84531 12.4227 2 14.268 2 16.5443C2 18.8206 3.84531 20.6659 6.12161 20.6659Z" stroke="#43D0F7" stroke-width="3.32542" stroke-miterlimit="10"/>
<path d="M6.12158 20.6659V29.4218L17.9077 33.0521" stroke="#43D0F7" stroke-width="3.32542" stroke-miterlimit="10"/>
</svg>
