<svg width="83" height="72" viewBox="0 0 83 72" fill="none" xmlns="http://www.w3.org/2000/svg">
<path d="M41.5771 16.986V69.347" stroke="white" stroke-width="5.06646" stroke-miterlimit="10" stroke-linecap="round"/>
<path d="M56.4552 33.1771C59.9232 33.1771 62.7347 30.3656 62.7347 26.8976C62.7347 23.4295 59.9232 20.6181 56.4552 20.6181C52.9871 20.6181 50.1757 23.4295 50.1757 26.8976C50.1757 30.3656 52.9871 33.1771 56.4552 33.1771Z" stroke="white" stroke-width="5.06646" stroke-miterlimit="10"/>
<path d="M41.6677 15.2855C45.1357 15.2855 47.9472 12.4741 47.9472 9.00601C47.9472 5.53794 45.1357 2.7265 41.6677 2.7265C38.1996 2.7265 35.3882 5.53794 35.3882 9.00601C35.3882 12.4741 38.1996 15.2855 41.6677 15.2855Z" fill="white" stroke="white" stroke-width="5.06646" stroke-miterlimit="10"/>
<path d="M56.4545 33.1771V46.5173L41.5771 54.9067" stroke="white" stroke-width="5.06646" stroke-miterlimit="10"/>
<path d="M73.3868 22.3136C76.8548 22.3136 79.6663 19.5021 79.6663 16.0341C79.6663 12.566 76.8548 9.75455 73.3868 9.75455C69.9188 9.75455 67.1073 12.566 67.1073 16.0341C67.1073 19.5021 69.9188 22.3136 73.3868 22.3136Z" stroke="white" stroke-width="5.06646" stroke-miterlimit="10"/>
<path d="M73.387 22.3136V35.6537L55.4302 41.1847" stroke="white" stroke-width="5.06646" stroke-miterlimit="10"/>
<path d="M26.6975 42.0311C30.1655 42.0311 32.977 39.2196 32.977 35.7516C32.977 32.2835 30.1655 29.4721 26.6975 29.4721C23.2294 29.4721 20.418 32.2835 20.418 35.7516C20.418 39.2196 23.2294 42.0311 26.6975 42.0311Z" stroke="white" stroke-width="5.06646" stroke-miterlimit="10"/>
<path d="M26.6975 42.0312V55.3714L41.5774 63.7608" stroke="white" stroke-width="5.06646" stroke-miterlimit="10"/>
<path d="M9.76791 31.165C13.236 31.165 16.0474 28.3536 16.0474 24.8855C16.0474 21.4175 13.236 18.606 9.76791 18.606C6.29984 18.606 3.4884 21.4175 3.4884 24.8855C3.4884 28.3536 6.29984 31.165 9.76791 31.165Z" stroke="white" stroke-width="5.06646" stroke-miterlimit="10"/>
<path d="M9.76794 31.1651V44.5053L27.7248 50.0362" stroke="white" stroke-width="5.06646" stroke-miterlimit="10"/>
</svg>
