<svg width="53" height="44" viewBox="0 0 53 44" fill="none" xmlns="http://www.w3.org/2000/svg">
<path d="M37.4794 41.9144V37.4795C37.4794 35.127 36.5449 32.871 34.8815 31.2075C33.2181 29.5441 30.962 28.6096 28.6096 28.6096H10.8699C8.51743 28.6096 6.26134 29.5441 4.59792 31.2075C2.9345 32.871 2 35.127 2 37.4795V41.9144" stroke="#43D0F7" stroke-width="4" stroke-linecap="round" stroke-linejoin="round"/>
<path d="M19.7397 19.7397C24.6384 19.7397 28.6096 15.7685 28.6096 10.8699C28.6096 5.97117 24.6384 2 19.7397 2C14.841 2 10.8699 5.97117 10.8699 10.8699C10.8699 15.7685 14.841 19.7397 19.7397 19.7397Z" stroke="#43D0F7" stroke-width="4" stroke-linecap="round" stroke-linejoin="round"/>
<path d="M50.7842 41.9142V37.4793C50.7828 35.514 50.1287 33.6049 48.9246 32.0516C47.7205 30.4984 46.0347 29.389 44.1318 28.8977" stroke="#43D0F7" stroke-width="4" stroke-linecap="round" stroke-linejoin="round"/>
<path d="M35.262 2.28809C37.1699 2.7766 38.861 3.88622 40.0686 5.44201C41.2763 6.9978 41.9317 8.91128 41.9317 10.8808C41.9317 12.8503 41.2763 14.7637 40.0686 16.3195C38.861 17.8753 37.1699 18.9849 35.262 19.4734" stroke="#43D0F7" stroke-width="4" stroke-linecap="round" stroke-linejoin="round"/>
</svg>
