<svg width="63" height="60" viewBox="0 0 63 60" fill="none" xmlns="http://www.w3.org/2000/svg">
<path d="M16.107 2.92999C18.7667 1.02273 22.0136 -0.00595539 25.35 0.00163098C26.5022 -0.0228344 27.6424 0.228287 28.6649 0.731758C29.6875 1.23523 30.5594 1.97478 31.2 2.88199C31.8406 1.97478 32.7125 1.23523 33.7351 0.731758C34.7576 0.228287 35.8978 -0.0228344 37.05 0.00163098C40.3864 -0.00595539 43.6333 1.02273 46.293 2.92999C48.3405 4.43664 49.92 6.52305 50.4777 9.04521C51.7569 9.13753 52.9269 9.63975 53.9097 10.3968C55.3995 11.5415 56.4837 13.2587 57.1662 15.0755C58.2348 17.9005 58.5234 21.5009 57.4158 24.5659C57.6966 24.6915 57.9735 24.8392 58.2426 25.009C59.3151 25.6848 60.1302 26.6523 60.7308 27.7934C61.9125 30.0275 62.4 33.1442 62.4 36.9293C62.4 41.1427 60.7035 43.9714 58.5507 45.7181C57.3602 46.6846 55.9553 47.385 54.4401 47.7675C54.0501 49.8281 52.9581 52.2136 51.246 54.2373C49.023 56.8776 45.5754 59.0859 40.95 59.0859C37.284 59.0859 34.3668 57.1656 32.4714 55.2823C32.0183 54.8327 31.5937 54.3579 31.2 53.8606C30.8063 54.358 30.3818 54.8327 29.9286 55.2823C28.0332 57.1656 25.1199 59.0859 21.45 59.0859C16.8246 59.0859 13.3809 56.8776 11.154 54.2373C9.55406 52.356 8.45823 50.1364 7.9599 47.7675C6.44467 47.385 5.03978 46.6846 3.8493 45.7181C1.6965 43.9714 0 41.139 0 36.9293C0 33.1442 0.4914 30.0238 1.6692 27.7934C2.2274 26.6743 3.08523 25.7131 4.1574 25.0053C4.4208 24.8402 4.69721 24.6946 4.9842 24.5696C3.8766 21.4972 4.1652 17.9005 5.2338 15.0755C5.9163 13.2587 7.0005 11.5415 8.4903 10.3968C9.4731 9.63975 10.6431 9.14122 11.9223 9.04521C12.4839 6.52305 14.0634 4.43664 16.1109 2.92999H16.107ZM29.25 9.23354V9.19661L29.2422 9.01198C29.1848 8.04928 28.9825 7.09928 28.6416 6.19071C28.3989 5.50481 27.9856 4.88423 27.4365 4.38125C26.8605 3.90629 26.113 3.66023 25.35 3.6944C22.8811 3.68638 20.4767 4.44092 18.5016 5.84359C16.692 7.17667 15.6 8.98243 15.6 11.0799C15.5998 11.3723 15.5262 11.6605 15.3853 11.9207C15.2445 12.1809 15.0403 12.4058 14.7898 12.5767C14.5392 12.7476 14.2493 12.8597 13.9441 12.9038C13.6388 12.9479 13.3268 12.9227 13.0338 12.8303C12.3006 12.6013 11.6454 12.7306 10.9473 13.2623C10.1829 13.8532 9.438 14.9019 8.9037 16.3163C7.8156 19.204 7.9287 22.7011 9.4224 24.8281C9.63572 25.131 9.7497 25.4869 9.75 25.851H12.675C15.0023 25.851 17.2342 26.7264 18.8799 28.2846C20.5255 29.8427 21.45 31.9561 21.45 34.1597V35.3968C22.7511 35.8323 23.8476 36.6894 24.5459 37.8164C25.2441 38.9435 25.4991 40.268 25.2658 41.5558C25.0324 42.8437 24.3257 44.0119 23.2706 44.8541C22.2156 45.6964 20.88 46.1583 19.5 46.1583C18.12 46.1583 16.7844 45.6964 15.7294 44.8541C14.6743 44.0119 13.9676 42.8437 13.7342 41.5558C13.5009 40.268 13.7559 38.9435 14.4541 37.8164C15.1524 36.6894 16.2489 35.8323 17.55 35.3968V34.1597C17.55 31.6117 15.366 29.5437 12.675 29.5437H5.85C5.61686 29.5434 5.38569 29.5034 5.1675 29.4256L5.1558 29.4477C4.3836 30.9064 3.9 33.3288 3.9 36.9293C3.9 40.1014 5.1285 41.8887 6.3882 42.9116C7.7415 44.012 9.243 44.3148 9.75 44.3148C10.2672 44.3148 10.7632 44.5093 11.1289 44.8556C11.4946 45.2019 11.7 45.6715 11.7 46.1612C11.7 47.5201 12.48 49.8946 14.196 51.933C15.8691 53.9086 18.2754 55.3931 21.45 55.3931C23.634 55.3931 25.5918 54.2373 27.105 52.7343C27.8499 51.9958 28.431 51.2314 28.8093 50.6036C28.9815 50.3252 29.1289 50.0337 29.25 49.7321V20.3118H25.0185C24.5585 21.5438 23.6534 22.5821 22.4631 23.2432C21.2728 23.9044 19.8739 24.1458 18.5138 23.9248C17.1537 23.7039 15.9199 23.0347 15.0304 22.0357C14.1409 21.0367 13.6531 19.7721 13.6531 18.4655C13.6531 17.1588 14.1409 15.8942 15.0304 14.8952C15.9199 13.8962 17.1537 13.227 18.5138 13.0061C19.8739 12.7851 21.2728 13.0266 22.4631 13.6877C23.6534 14.3488 24.5585 15.3871 25.0185 16.6191H29.25V9.23354ZM33.15 46.1575V49.7284C33.2711 50.03 33.4185 50.3215 33.5907 50.5999C33.9729 51.2277 34.5501 51.9921 35.2911 52.7306C36.8082 54.2336 38.7699 55.3894 40.95 55.3894C44.1246 55.3894 46.5309 53.9049 48.204 51.9293C49.92 49.8909 50.7 47.5164 50.7 46.1575C50.7 45.6678 50.9054 45.1982 51.2711 44.8519C51.6368 44.5056 52.1328 44.3111 52.65 44.3111C53.157 44.3111 54.6585 44.0083 56.0118 42.9079C57.2715 41.885 58.5 40.0977 58.5 36.9256C58.5 33.3251 58.0125 30.9064 57.2442 29.444C56.9872 28.8995 56.5837 28.4284 56.0742 28.0777C55.6351 27.8119 55.1208 27.6792 54.6 27.6974C54.2473 27.6972 53.9012 27.6064 53.5986 27.4348C53.2961 27.2631 53.0484 27.0169 52.8819 26.7225C52.7154 26.428 52.6364 26.0964 52.6532 25.7628C52.6701 25.4292 52.7822 25.1061 52.9776 24.8281C54.4752 22.7011 54.5844 19.204 53.4963 16.3163C52.962 14.9019 52.2171 13.8495 51.4527 13.2623C50.7546 12.7306 50.0994 12.5977 49.3662 12.8303C49.0732 12.9227 48.7612 12.9479 48.4559 12.9038C48.1507 12.8597 47.8608 12.7476 47.6102 12.5767C47.3597 12.4058 47.1555 12.1809 47.0147 11.9207C46.8738 11.6605 46.8002 11.3723 46.8 11.0799C46.8 8.98243 45.708 7.17667 43.8945 5.84359C41.9204 4.44168 39.5176 3.68718 37.05 3.6944C36.287 3.66023 35.5396 3.90629 34.9635 4.38125C34.4128 4.88364 33.9981 5.50432 33.7545 6.19071C33.3832 7.15527 33.1791 8.17034 33.15 9.19661V42.4684H36.075C38.766 42.4684 40.95 40.4005 40.95 37.8525V31.0762C39.6489 30.6407 38.5524 29.7837 37.8541 28.6566C37.1559 27.5295 36.9009 26.205 37.1343 24.9172C37.3676 23.6294 38.0743 22.4611 39.1294 21.6189C40.1844 20.7767 41.52 20.3147 42.9 20.3147C44.28 20.3147 45.6156 20.7767 46.6706 21.6189C47.7257 22.4611 48.4324 23.6294 48.6658 24.9172C48.8991 26.205 48.6441 27.5295 47.9459 28.6566C47.2476 29.7837 46.1511 30.6407 44.85 31.0762V37.8525C44.85 40.0561 43.9255 42.1694 42.2799 43.7276C40.6342 45.2858 38.4023 46.1612 36.075 46.1612H33.15V46.1575ZM17.55 18.4655C17.55 18.9551 17.7554 19.4248 18.1211 19.771C18.4868 20.1173 18.9828 20.3118 19.5 20.3118C20.0172 20.3118 20.5132 20.1173 20.8789 19.771C21.2446 19.4248 21.45 18.9551 21.45 18.4655C21.45 17.9758 21.2446 17.5061 20.8789 17.1599C20.5132 16.8136 20.0172 16.6191 19.5 16.6191C18.9828 16.6191 18.4868 16.8136 18.1211 17.1599C17.7554 17.5061 17.55 17.9758 17.55 18.4655ZM42.9 27.6974C43.4172 27.6974 43.9132 27.5028 44.2789 27.1566C44.6446 26.8103 44.85 26.3407 44.85 25.851C44.85 25.3613 44.6446 24.8917 44.2789 24.5454C43.9132 24.1991 43.4172 24.0046 42.9 24.0046C42.3828 24.0046 41.8868 24.1991 41.5211 24.5454C41.1554 24.8917 40.95 25.3613 40.95 25.851C40.95 26.3407 41.1554 26.8103 41.5211 27.1566C41.8868 27.5028 42.3828 27.6974 42.9 27.6974ZM19.5 38.7757C18.9828 38.7757 18.4868 38.9702 18.1211 39.3165C17.7554 39.6627 17.55 40.1324 17.55 40.622C17.55 41.1117 17.7554 41.5814 18.1211 41.9276C18.4868 42.2739 18.9828 42.4684 19.5 42.4684C20.0172 42.4684 20.5132 42.2739 20.8789 41.9276C21.2446 41.5814 21.45 41.1117 21.45 40.622C21.45 40.1324 21.2446 39.6627 20.8789 39.3165C20.5132 38.9702 20.0172 38.7757 19.5 38.7757Z" fill="#43D0F7"/>
</svg>
