<svg width="62" height="55" viewBox="0 0 62 55" fill="none" xmlns="http://www.w3.org/2000/svg">
<path d="M53.0027 1C51.2718 0.999309 49.5875 1.52125 48.2028 2.48736C46.8181 3.45347 45.8079 4.81157 45.3241 6.35751C44.8402 7.90346 44.9089 9.55373 45.5197 11.0603C46.1305 12.5668 47.2504 13.8483 48.7112 14.712L43.4927 31.7024C43.3307 31.6928 43.1685 31.6877 43.0062 31.6873C41.2859 31.6855 39.6113 32.2026 38.2337 33.1609L28.5927 25.6873C29.0491 24.4276 29.1344 23.0771 28.8395 21.7763C28.5446 20.4756 27.8805 19.2721 26.9161 18.291C25.9517 17.31 24.7224 16.5872 23.356 16.198C21.9895 15.8087 20.5359 15.7672 19.1464 16.0777C17.7569 16.3882 16.4822 17.0394 15.4549 17.9635C14.4276 18.8877 13.6853 20.051 13.3052 21.3324C12.925 22.6139 12.921 23.9667 13.2934 25.2502C13.6659 26.5336 14.4012 27.7007 15.423 28.6302L9.76341 39.1601C9.51556 39.1382 9.26675 39.127 9.01779 39.1266C7.10191 39.1243 5.24864 39.7611 3.79439 40.9214C2.34014 42.0817 1.38129 43.6885 1.0919 45.4503C0.802501 47.2121 1.20174 49.012 2.21714 50.5233C3.23255 52.0346 4.79681 53.1572 6.626 53.6872C8.45518 54.2173 10.428 54.1197 12.1865 53.4122C13.9449 52.7046 15.3724 51.4341 16.2097 49.8311C17.0471 48.2281 17.2389 46.399 16.7502 44.6757C16.2616 42.9524 15.125 41.4492 13.5466 40.4389L18.8948 30.4901C20.1939 30.8235 21.5627 30.8453 22.8734 30.5535C24.184 30.2617 25.3939 29.6658 26.39 28.8214L35.7243 36.0575C35.0904 37.3569 34.8716 38.7985 35.0941 40.2103C35.3165 41.6221 35.9707 42.9447 36.9787 44.0203C37.9867 45.0959 39.3059 45.8791 40.7791 46.2765C42.2524 46.674 43.8174 46.669 45.2876 46.262C46.7578 45.8551 48.0712 45.0634 49.0712 43.9813C50.0712 42.8993 50.7155 41.5725 50.9274 40.1593C51.1393 38.7461 50.9098 37.3059 50.2663 36.0107C49.6227 34.7154 48.5924 33.6196 47.2979 32.8539L52.5162 15.8636C52.6772 15.8726 52.8392 15.8787 53.0027 15.8787C55.1237 15.8787 57.1579 15.0949 58.6577 13.6997C60.1574 12.3046 61 10.4124 61 8.43933C61 6.4663 60.1574 4.57408 58.6577 3.17893C57.1579 1.78379 55.1237 1 53.0027 1ZM9.01779 50.2856C8.22693 50.2856 7.45384 50.0674 6.79627 49.6587C6.13869 49.25 5.62618 48.6691 5.32353 47.9894C5.02089 47.3097 4.9417 46.5618 5.09599 45.8402C5.25028 45.1187 5.63111 44.4559 6.19033 43.9357C6.74955 43.4155 7.46203 43.0613 8.23769 42.9177C9.01335 42.7742 9.81734 42.8479 10.548 43.1294C11.2787 43.4109 11.9032 43.8877 12.3425 44.4994C12.7819 45.1111 13.0164 45.8302 13.0164 46.5659C13.0152 47.5521 12.5936 48.4976 11.8439 49.1949C11.0943 49.8922 10.0779 50.2845 9.01779 50.2856ZM21.0137 27.0377C20.2228 27.0377 19.4497 26.8195 18.7922 26.4108C18.1346 26.0021 17.6221 25.4211 17.3194 24.7415C17.0168 24.0618 16.9376 23.3139 17.0919 22.5923C17.2462 21.8708 17.627 21.208 18.1862 20.6878C18.7454 20.1676 19.4579 19.8133 20.2336 19.6698C21.0092 19.5263 21.8132 19.5999 22.5439 19.8815C23.2745 20.163 23.899 20.6398 24.3384 21.2515C24.7778 21.8632 25.0123 22.5823 25.0123 23.318C25.0111 24.3042 24.5895 25.2496 23.8398 25.947C23.0902 26.6443 22.0738 27.0366 21.0137 27.0377ZM43.0062 42.8463C42.2153 42.8463 41.4422 42.6281 40.7846 42.2194C40.1271 41.8107 39.6145 41.2297 39.3119 40.55C39.0093 39.8704 38.9301 39.1225 39.0844 38.4009C39.2386 37.6794 39.6195 37.0166 40.1787 36.4964C40.7379 35.9762 41.4504 35.6219 42.2261 35.4784C43.0017 35.3349 43.8057 35.4085 44.5364 35.6901C45.267 35.9716 45.8915 36.4484 46.3309 37.0601C46.7703 37.6717 47.0048 38.3909 47.0048 39.1266C47.0036 40.1128 46.5819 41.0582 45.8323 41.7556C45.0827 42.4529 44.0663 42.8451 43.0062 42.8463ZM53.0027 12.159C52.2119 12.159 51.4388 11.9408 50.7812 11.5321C50.1236 11.1234 49.6111 10.5425 49.3085 9.86279C49.0058 9.18311 48.9266 8.43521 49.0809 7.71366C49.2352 6.99212 49.6161 6.32934 50.1753 5.80913C50.7345 5.28893 51.447 4.93466 52.2226 4.79114C52.9983 4.64762 53.8023 4.72128 54.5329 5.00281C55.2636 5.28434 55.8881 5.7611 56.3275 6.3728C56.7669 6.9845 57.0014 7.70365 57.0014 8.43933C57.0002 9.42551 56.5785 10.371 55.8289 11.0683C55.0793 11.7656 54.0629 12.1579 53.0027 12.159Z" fill="#43D0F7" stroke="#43D0F7" stroke-width="0.5"/>
</svg>
