<svg width="37" height="56" viewBox="0 0 37 56" fill="none" xmlns="http://www.w3.org/2000/svg">
<path d="M18.4921 0C8.35089 0 0.121551 8.2571 0.00325347 18.4974V18.507C-0.00108449 18.6415 -0.00108449 18.7761 0.00325347 18.9106C0.00897757 19.1617 0.0261498 19.5073 0.0662185 19.9302C0.229193 22.5205 0.923847 25.048 2.10587 27.3514C3.28788 29.6549 4.93132 31.6837 6.93132 33.3084C10.4345 37.3095 11.3007 40.8935 11.398 42.0985V42.1101C11.4114 42.2356 11.4305 42.3611 11.4553 42.4828H11.4495V45.9393L25.7598 43.0466V42.9501C25.8685 42.6875 25.9391 42.4055 25.9639 42.1101V42.0965C26.0727 40.7661 26.6508 37.2226 30.0719 33.3277C32.0823 31.6949 33.7321 29.6537 34.9149 27.3357C36.0977 25.0178 36.7872 22.4746 36.9389 19.8703C36.973 19.5037 36.9933 19.1359 37 18.7677V18.5495C36.8722 8.27255 28.6447 0 18.4921 0ZM3.81932 18.5572C3.85953 14.6457 5.42314 10.9082 8.17047 8.15667C10.9178 5.40515 14.6269 3.86186 18.4921 3.86207C26.5383 3.86207 33.0771 10.4141 33.1839 18.5901V18.7697C33.1839 18.872 33.1725 19.1057 33.1343 19.5749L33.1305 19.5981V19.6232C33.0117 21.7157 32.4552 23.7589 31.4977 25.6175C30.5401 27.476 29.2035 29.1076 27.5762 30.4041L27.4484 30.5046L27.3396 30.6262C23.7373 34.6717 22.6211 38.5377 22.2776 40.8028H21.0717C21.1576 37.8386 21.5468 32.3159 23.2049 30.4717C24.8458 29.1586 25.9334 27.1697 26.067 24.9103C26.0861 24.6979 26.0861 24.5628 26.0861 24.4662V24.389C26.0654 22.3693 25.2584 20.4395 23.8401 19.0186C22.4218 17.5976 20.5068 16.8004 18.5112 16.8C16.9411 16.8006 15.4101 17.2962 14.1312 18.2179C12.8522 19.1396 11.8887 20.4416 11.3746 21.9431C10.8605 23.4445 10.8213 25.0707 11.2625 26.5957C11.7037 28.1207 12.6034 29.4687 13.8365 30.4524C15.4812 32.312 15.8857 37.8386 15.983 40.8028H15.0672C14.6398 38.472 13.224 34.6215 9.66744 30.6108L9.55677 30.4872L9.42702 30.3848C7.80662 29.0927 6.47433 27.4687 5.51746 25.619C4.56059 23.7694 4.00075 21.736 3.87465 19.6521L3.87083 19.6174L3.86702 19.5807C3.83602 19.2695 3.81946 18.9569 3.81741 18.6441V18.5881L3.81932 18.5592V18.5572ZM18.5112 18.731C21.6022 18.731 24.1208 21.2607 24.1589 24.389V24.5434C24.1589 24.6014 24.1589 24.6786 24.1399 24.7945C24.0445 26.4166 23.2622 27.9421 22.0029 28.9462L21.8693 29.0428L21.7548 29.1586C19.656 31.5145 19.2171 37.5007 19.1408 40.7834H17.9006C17.8052 37.5007 17.3473 31.5145 15.2484 29.1586L15.1339 29.0428L15.0004 28.9462C14.3702 28.4418 13.8535 27.8071 13.485 27.0845C13.1165 26.3618 12.9046 25.568 12.8634 24.7559C12.863 24.717 12.8592 24.6782 12.8519 24.64C12.8479 24.6209 12.8454 24.6016 12.8443 24.5821V24.4083C12.9016 21.28 15.4392 18.731 18.5112 18.731ZM25.7598 45.0163L11.4495 47.909V49.7801L25.7598 46.7291V45.0163ZM11.4495 52.1379V51.7517L25.7598 48.7026V52.1379C25.7598 52.6501 25.5588 53.1412 25.2009 53.5034C24.8431 53.8655 24.3578 54.069 23.8517 54.069H21.7224C21.3999 54.65 20.9315 55.1345 20.3646 55.4736C19.7978 55.8127 19.1525 55.9943 18.494 56C17.8355 55.9943 17.1902 55.8127 16.6234 55.4736C16.0565 55.1345 15.5881 54.65 15.2656 54.069H13.3576C12.8515 54.069 12.3662 53.8655 12.0084 53.5034C11.6506 53.1412 11.4495 52.6501 11.4495 52.1379Z" fill="#43D0F7"/>
</svg>
